<?xml version="1.0" encoding="UTF-8"?>
<svg id="Layer_2" data-name="Layer 2" xmlns="http://www.w3.org/2000/svg" viewBox="0 0 1070.68 574.25">
  <defs>
    <style>
      .cls-1 {
        fill: #dabfbb;
      }

      .cls-2 {
        fill: #ef6172;
      }

      .cls-3 {
        fill: #fccc24;
      }

      .cls-4 {
        fill: #ae84bf;
      }

      .cls-5 {
        fill: #aea915;
      }
    </style>
  </defs>
  <g id="ELEMENT">
    <g>
      <path class="cls-2" d="M140.24,299.57c-.17-5.98-.33-11.81,2.57-17.49,3.31-6.5,5.48-13.4,5.39-20.99-.04-3.1,1.03-7.04,3.07-9.21,8.88-9.43,8.78-23.45,17.42-32.86,1.44-11.46,10.59-19.33,13.95-29.94.76-2.4,2.46-4.85,4.39-6.48,16.35-13.77,26.16-33.15,41.36-47.97,3.77-3.67,7.2-7.61,11.61-10.57,9.8-6.57,19.53-13.25,29.41-19.7,3.38-2.21,5.52-4.97,7.77-8.42,6.09-9.35,13.13-17.74,24.68-21.77,7.3-2.55,13.53-8.19,20.24-12.43,12.31-7.77,24.7-15.34,39.5-17.49,17.11-2.48,32.43-10.56,47.95-17.13,17.58-7.45,35.71-9.52,54.02-11.64,7.35-.85,14.54-1.1,20.98-5.11,5.88-3.66,12.61-4.01,19.17-4.77,6.59-.76,13.18-.75,19.42-3.79,2.81-1.37,6.77-2.33,9.56-1.45,14.26,4.53,28.87,1.71,43.28,2.71,8.63.6,17.2.42,25.55,3.39,3.66,1.3,7.78,1.46,11.72,1.83,3.3.31,7.24-.97,9.87.41,13.51,7.09,28.46,5.23,42.63,7.92,10.24,1.95,20.84,4.14,29.78,10.65,3.13,2.28,7.17,3.46,10.95,4.69,19.56,6.37,38.66,13.7,55.51,25.87,1.05.76,2.33,1.35,3.59,1.65,24.16,5.87,41.27,22.44,58.77,38.47,2.89,2.65,6.26,4.87,9.67,6.85,6.34,3.68,11.16,7.95,15.3,14.7,5.37,8.76,13.93,15.87,22.06,22.55,11.78,9.68,18.5,22.45,23.79,36.04,2.48,6.38,5.24,11.79,10.47,16.39,3.34,2.94,6.51,7.32,7.42,11.55,2.73,12.84,11.23,22.28,17.46,33.1,6.23,10.82,13.32,21.04,19.99,31.52,5.08,7.98,6.51,18.5,8.65,28.09,2.73,12.24,5.44,24.4,9.6,36.31,3.45,9.89,5.03,20.44,7.49,30.68,2.74,11.38,7.03,22.42,3.37,34.66-1.22,4.08-.27,9.45,1.35,13.58,2.81,7.15,1.95,14.4,2.47,21.63-1.67.84-3.32,2.33-5,2.36-2.39.06-2.84-2.4-2.81-4.3.2-12.18-4.86-22.84-9.53-33.62-3.11-7.19-6.26-14.36-9.39-21.53-3.94-18.59-14.29-35.3-15.85-54.62-.26-3.19-1.66-6.53-3.34-9.32-4.44-7.39-8.29-14.55-10.16-23.44-1.83-8.66-10.25-15.03-13.12-24.21-1.52-4.86-4.95-9.19-6.57-14.36-2.4-7.66-6.23-14.53-13.23-19.35-3.18-2.19-5.98-5.16-6.63-9.55-2.17-14.73-14.14-25.15-17.56-39.43-.54-2.26-3.1-4.33-5.18-5.88-5.48-4.07-8.63-9.63-12.16-15.34-4.78-7.73-8.77-17.61-17.96-20.56-10.03-3.23-14.3-11.23-20.15-18.2-3.75-4.46-5.33-10.97-12.03-12.64-6.78-1.68-8.36-9.6-15.32-11.91-9.35-3.1-18.06-7.95-23.97-16.84-2.01-3.03-6.27-5.04-9.92-6.42-9.32-3.52-18.53-7.02-26.41-13.4-1.95-1.58-4.8-2.35-7.35-2.84-24.65-4.75-47.33-16.81-72.53-19.5-13.2-6.81-27.85-8.07-42.04-11.13-12.26-2.65-24.23-6.97-36.59-8.67-24.38-3.36-48.81-3.76-72.54,4.88-3.04,1.11-6.5,1.57-9.75,1.5-6.79-.15-13.03,2.19-19.52,3.35-19.66,3.51-37.56,12.77-57.23,16.34-16.19,2.94-31.04,10.63-46.64,15.76-2.48.81-4.95,2.17-6.94,3.86-7.71,6.55-16.83,10.31-26,14.16-5.98,2.51-12.53,4.2-15.46,11.5-1.06,2.64-5.08,4-7.55,6.18-8.43,7.44-17.63,14.24-24.95,22.65-13.82,15.89-30.09,29.6-41.87,47.35-2.85,4.29-7.28,7.91-11.7,10.69-10.28,6.47-20.26,12.76-22.87,26.02-.45,2.29-3,4.31-4.87,6.16-3.88,3.86-6.54,8.23-7.73,13.67-.69,3.18-1.61,6.84-3.71,9.09-6.63,7.14-10.95,14.55-9.51,24.94.48,3.44-2.77,7.27-3.76,11.06-3.01,11.53-11.09,21.11-12.64,33.18-7.56-2.18-15.18-4.06-23.15-3.66Z"/>
      <path class="cls-1" d="M140.24,299.57c7.97-.39,15.58,1.48,23.15,3.66,5.88,4.92,10.13,11.85,17.84,14.5-.65,3.19-1.16,6.6,2.69,8.03,3.07,1.14,4.68-1.55,5.83-3.72,4.22-7.95,8.17-16.07,17.95-18.63,14.34-4.97,28.83-9.42,43.87-11.77,7.49.78,14.99,1.57,22.48,2.35,5.23,4.71,11.23,8.82,15.46,14.3,4.13,5.35,9.56,8.45,14.69,12.21.14,10.94,1.46,21.6,7.55,31.1-1.31,9.24,4.83,18.01,1.6,27.45-.75,2.19,1.7,4.02,3.46,3.84,11.39-1.16,20.47,5.32,30.13,9.25,16,6.51,25.99,18.01,25.25,36.53-.19,4.65-.48,9.34-.11,13.96.72,9-1.15,17.15-6.68,24.37-.81,1.06-2.01,2.06-2.27,3.25-2.81,12.67-12.52,17.56-23.45,21.4-9.38,3.3-18.51,7.19-28.72,7.49-8.8.26-16.95,3.39-24.4,7.76-4.18,2.45-8.47,5.21-12.97,3.85-10.62-3.21-20.96-.42-31.35.35-20.07,1.49-39.62-2.91-59.32-5.1-6.26-.7-11.69-.64-17.28,1.37-12.92,4.64-25.84,5.29-39.08,1.28-3.73-1.13-7.87-1.38-11.81-1.28-6.82.17-13.21-1.09-19.28-4.13-10.14-5.07-21.85-4.44-32.14-10.03-17.14-9.29-33.45-18.82-43.8-36.27-5.32-8.97-13.32-15.81-16.61-26.69C-.7,418.3.05,406.57.1,394.77c.04-8.89,7.45-14.31,14.43-17.72,5.95-2.91,11.52-6.45,17.47-9.29,11.38-5.44,23.23-4.5,35.13-2.35,9.6,1.74,8.97,1.41,14.24-7.66,7.3-12.57,15.17-24.87,23.72-36.61,5.93-8.13,15.18-12.62,24.13-16.99,3.57-1.74,7.34-3.07,11.02-4.58ZM293.77,483.79c5.32,0,10.64,0,15.95,0,13.18,0,24.32-5.45,34.91-12.71,5.26-3.61,8.78-8.56,10.13-14.33,1.77-7.57,4.7-16.33,2.49-23.05-4.24-12.88-10.34-25.67-25.36-30.62-9.43-3.11-18.43-7.49-28.65-7.78-4.78-.14-6.98-3.3-7.2-7.84-.38-7.95-1.07-15.94,1.87-23.64,1.21-3.17,2.46-7,.08-9.48-6.33-6.58-7.71-15.15-10.71-23.13-2.19-5.84-6.87-9.25-12.66-11.84-17.15-7.69-33.87-1.88-50.73.83-10.39,10.52-26.28,16.26-28.7,33.75-.58,4.22-5.02,6.12-9.13,5.35-6.52-1.22-10.74-5.26-12.88-11.2-1.1-3.04-.74-6.58-1.41-9.81-1.9-9.22-7.05-13.46-16.2-14.52-13.33-1.55-23.28,4.76-31,14.27-7.91,9.74-15.12,20.14-20.12,31.89-2.85,6.71-6.42,13.13-9.9,19.56-2.08,3.84-5.14,5.47-9.9,4.35-12.19-2.87-24.55-4.84-36.77-7.84-20.87-5.13-34.95,9.35-31.55,28.26,1.49,8.3,4.23,17.52,9.43,23.81,15.77,19.06,34.4,34.59,59.1,41.76,15.72,4.56,31.62,3.39,47.45,3.77,11.8.29,23.63-.17,35.36-3.67,9.93-2.96,19.91-3.31,30.54,1.78,9,4.31,19.52,7.2,30.72,2.97,6.52-2.46,14.42-1.39,21.66.49,3.13.82,6.9,2.2,9.59,1.2,11.06-4.11,22.31-2.76,33.56-2.55Z"/>
      <path class="cls-1" d="M956.69,378.5c3.13,7.18,6.28,14.35,9.39,21.53,4.66,10.78,9.73,21.44,9.53,33.62-.03,1.9.42,4.36,2.81,4.3,1.68-.04,3.34-1.53,5-2.36,12.65-.1,25.31.18,37.94-.38,22.66-1,36.15,11.64,44.63,30.46,5.49,12.2,7.18,25.31-.48,37.81-.34.56-.64,1.19-.79,1.83-6.57,28.78-28.39,41.81-53.65,50.08-15,4.91-29.58,11.4-45.65,13.37-6.53.8-13.02,2.07-19.67,2.21-5.99.13-12.39-.81-17.88.97-17.67,5.72-33.87-.48-50.36-4.76-6.41-1.67-12.8-5.43-19.36-3.34-9.46,3-17.68,2.95-26.15-3.03-2.78-1.96-7.74-1.06-11.71-1.11-26.98-.28-51.98-6.62-76.1-19.54-11.86-6.35-23.07-12.52-32.37-22.19-7.14-7.42-11.9-16.21-13.7-26.14-1.77-9.78.12-19.87,2.8-29.16,2.22-7.69,9.79-11.97,16.82-16.22,18.69-11.3,36.84-7.43,55.12.57,1.2.53,2.44.97,3.69,1.46,3.23-3.09-.11-5.89-.37-8.83-.98-11.26-1.66-22.35,1.68-33.57,2.29-7.7,3.14-15.47,11-20.19,3.05-1.83,1.97-6.04,2.16-9.31,7.55-1.05,11.9-5.19,12.51-12.94,2.58-.09,5.47.54,7.7-.38,11.36-4.7,22.54-3.47,33.79.15.59.19,1.29.03,1.93.04,2.79,4.38,7.13,7.42,9.2,12.63,2.39,6.02,6.04,11.66,9.9,16.91,1.82,2.48,4.64,1,6.15-1.68,5.69-7.72,10.82-16.11,20.61-19.38,3.11-1.04,6.12-1.91,7.93-4.9,5.07,0,10.14-.02,15.22-.02,14.14-.37,27.93.46,38.86,11.23.36.36,1.23.19,1.87.27ZM747.5,451.09c-2.89,0-4.23-.04-5.56,0-13.4.46-24.04,8-28.74,20.55-.66,1.78-1.27,4.14-.65,5.74,3.34,8.59,5.06,18.02,11.8,24.98,14.03,14.5,28.78,27.72,50.49,29.01,3.23.19,6.4,1.59,9.56,2.55,26.16,7.92,53.71,7.25,80.24,12.96,1.8.39,3.93-.33,5.81-.87,15.82-4.54,31.4-3.11,46.97,1.39,4.33,1.25,8.32,3.33,13.45,2.44,16.91-2.95,33.66-7.11,51.1-6.61,4.37.12,8.92-2.26,13.21-3.94,6.79-2.65,13.71-5.17,20.1-8.63,12.53-6.78,27.3-11.33,31.11-27.91,7.19-7.92.83-17.62,3.46-26.14-5.35-12.71-12.68-22.44-27.55-25.99-15.11-3.6-28.48-1.18-41.83,5.52-7.12,3.57-15.42-.22-16.9-7.65-1.67-8.44-3.78-16.93-4.06-25.46-.32-9.94-4.79-18-9.52-25.88-8.7-14.48-18.13-17.48-35.22-13.58-14.9,3.4-24.97,11.91-30.04,26.19-2.44,6.86-4.07,14.01-6.45,20.9-.53,1.54-2.56,3.41-4.11,3.63-7.75,1.08-17.66-4.95-17.62-12.28.1-16.48-11.63-26.32-19.58-38.23-3.45-5.16-15.97-6.14-19.95-1.24-5.54,6.81-15.78,10.82-14.38,22.47.35,2.92-1.83,6.26-3.2,9.24-3.13,6.78-5.51,13.89-3.89,21.25,2.45,11.12-4.88,19.88-6.36,30.03-.59,4.09-6.16,5.69-9.67,3.37-4.43-2.92-9.9-5.31-12.69-9.44-5.41-7.98-12.6-8.96-19.35-8.36Z"/>
      <path class="cls-4" d="M803.54,363.64c-.62,7.75-4.96,11.89-12.51,12.94-13.96-21.72-30.99-40.84-49.94-58.28-10.71-9.86-19.5-21.85-32.33-29.37-8.78-16.46-27.64-22.32-38.54-36.67-6.18-8.14-15.95-11.62-24.61-16.45-27.58-15.38-57.59-23.11-88.48-27.97-4.54-.72-9.68-1.35-13.86.04-15.13,5.04-31.28,5.81-46.23,10.87-16.36,5.54-33.17,8.65-49.93,12.18-3.88.82-7.75.98-11.26,3.27-17.5,11.47-35.75,21.67-51.33,36.13-7.55,7.01-17.69,11.14-24.99,19.16-14.19,15.61-28.52,30.97-36.84,50.82-2.1,5.02-6.45,8.34-10.94,11.29-6.09-9.5-7.41-20.16-7.55-31.11,10.69-10.81,22.94-20.27,29.2-34.84.73-1.69,2.47-3.72,4.11-4.12,7.26-1.78,9.14-8.8,13.77-13.04,4.84-4.44,11.77-6.82,16.01-11.65,10.72-12.19,23.86-20.57,37.99-28.03,18.8-9.93,37.83-18.7,59.44-20.46,4.52-.37,8.86-2.59,13.37-3.47,7.13-1.38,13.85-4.09,21.23-4.95,17.04-2,33.92-5.32,50.91-7.78,4.55-.66,9.46-.97,13.9-.01,23.93,5.18,48.19,9.53,69.23,23.36,2.17,1.43,4.65,3.35,7.01,3.37,10.89.09,18.38,6.69,26.3,12.69,4.75,3.6,9.21,8.2,14.6,10.19,9.2,3.4,15.47,9.99,22.21,16.36,3.83,3.62,8.1,6.78,12.25,10.06,7.79,6.17,15.79,12.04,22.16,19.89,3.31,4.08,7.46,7.55,11.55,10.91,22.08,18.2,42.35,37.88,54.11,64.68Z"/>
      <path class="cls-3" d="M900.75,367.02c-.89-10.6-3.89-20.53-7.57-30.56-6.8-18.55-12.28-37.6-17.85-56.58-1.15-3.91-1.91-7.85-4.92-10.57-5.74-5.17-6.58-12.73-10.07-18.91-3.26-5.79-.91-14.18-7.15-17.81-7.29-4.25-4.62-13.59-11.17-18.13-5.4-3.74-9.95-8.78-14.54-13.58-14.65-15.34-29.76-30.1-47.18-42.4-16.2-11.44-31.96-23.11-50.8-30.62-26.32-10.49-51.54-23.49-75.09-39.59-8.85-6.05-19.98-6.69-30.43-7.55-15.85-1.29-32.01-.15-47.63-2.62-17.61-2.78-35.36-1.49-53.05-5.09-18.32-3.73-37.65-6.23-56.32,1.55-4.73,1.97-10.38,1.78-15.63,2.44-19.54,2.46-36.3,12.14-52.88,21.54-6.98,3.96-13.86,7.55-21.42,9.93-15.48,4.89-28.7,13.32-40.47,24.45-15.53,14.7-31.43,28.97-48.59,41.84-7.31,5.48-13.72,12.45-19.54,19.56-10.85,13.26-20.66,27.36-31.54,40.59-4.43,5.39-6.2,11.77-8.59,17.76-5.83,14.66-16.07,27.28-19.61,42.92-.58,2.55-.69,5.2-1.02,7.81-9.78,2.56-13.73,10.68-17.95,18.63-1.15,2.17-2.76,4.86-5.83,3.72-3.85-1.43-3.33-4.84-2.69-8.03.69-11.21,1.43-21.81,9.12-31.74,5.35-6.9,6.74-17,9.42-25.81,2.54-8.35,6.63-15.57,11.72-22.74,8-11.27,14.58-23.55,21.59-35.51,5.76-9.82,12.84-18.35,22.36-24.78,15.82-10.69,28.41-25.77,46.13-33.9,1.16-.53,2.43-1.31,3.13-2.33,9.72-14.24,24.89-21.75,38.69-30.75,15.51-10.12,31.99-18.67,49.07-25.94,11.99-5.11,24.92-8.15,35.51-16.36,1.5-1.16,3.54-1.82,5.44-2.22,25.89-5.51,51.68-11.3,78.56-9.44,13.9.96,27.93.1,41.9.2,7.93.06,15.97-.9,23.62,2.42,1.75.76,3.98,1.12,5.85.82,19.5-3.13,38.13,2.72,56.87,6.01,16.85,2.96,34.07,6.37,46.55,20.22,1.57,1.75,4.51,2.66,6.97,3.16,21.14,4.33,39.99,12.74,56.16,27.62,6.12,5.64,15.35,7.58,21.56,13.86,2.31,2.33,5.76,3.66,7.73,6.19,15.09,19.49,35.35,33.8,51.79,51.9,6.14,6.76,13.7,11.75,19.87,18.72,15.2,17.16,26.01,36.58,35.24,57.17,12.46,27.8,22.2,56.59,31.57,85.54,2.01,6.22,2.21,11.62-1.67,16.95-5.07,0-10.14.01-15.21.02Z"/>
      <path class="cls-5" d="M846.97,363.44c-8.12-24.71-22.82-46.12-37.18-67.1-11.13-16.26-21.82-32.77-32-49.57-9.17-15.12-22.52-25.74-36-36.08-11.91-9.14-25.23-16.48-38.11-24.31-13.02-7.9-24.54-18.01-38.49-24.64-6.55-3.11-12.77-7.1-19.87-8.62-10.45-2.24-20.13-6.98-30.27-9.54-13.16-3.32-26.24-9.08-40.47-6.72-1.28.21-2.73.43-3.91.06-17.66-5.49-35.16-1.18-52.73.59-5.24.53-10.53.67-15.8.62-11.45-.11-22.6.32-31.74,8.81-1.81,1.68-4.75,2.63-7.3,2.97-20.1,2.67-36.51,14.22-54.4,22.23-20.08,8.99-37.8,21.74-55.71,34.21-3.23,2.25-6.3,4.9-8.88,7.86-4.81,5.54-9.72,10.75-15.99,14.81-3.78,2.45-6.69,6.33-9.77,9.77-2.64,2.94-4.37,7.14-7.54,9.1-17.83,11.04-25.09,30.31-36.78,46.11-7.5-.79-14.99-1.57-22.48-2.35,3.32-7.23,6.36-14.62,10.08-21.63,2.14-4.03,4.63-8.73,8.29-10.94,11.78-7.14,18.71-18.71,27.48-28.51,6.2-6.93,11.42-14.52,20.34-18.44,2.33-1.02,4.69-2.92,6.05-5.04,7.84-12.2,20-18.94,32.01-25.86,8.48-4.89,16.5-10.67,24.55-16.05,8.97-5.99,18.59-10.2,28.2-13.7,9.95-3.63,19.64-7.9,29.54-11.62,28.7-10.78,58.34-16.55,88.86-18.24,11.27-.62,22.54-1.4,33.83-1.76,7.25-.23,14.66-.98,21.13,3.88,1.44,1.08,3.84,1.56,5.69,1.35,16.98-1.89,32.53,5.28,48.8,7.77,23.37,3.58,43.47,15.98,63.1,28.18,12.18,7.57,25.16,13.76,36.8,22.45,9.98,7.45,18.26,17.45,30.41,21.92,8.02,15.22,26.03,22.23,31.54,40.17,2.29,7.44,10.4,13.42,16.65,19.23,9.51,8.84,15.48,19.3,18.99,31.77,3.21,11.39,6.66,22.91,14.69,32.25,1.25,1.45,2.15,3.43,2.59,5.31,3.59,15.5,10.33,29.72,17.21,43.94,1.96,4.05.91,9.27,3.82,13.24-1.51,2.68-4.32,4.16-6.15,1.68-3.86-5.25-7.5-10.89-9.9-16.91-2.07-5.21-6.41-8.25-9.2-12.63Z"/>
    </g>
  </g>
</svg>