<?xml version="1.0" encoding="UTF-8"?>
<svg id="Layer_2" data-name="Layer 2" xmlns="http://www.w3.org/2000/svg" viewBox="0 0 244.32 330.82">
  <defs>
    <style>
      .cls-1 {
        fill: #b88278;
      }

      .cls-2 {
        fill: #b61e45;
      }
    </style>
  </defs>
  <g id="ELEMENT">
    <g>
      <path class="cls-1" d="M88.1,226.41c1.23-10.6,2.53-21.1-5.57-30.13-2.76-3.08-2.63-7.73-1.83-11.51,2.65-12.51-.86-24.9-.19-37.34.36-6.68-.33-13.15-3.24-19.42-1.64-3.54-2.58-7.6-2.92-11.51-2.07-24.01-17.65-40.39-32.06-57.46-1.7-2.02-4.2-3.59-5.27-5.87-7-14.9-19.87-24.23-31.95-34.35C-1.15,13.62-1.41,11.28,2.97,3.48,4.35,1.01,5.81-.37,9.09.09c12.74,1.78,22.22,8.04,27.43,19.84,2.24,5.08,5.04,9.1,9.96,11.85,9.63,5.4,14.69,15.29,19.57,24.14,3.21,5.82,6.1,11.51,10.88,16.01,10.28,9.67,16.97,21.45,23.85,33.74,11.87,21.23,21.57,43.72,35.81,63.64,6.9,9.65,12.47,20.1,15.13,31.85-.1,4.43-1.83,7.49-6.69,7.89-12.11-13.32-19.84-29.5-29.32-44.56-3.57-5.67-4.87-14.23-14.33-14.17-4.06,6.27-2.33,12.88-.38,19.08,1.87,5.9,1.96,11.77,1.96,17.74,0,15.32-.05,30.63-.08,45.95-5.78-.35-10.18-3.73-14.78-6.68Z"/>
      <path class="cls-2" d="M88.1,226.41c4.6,2.95,9.01,6.33,14.78,6.68,4.05,5.24,10.73,7.16,14.7,12.98,13.53,19.85,6.83,44.65-9.33,58.89-6.79,5.99-12.97,12.86-20.46,18.38-5.12,3.78-9.21,6.87-15.55,6.37-1.98-.15-4.06.33-5.96-.08-7.1-1.5-14.52,3.78-21.29-.59-12.26-7.91-24.91-16.27-31.04-29.75-4.23-9.31-4.7-20.38-6.38-30.74-.39-2.4.53-5.58,1.97-7.59,7.11-9.95,12.25-21.6,24.61-27.04,6.56-2.89,12.22-9.56,18.78-10.32,9.53-1.11,19.5,1.61,29.29,2.63,1.94.2,3.92.13,5.87.19ZM79.99,248.16c-3.31-1.42-6.56-3.38-9.58-.88-9.2,7.63-20.72,10.91-30.81,16.82-5.98,3.5-8.36,7.95-4.91,12.88,3.56,5.08,4.46,11.01,7.39,16.16,1.68,2.95,3.61,5.58,7.13,6.43,7.04,1.71,14.02,4.17,21.16,4.91,17.45,1.81,29.08-7.55,32.03-24.83.55-3.24.88-6.52,1.54-9.74,2.76-13.52-4.39-22.01-18.39-21.75-1.94.04-3.89,0-5.56,0Z"/>
      <path class="cls-2" d="M145.03,209.06c4.86-.41,6.59-3.46,6.69-7.89,1.95-.36,4.22-.19,5.81-1.15,16.23-9.73,33.45-10.72,51.38-6.28,1.28.32,2.58.6,3.89.69,6.47.42,12.82-.35,17.98,5.84,5.65,6.78,9.86,14.05,11.66,22.45,1.36,6.36,2.3,13.1,1.7,19.52-.9,9.61-2.3,18.96-9.87,26.92-5.93,6.23-12.36,11.82-18.83,17.24-6.06,5.08-13.66,8.01-22.12,7.26-3.29-.29-6.69-.48-9.92.03-26.55,4.24-41.6-16.94-51.14-37.52-2.15-4.64-2.76-10.14-3.3-15.33-.69-6.7-.32-12.94,7.13-16.89,5.46-2.9,7.51-8.97,8.94-14.89ZM195.37,267.14c1.23.16,3.82.72,6.44.82,10.49.41,20.72-8.27,21.14-18.47.37-9.13,0-18.28-.17-27.43-.08-4.15-2.93-5.54-6.55-5.52-5.17.03-10.38,2.32-15.49-.53-2.56-1.43-5.21-.67-7.54.6-9.25,5.01-18.5,10.05-27.59,15.34-2.14,1.24-4.45,3.16-5.39,5.32-5.96,13.8,2.78,28.22,18.07,29.77,5.18.53,10.46.08,17.09.08Z"/>
    </g>
  </g>
</svg>