<?xml version="1.0" encoding="UTF-8"?>
<svg id="Layer_2" data-name="Layer 2" xmlns="http://www.w3.org/2000/svg" viewBox="0 0 196.25 171">
  <defs>
    <style>
      .cls-1 {
        fill: #f88219;
      }
    </style>
  </defs>
  <g id="ELEMENT">
    <path class="cls-1" d="M175.25,125.42c-13.44-3.85-29.73,0-45.26-4.8-6.08-1.88-10.42,1.24-14.99,6.6-13.3,15.57-27.99,29.97-44.42,42.38-3.94,2.97-10.09,1-10.81-3.68-.91-5.86-.81-11.87-1.13-17.82-.35-6.59.47-13.18-1.51-19.77-1.69-5.62-4.57-9.4-10.2-10.91-8.31-2.22-16.67-4.27-24.97-6.54-7.78-2.12-14.95-5.32-19.93-12.13-2.87-3.92-2.67-8.94.44-12.39,6.01-6.65,14.2-9.61,22.12-12.76,7.23-2.88,10.26-7.58,10.12-15.23-.17-9.29-.25-18.65.68-27.87.42-4.21,1.23-12.17,5.62-11.33,6.76,1.3,11.64-7.05,18.47-1.7,10.49,8.22,24.41,5.28,36.05,10.13,3.33,1.38,6.79.04,9.52-1.62,10.06-6.14,22.19-8.58,30.73-17.53,2.67-2.8,6.32-4.91,9.88-6.58,10.37-4.9,19.48.29,21.54,11.55,1.63,8.93-.74,17.63-3.73,25.3-4.79,12.3-1.28,24.9-3.96,37.15-1.34,6.15,2.77,11.49,8.06,14.98,7.15,4.72,14.29,9.52,21.85,13.51,4.8,2.53,7.09,5.95,6.81,10.94-.24,4.39-5.93,9.42-10.95,10.08-2.61.35-5.31.06-10.02.06ZM173.37,111.69c-7.62-4.23-11.49-5.6-14.37-8.11-14.24-12.38-23.07-26.93-17.82-46.87,2.35-8.92,2.83-18.34,7.51-26.62.58-1.02.48-2.6.26-3.84-.23-1.25-.72-2.85-1.64-3.44-.87-.56-2.83-.49-3.67.14-5.79,4.37-12.26,8.23-16.92,13.63-9.49,10.99-20.72,9.71-32.53,6.35-8.28-2.36-16.53-4.91-24.57-7.96-5.84-2.22-11.43-2.92-18.01-.65-1.22,6.16-3.07,12.52-3.57,18.98-.38,4.91,4.59,7.77,6.87,11.72,2.13,3.69,1.16,8.46-2.42,10.43-5.2,2.86-10.89,4.84-16.04,7.78-4.9,2.81-11.64,3.68-13.44,11.81,7.56,2,14.49,5.21,22.39,6.26,19.63,2.62,25.42,9.62,26.01,29.91.1,3.31.12,6.64.43,9.94.33,3.47,4.68,5.5,7.39,3.34,9.32-7.42,17.76-15.75,25.8-24.57,3.13-3.44,2.18-9.86,7.44-10.98,5.11-1.08,10.56-1.2,15.8-.83,5.91.42,11.89,1.35,17.57,2.99,7.76,2.25,15.36,2.64,27.53.59Z"/>
  </g>
</svg>