<?xml version="1.0" encoding="UTF-8"?>
<svg id="Layer_2" data-name="Layer 2" xmlns="http://www.w3.org/2000/svg" viewBox="0 0 583.99 496.04">
  <defs>
    <style>
      .cls-1 {
        fill: #ef6172;
      }

      .cls-2 {
        fill: #b88278;
      }

      .cls-3 {
        fill: #b61e45;
      }
    </style>
  </defs>
  <g id="ELEMENT">
    <g>
      <path class="cls-3" d="M10.75,240.44c-2.69-9.94-1.34-19.31,3.52-28.39,7.12-13.3,12.96-27.39,25.55-36.97,1.95-1.48,3.42-4.23,4.06-6.68,4.04-15.22,14.19-26.38,24.5-37.4,3.69-3.94,7.27-7.83,8.3-13.28,1.68-8.85,7.01-15.92,12.29-22.53,8.52-10.66,15.97-22.12,25.26-32.23,9.35-10.18,15.57-23.08,27-31.53,3.71-9.67,11.87-15.63,18.97-22.4,2.81-2.69,6.31-4.75,9.7-6.73,4.13-2.4,8.16-3.67,12.76,0,6.5,5.18,13.8,7.89,22.14,3.79,4-1.96,7.56.31,11.4,1.28,18.69,4.68,37.69,6.57,56.97,5.04,2.55-.2,5.46-.46,7.69.51,10.77,4.68,22.09,3.74,33.32,3.83,1.99.02,4.2-.52,5.95.14,13.84,5.19,28.27,5.38,42.68,4.94,30.58-.93,60.37,8.19,90.96,6.91,10.75-.45,20.18,5.55,30.98,5.87,10.47.31,20.86,2.95,31.29,4.55,1.93.3,4.36,1.38,5.74.62,9.94-5.51,19.03,2.42,28.86,1.6,7.14-.6,13.48,4.38,17.6,11.17,4.99,8.22,12.6,15.53,15.16,24.37,2.43,8.39-3.54,17.95-4.16,26.65-1.15,16.29-6.72,32.35-3.36,49.02.74,3.68-.36,7.93-1.36,11.72-3.39,12.83-5.03,25.9-6.49,39.06-1.73,15.6-5.18,30.94-9.02,46.17-.65,2.58-.5,5.1,1.23,7.54,2.26,3.17,8.78,2.32,8.3,6.31-.33,2.77-6.89,3.27-7.04,8.31-.09,3.19.23,6.76-3.48,8.57-4.54-.19-9.52.73-13.52-.84-5.74-2.25-10.16-.38-14.94,1.78-3.31-.18-6.67-.04-9.92-.58-24.01-4.01-48.04-7.98-71.98-12.37-5.15-.94-10-2.97-15.46-2.99-7.86-.04-16.32,2.16-23.41-2.37-7.61-4.86-15.81,2.93-23.06-2.05-32.74-3.64-65.35-8.7-98.49-7.54-13.25.46-26.53-.06-39.8-.13-9.6-.18-19.21-.36-28.81-.55-17.55-3.7-35.27-4.88-53.21-4.67-22.35.27-44.7.82-67.06.11-4.63-.15-9.28-.17-13.88-.68-17.63-1.93-35.24-4.03-52.85-6.07-6.96-.3-13.93-.59-20.89-.88ZM202.47,34.1c-2.62,7.77-1.76,15.53.07,23.28,6.95,29.46,10.42,59.76,21.29,88.29,1.15,3.02,1.35,6.44,1.79,9.71,2.66,19.52,10.03,37.95,12.56,57.6,1.59,12.35,9.52,16.84,22.32,18.33,12.3,1.43,25.15-.78,36.82,5.32,1.65.86,4.12,1.38,5.77.8,10.69-3.75,21.05.81,31.54.82,13.11.01,26.2,3.66,39.32.26,19.68,4.87,39.7,1.93,59.56,2.63,12.51.44,25.35-1.8,36.84,5.62,1.52.98,3.88,1.11,5.81.98,17.43-1.21,34.36,2.18,51.41,4.95,7.75,1.26,9.09-.06,10.27-7.88.79-5.22,2.44-10.81,1.36-15.71-2.94-13.33,2.09-26.31.61-39.49-.28-2.45.33-5.72,1.83-7.53,6.36-7.64,4.61-16.29,3.59-24.77-.38-3.17-2.18-5.94.01-9.3,8.88-13.59,2.68-29.97,7.96-44.27-3.06-12.15,1.07-23.39,4.39-34.74-2.87-3.4-7.23-3.97-10.87-3.71-15.38,1.09-30.24-3.18-45.39-4.29-18.42-1.35-36.62-5.96-55.34-4.74-1.31.09-2.75.08-3.95-.36-13.26-4.8-27.46-2.77-41.07-5.81-7.7-1.72-15.77-1.02-22.3-6.72-3.25-2.84-7.68-3.24-11.38-1.94-14.5,5.12-28.67-.75-42.86-1.44-18.37-.9-36.51-5.96-55.2-4.24-2.56.24-5.25-.19-7.79-.7-15.2-3.05-41.43-3.52-58.95-.94ZM215.98,224.02c-.52-8.08.3-14.89-3.98-21.89-4.02-6.57-4.37-14.6-4.6-22.85-.46-16.92-.67-34.4-10.76-49.58-1.66-2.5-1.33-6.36-1.8-9.62-1.2-8.31-2.18-16.65-3.53-24.93-3.28-20.17-11.32-39.2-14.36-59.45-.66-4.43-6.62-9.87-9.02-9.29-3.77.91-4.25,4.39-5.77,7.32-1.42,2.74-4.6,4.52-6.79,6.92-11.51,12.65-24.73,24.21-32.13,39.84-9.64,20.34-21.05,39.33-35.71,56.39-1.7,1.97-3.56,3.97-4.63,6.29-6.71,14.56-16.87,26.81-26.32,39.52-6.3,8.48-11.17,17.64-14.83,27.49-1.85,4.98-.98,6.5,4.68,7.89,2.5.61,5.33,1.58,7.64.97,17.55-4.65,35.32,1.13,52.88-1.44,10.83,4.79,22.29,2.75,33.48,2.83,10.01.07,19.58,1.64,29.39,3.68,14.56,3.03,29.59,8.41,46.14-.11Z"/>
      <path class="cls-2" d="M10.75,240.44c6.96.3,13.93.59,20.89.88.09,1.97-.32,4.13.37,5.87,5.36,13.59,5.37,26.88-.94,40.26-1.61,3.41-2.21,7.19-1.94,11.42,1.33,20.99,2.23,42.02,2.6,63.05.1,5.77.21,11.92-2.52,17.51-4.41,9.04-5.56,18.75-6.05,28.69-.57,11.72-1.75,23.41-2.67,35.2,7.44,2.72,14.66,1.49,21.86.82,7.67-1.23,14.08,4.42,21.62,3.97,12.84,3.08,25.75,4.58,39.05,3.86,11.8-.64,23.68.05,35.52.16,8.26.43,16.68-.11,24.35,3.96,7.58,2.3,15.17,4.56,22.73,6.93,4.56,1.43,9.13,1.46,13.8.8,3.82-.54,6.08-2.63,6.42-6.35.83-9.23.42-18.71,2.46-27.65,1.63-7.16,5.08-13.5-1.03-20.14-1.01-1.1-.91-4.19-.13-5.79,4.22-8.71-1.13-19.08,3.53-26.86,5.74-9.57.94-17.88.27-26.77-.14-1.87,1.1-3.8,1.45-5.75,1.85-10.42,5.71-21.02,4.86-31.23-.93-11.19-.8-22.55-2.54-33.58-1.54-9.77.02-18.41,3.92-27.04,9.6.18,19.21.36,28.81.55-1.46,23.15-2.9,46.29-4.41,69.43-.26,3.96-.21,8.09-1.38,11.8-2.66,8.43-3.15,16.81-2.12,25.56.61,5.2-.06,10.61-.56,15.88-1,10.48-4.1,21.13-3.04,31.36,1.58,15.27,2.68,30.13-.29,45.38-1.64,8.45,3.79,14.56,12.04,14.54,21.19-.03,42.4,1.73,63.44-2.51,3.79-.76,8.16-.9,11.78.23,6.64,2.06,12.92,2.09,19.59.42,3.78-.95,8.06-1.41,11.83-.68,19.67,3.83,39.64,2.96,59.47,4.19,13.23.82,26.92-1.58,39.71.97,13.98,2.79,27.73,2.3,41.6,2.46,10.29.12,13.43-2.59,14.73-12.07,2.49-18.23,8.58-36.09,5.7-54.92-.38-2.52.09-5.42,1-7.83,2.68-7.09,2.06-14.4,2.17-21.69.06-3.95-.94-8.46.6-11.74,3.67-7.81,2.36-15.46,1.76-23.43-.62-8.32-1.55-17.06.31-25,2.67-11.44,4.88-23.03,8.2-34.33,4.78-2.16,9.2-4.03,14.94-1.78,4,1.57,8.98.65,13.52.84-6.64,14.85-5.46,31.09-8.06,46.65-1.3,7.75.62,16-3.3,23.44,1.02,22.2-8.55,44.14-1.31,66.58,1.57,4.87.39,10.32-1.05,15.66-3.8,14.08-7.11,28.32-9.77,42.66-1.48,7.96-7.15,12.54-11.81,17.96-2.79,3.24-7.3,3.15-11.2,2.37-4.54-.9-9.07-2.27-13.36-4.03-10.87-4.45-22.32-4.6-33.42-2.95-7.4,1.1-14.19.51-21.4-.23-8.95-.92-17.63-3.72-27.24-.94-7.34,2.13-15.11-3.53-23.38-3-23.18,1.48-46.47-1.56-69.7,1.82-7.62,1.1-15.92-2.46-23.52-1.32-12.63,1.89-24.35-5.89-37.33-1.31-11.36,4.02-23.76.46-35.7.87-10.58.37-21.1.34-31.6-2.79-6.82-2.03-14.21-1.94-21.56.59-11.59,3.99-23.71,2.98-35.39.32-7.81-1.78-15.64-2.88-23.51-4.09-4-.61-7.64-1.38-11.63.09-10.38,3.83-20.93,2.35-31.54.85-5.76-.81-11.34-3.37-17.58-.8-5.27,2.17-10.39-.73-15.19-3.08-5.95-2.91-11.57-6.48-18.64-6.48-3.64,0-7.86,1.23-10.13-3.88-3.06-6.88-11.23-12.02-8.85-20.69,4.67-17,.32-34.43,3.39-51.59,1.31-7.32-1.88-15.54-3.51-23.25-1-4.72-1.31-9.05,1-13.5,7.83-15.1,5.47-31.19,3.12-46.81-1.21-8.03-2.66-15.61-.07-23.42,1.08-3.26,1.42-6.39.26-9.71-4.52-12.94-1.61-24.74,5.69-35.83Z"/>
      <path class="cls-1" d="M138.55,452.11c2.12-4.85,4.56-9.63,2.99-15.22-1.16-4.13-.33-7.9,2.38-11.17,2.42-2.92,2.16-5.94,1-9.25-.64-1.84-1.52-4.17-.92-5.77,6.05-16.1-2.11-31.06-4.1-46.36-1.32-10.16-8.37-19.46-15.54-26.72-7.42-7.51-18.29-7.19-28.15-4.04-10.46,3.35-17.91,11.02-24.5,19.46-2.11,2.7-2.46,6.02-2.21,9.43.67,9.24,1.66,18.55-3.63,27,2.42,13.12-4.96,25.67-1.84,39.05,1.45,6.18.06,13.03-.04,19.58-7.53.45-13.94-5.2-21.61-3.97,4.27-19.43,6.72-39.24,6.24-58.97-.29-11.61,2.22-22.08,4.76-32.94,2.55-10.91,8.76-18.63,18.01-24.85,9.4-6.32,18.66-12.52,30.13-14.09,9.97-1.36,19.66-.68,29.34,2.91,15.86,5.87,25.28,15.8,26.3,33.48,1.18,20.42,5.65,40.53,5.58,61.15-.04,11.94,1.09,23.86-1.51,35.66-.77,3.49.45,6.52,1.69,9.6-7.67-4.08-16.09-3.53-24.35-3.96Z"/>
      <path class="cls-1" d="M290.29,374.07c0-8.62.24-17.25-.06-25.86-.38-10.66,1.11-20.94,3.65-31.31,1.94-7.91,7.22-12.42,12.93-16.9,1.44-1.13,4.23-2.25,5.48-1.61,8.24,4.23,16.94-1.09,25.24,1.63,3.06,1,6.59,1.14,9.85.91,23.98-1.7,47.52,3.76,71.35,4.18,12.5.22,24.89,1.09,37.35,2.44,9.61,1.04,15.1,7.54,22.07,12.19,1.35.9,2.17,3.51,2.19,5.35.11,8.61,1.9,17.9-.66,25.72-7.65,23.31-9.48,47.91-17.09,71.18-3.28,10.04-8.41,15.99-17.83,14.09-30.8-6.21-62.04-1.51-92.93-4.76-13.14-1.38-26.1-4.68-39.49-3.9-3.2.19-6.54-1.04-9.73-1.93-8.77-2.45-11.82-6.35-11.93-15.61-.14-11.93-.04-23.87-.04-35.81-.12,0-.24,0-.36,0ZM389.12,362.46c15.97-2.54,31.83-1.16,47.64-1.53q17.09-.4,21.8-15.92c.95-3.13,2.07-6.21,3.1-9.32,2.65-7.97.82-11.46-7.05-12.32-12.44-1.35-25.05-1.61-37.34-3.73-9.78-1.69-19.23-4.87-29.82-1.46,2.93,8.37,3.73,16.42.56,25.11-2.17,5.94-2.47,12.99,1.12,19.17ZM307.79,316.09c-.65,9.74-1.1,19.44.74,29.16,1.71,9.03,2.66,10.03,11.22,10.55,11.85.72,23.7,1.65,35.57,1.98,4.31.12,9.13,4.52,12.88-.11,2.93-3.62,3.36-8.53,3.34-13.24-.02-5.29.24-10.6-.16-15.87-.74-9.61-3.95-12.4-14.07-12.46-16.32-.1-32.64-.03-49.52-.03ZM432.15,420.71c14.9.08,14.69.03,18.22-14.53,1.13-4.67,1.45-9,.45-13.71-.95-4.49-2.84-7.06-7.7-7.31-11.95-.62-23.89-1.38-35.82-2.2-21.33-1.46-22.1-.82-23.51,20.61-.13,1.99-.04,3.99.01,5.99.15,5.58,1.58,7.51,6.89,7.45,10.68-.14,21.17.4,31.5,3.55,3.05.93,6.62.14,9.95.14ZM305.68,394c0,1.08-.43,3.76.1,6.22.86,4,2.87,7.86,7.39,8.24,15.04,1.28,29.81,4.04,44.57,7.03,4.79.97,7.88-1.42,8.24-6.19.5-6.57.9-13.01,2.94-19.44,1.79-5.66-.55-8.01-6.32-9.9-11.43-3.73-23.47-2.29-35.05-4.52-25.15-4.84-19.65-1.26-21.87,18.55Z"/>
    </g>
  </g>
</svg>