<?xml version="1.0" encoding="UTF-8"?>
<svg id="Layer_2" data-name="Layer 2" xmlns="http://www.w3.org/2000/svg" viewBox="0 0 654.83 393.44">
  <defs>
    <style>
      .cls-1 {
        fill: #cf5811;
      }

      .cls-2 {
        fill: #aea915;
      }
    </style>
  </defs>
  <g id="ELEMENT">
    <g>
      <path class="cls-1" d="M546.93,274.77c-1.22-3.72-2.79-7.36-3.56-11.17-.89-4.43.86-7.69,5.7-8.62,20.04,17.34,34.77,39.9,55.5,56.59,1.45,1.17,2.05,3.32,3.3,4.8,6.73,7.98,12.66,16.45,20.17,24.02,10.09,10.15,17.09,23.38,25.28,35.38,2.03,2.98,2.4,6.12-1.34,8.43-2.25,1.4-4.63,2.68-6.6,4.42-2.25,1.99-3.1,6.34-7.49,4.28-3.9-1.83-6.8-4.52-4.89-9.35,1.16-2.92-.19-4.92-1.6-7.19-6.66-10.67-12.52-21.73-21.52-30.96-6.75-6.92-14.06-13.92-17.12-23.71-10.43-7.46-16.37-19.09-25.63-27.65-6.83-6.31-13.47-12.84-20.19-19.27Z"/>
      <g>
        <path class="cls-2" d="M226.14,155.82c6.43,14.93,6.29,30.93,6.63,46.64.17,7.82-4.24,15.21-8.28,22.17-4.33,7.47-8.92,14.83-12.55,22.64-3.57,7.67-8.89,12.65-16.38,16.56-10.58,5.53-20.5,12.23-33.06,12.34-10.74.09-12.8-1.63-13.9-12.08-.42-3.95,0-8.24-1.44-11.78-4.23-10.41-2.56-20.95-1.19-31.34,1.57-11.83,3.44-23.84,14.8-31.32,1.28-.84,2.33-3.82,1.84-5.23-1.1-3.15-4.1-2.01-6.63-1.66-4.64.63-8.65,2.07-12.74,4.85-7.5,5.1-15.44,10.28-23.98,12.95-10.66,3.34-22.22,6.16-33.17,5.51-9.84-.59-19.73,1.37-29.15-.28-10.3-1.8-20.31-6.01-30.02-10.16-11.11-4.75-20.84-11.55-25.87-23.34-1.11-2.6-1.72-5.12.22-7.42,6.74-7.98,12.09-16.53,22.63-21.58,13.76-6.6,27.03-13.05,42.38-15.34,7.66-1.14,16.04-1.13,22.86-6.28,1.42-1.07,3.83-1.48,5.65-1.24,17.01,2.21,34.03,4.44,50.97,7.11,3.8.6,7.34,2.92,10.99,4.47,6.08,2.58,12.08,5.41,18.27,7.69,3.82,1.41,7.95,1.35,11.39-1.31,2.18-1.69-.92-7.7-6.26-10.9-13.25-7.94-23.3-19.18-32.35-31.3-3.88-5.19-7.61-10.98-7.1-18.17.09-1.26.05-2.95-.69-3.78-9.94-11.3-7.7-26.3-12.1-39.26-1.67-4.92-.49-9.11,3.38-12.6,3.9-3.53,7.4-10.51,12.14-9.39,8.31,1.97,17.01.02,25.06,4.02,13.65,6.79,27.18,13.22,35.63,27.04,3.41,5.58,8.64,10.05,13.04,15.03,7.46,26.34,8.98,52.94,3.6,79.86-2.31,6.95-.33,12.53,5.39,16.92ZM179.72,167.18c-1.51.53-3.01,1.06-4.52,1.59.47.18,1.12.66,1.38.5,1.05-.64,1.98-1.47,2.95-2.24,2.54-2.16,4.75-4.49,4.2-8.22,2.47-.78,5.3-1.03,7.34-2.44,5.77-3.96,8.24-8.68,6.11-10.89-3.07-3.19-7.18-2.79-11.1-2.17-1.18.19-2.23,1.19-3.34,1.82.33,4.56.67,9.11,1,13.67-4.62,1.22-4.28,4.82-4.03,8.37ZM24.93,166.03c9.29,14.95,9.33,15.14,22.82,17.45,8.33,1.43,16.71,2.92,25.12,3.32,11.6.55,23.54,2.79,34.45-3.67,20.91-2.52,34.97-16.93,50.3-29.09,2.39-1.9,1.51-6.91-1.31-8.58-1.69-1.01-3.4-2.17-5.26-2.7-19.67-5.61-39.2-12.42-60.05-4.75-3.55,1.31-7.98,0-11.85.73-20.28,3.79-40.66,7.55-54.24,27.3ZM206.72,124.53c6.11-9.72,6.12-18.87,1.09-29.74-4.28-9.25-9.62-18.68-9.64-29.7,0-2.97-2.21-6.21-4.07-8.86-10.89-15.52-26.03-22.96-44.75-23.58-2.45,5.68-1.05,10.98-1.07,16.17-.01,2.61.49,5.28,1.14,7.83,6.83,26.7,24,46.19,44.62,63.1,3.39,2.78,7.6,5.09,12.67,4.78ZM214.57,196.69c-1.69-3.43.47-6.48.68-9.69.25-3.76-3.1-6.64-1.81-11.19,1.24-4.36-3.01-7.6-6.74-5.63-8.11,4.3-17.05,8.06-23.48,14.28-14.01,13.58-22.21,31.13-26,50.05-1.44,7.2-.43,16.51,5.87,22.01,6.13,5.35,10.35-3.42,15.88-4.42,4.63-.84,9.22-2.27,12.52-5.71,13.37-13.91,25.48-28.5,23.07-49.71Z"/>
        <path class="cls-2" d="M393.97,187.17c2.23,10.3,4.38,20.58,6.07,31.02,1.93,11.92-.13,22.32-4.84,32.66-6.72,14.73-15.96,28.42-30.58,35.24-15.68,7.32-32,16.33-50.91,8.96-4.34-1.69-6.43-3.66-7.14-8.13-2.28-14.48-2.54-29-1.72-43.58,2.09-3.26,4.57-6.35,6.22-9.82,5.94-12.56,14.07-24.03,24.09-32.99,7.5-6.7,12.18-14.87,18.36-22.16,1.07-.57,3.1-1.57,3.06-1.66-3.5-8.04-7.8-15.5-15.95-19.82-.6-8.34-7.11-13.92-10.19-21.21-6.59-15.58-9.06-32.21-9.84-48.18-.82-16.65,2.71-34.18,9.91-49.94,3.22-7.05,6.75-9.83,15.99-7.87,11.48,2.44,20.92,7.52,27.82,17.05,12.1,16.69,21.68,34.8,30.3,53.47,1.71,3.71,2.9,7.38,2.6,11.44-.98,13.06.7,26.25-3.57,39.16-2.45,7.42-2.82,15.54-4.12,23.34q-9.28,4.08-5.55,13.02ZM378.93,161.91c3.64-5.98,7.48-12.08,11.05-18.33.93-1.63,2.07-4.5,1.33-5.52-6.55-9.04,4.43-22.37-7.46-29.9.6-11.41-7.53-19.15-11.65-28.61-5.32-12.22-15.05-19.72-24.55-27.74-3.55-3-7.97-1-8.78,3.54-3.35,18.96-.73,37.94.52,56.82.5,7.54,3.2,15.77,7.38,22.05,7.83,11.77,16.95,22.92,32.17,27.7ZM385.34,212.12c-.44-2.41-.62-4.42-1.19-6.3-4.34-14.52-8.1-22.68-23.57-8.34-3.89,3.61-7.8,7.04-11.19,11.18-5.01,6.12-9.74,12.47-16.24,17.36-5.4,4.06-7.4,9.47-7.99,17-.7,8.93-1.14,18.33-4.64,27.19-3.37,8.5.25,13.74,9.19,9.99,5.46-2.29,11.22-3.92,16.95-5.46,19.53-5.24,29.71-19.12,34.42-37.64,2.11-8.29,2.92-16.9,4.26-24.98Z"/>
        <path class="cls-2" d="M441.45,188.1c-2.49-6.16-4.38-12.92-9.97-16.96-8.45-6.11-10.47-15.33-11.62-24.31-1.09-8.51-1.98-16.93-3.83-25.37-1.81-8.27-2.07-16.99,1-25.42,1.8-4.94,2.96-10.13,4.2-15.27,2.81-11.63,6.33-22.92,15.4-32.77,4.59-2,8.65,3.68,14.03,3.56,2.19-.05,5.74,1.93,6.45,3.82,5.21,13.86,17.4,23.02,23.74,36.03.87,1.78.83,4.4,2.15,5.48,10.58,8.69,11.17,21.87,15.64,33.35,7.92,20.35,4.37,40.07-2.17,59.85-1.83,5.55-6.01,8.47-10.31,11.63-2.09,1.53-3.78,3.61-5.65,5.45-3.86,1.11-5.48,3.62-3.32,7.14,3.62,5.89,10.92,9.62,10.4,17.93-1.38,6.58-2.77,13.17-4.15,19.74-.44.19-1.25.39-1.25.59,0,.83.26,1.66.42,2.49-1.79,11.57-8.4,20.21-15.52,29.24-9.74,12.36-23.22,19.41-35.06,28.75-2.54,2.01-5.75,3.37-8.85,4.43-7.34,2.51-14.53.67-21.2-2.32-5.47-2.45-5.68-8.47-6.87-13.49-1.77-7.49-2.99-14.01.89-22.44,4.29-9.33,7.82-19.46,11.95-29.07,2.83-6.57,6.35-14.01,11.79-18.02,8.94-6.58,17.59-13.26,25.39-21.14.75-.76,2.52-.51,3.75-.71,1.26.03,2.6.21,3.9.04,1.27-.17,2.8-.37,3.68-1.15,1.86-1.66,1.29-4.08-.49-4.97-7.02-3.5-8.65-11.69-14.52-16.09ZM414.73,302.5c3.79-3.9,8.21-6.78,13.55-7.97,7.58-1.69,12.77-6.61,17.52-12.33,3.81-4.58,8.22-8.69,11.78-13.44,5.14-6.85,10.77-13.62,14.37-21.28,7.71-16.39,3.7-21.11-14.25-19.91-10.74.72-19.39,3.55-24.22,14.06-1.05,2.29-3.86,3.72-5.26,5.92-10.73,16.82-21.45,33.7-16.39,55.22,1.26,2.94,2.13,1.84,2.9-.28ZM434.34,101.39c-.13,8.6-.5,17.18,3.98,25.14,1.21,2.15,1.36,5.1,1.37,7.69.04,21.92,12.13,38.18,25.29,53.87,3.02,3.6,9.5,3.47,12.23-.46,6.38-9.2,11.96-18.63,9.84-30.88-2.82-16.31-7.96-31.77-14.93-46.7-3.9-8.35-7.89-16.67-11.6-25.1-1.8-4.09-4.37-5.72-9-6.05-12.61-.88-16.45,2.04-17.17,14.55-.15,2.64-.02,5.29-.02,7.93Z"/>
        <path class="cls-2" d="M546.93,274.77c-3.53,6.58-4.39,13.62-4.77,21.05-.61,11.75-2.99,23.27-5.44,34.86-3.54,16.75-12.69,26.87-28.13,32.94-5.6,2.2-11.12,4.16-17.01,5.26-9.52,1.78-13.57.15-18.21-7.52-3.54-5.85-6.81-23.87-5.45-30.69,1.42-7.14,3.11-14.22,4.45-21.37,4.45-23.63,15.44-43.26,34.87-57.87,1.52-1.14,2.44-3.07,3.64-4.64,5.65.09,8.35-2.38,8.27-8.34-.07-5.25-3.13-8.43-6.41-11.7-2.32-15.04-5.1-29.93-4.65-45.36.41-13.99.49-27.78,5.19-41.23,1.48-4.24.78-9.2,1.72-13.69,1.08-5.14,2.26-10.42,4.52-15.1,3.49-7.24,11.63-7.98,15.82-1.27,9.8,15.67,21.33,30.84,27.8,47.86,7.41,19.5,10.14,41.15,6.47,62-1.95,11.11-6.79,22.78-17.37,30.09-1.49,1.03-2.15,3.26-3.19,4.94-4.84.93-6.59,4.19-5.7,8.62.77,3.81,2.34,7.45,3.56,11.17ZM489.92,355.14c19.15-4.07,25.3-6.89,31.46-19.37,8.23-16.66,12.46-34.42,6.96-53.11-.93-3.15-2.71-6.05-3.56-9.2-.79-2.94,3.46-6,.06-9.13-22.95,7.5-30.25,27.44-37.71,47.25,1.35,14.15-4.73,28.68,2.8,43.57ZM537.55,239.15c11.25-8.23,15.4-18.24,17.14-29.73,1.72-11.4.19-22.32-4.3-32.8-2.3-5.37-6.25-10.12-3.9-16.67.64-1.78-.67-4.67-2.61-4.61-7.18.24-9.79-6.31-14.81-9.15-1.03-.58-2.94-1.11-3.58-.59-1.44,1.16-3.6,3.34-3.28,4.5,4.6,16.71-3.04,34.49,4.59,50.95,1.02,2.21.41,5.26.26,7.9-.6,11.12,3.12,20.73,10.49,30.21Z"/>
        <path class="cls-2" d="M299.04,242.9c-5.18,5.05-10.96,9.63-15.41,15.25-6.13,7.74-14.54,11.45-23.19,14.4-11.66,3.98-19.62-1.21-21.15-13.32-.82-6.5-.1-13.18-3.15-19.35-.53-1.07-.54-2.73-.14-3.89,5.72-16.56,6.42-35.1,16.19-49.79,4.79-7.2,11.16-14.1,17.12-20.87,1.19-1.35,1.35-3.62,1.97-5.46,7.71-3.85,8.39-4.74,4.65-8.31-4.03-3.86-5.96-9.76-11.64-11.95-3.47-3.95-6.34-8.76-10.53-11.67-7.48-5.19-11.6-12.7-14.81-20.39-5.57-13.35-9.97-27.21-14.42-40.99-.68-2.11.98-4.97,1.55-7.49,1.2-4.03,1.15-8.06.08-12.1.73-2.3-.23-3.83-2.22-4.9,2.37-4.22,3.65-8.83,1.77-13.35-2.67-6.45.87-11.06,3-16.63,3.55-9.27,11.5-10,18.97-11.94,2.61-.68,4.8,1.33,6.89,3.18,8.4,7.43,17.34,14.06,26.76,20.31,15.76,10.45,23.75,27.39,31.77,43.94,1.33,2.75.19,5.02-.14,7.59-2.05,16.08.44,32.46-4.52,48.49-2.26,7.32-.77,15.8-.98,23.75-6.95,7.55-3.72,16.19-2.62,24.6,8.55,18.24,2.38,37.15,2.32,55.76,0,2.19-2.25,4.6-3.92,6.5-2.25,2.55-3.82,5.27-4.22,8.64ZM239.3,38.54c0,8.26-2.12,16.68,2.33,24.81,2.4,4.39,2.41,10.18,3.09,15.39.87,6.61,2.46,12.9,6.23,18.5,2.57,3.82,5.84,7.31,7.7,11.45,4.79,10.63,13.79,17.25,22.21,24.37,4.41,3.73,6.99,1.93,10.59-3.6,5.91-9.09.31-20.71,7.16-29.38-.09-20.86-3.98-40.56-18.82-56.38-8.53-9.09-18.22-16.67-29.59-22.35-9.46-4.73-10.15-5.04-10.87,5.39-.27,3.92-.04,7.88-.04,11.82ZM255.01,261.98c8.38-5.47,14.39-9.36,20.36-13.3,15.57-10.28,21.95-25.98,23.17-43.45.63-8.98-2.29-18.29-4.13-27.34-1.02-5.01-4.59-6.15-8.76-3.54-10.39,6.49-17.78,16.01-23.3,26.42-4.25,8.02-8.28,16.81-8.41,26.27-.14,10.59.6,21.19,1.06,34.94Z"/>
        <path class="cls-1" d="M441.45,188.1c5.87,4.4,7.51,12.59,14.52,16.09,1.78.89,2.35,3.31.49,4.97-.88.78-2.4.98-3.68,1.15-1.29.18-2.64,0-3.9-.04-2.44-2.09-4.63-5.27-7.49-6.07-16.24-4.53-30.05-15.81-47.43-17.03q-3.72-8.94,5.55-13.02c13.97,4.65,27.95,9.3,41.93,13.95Z"/>
        <path class="cls-1" d="M353.52,178.36c-11.66-2.09-23.36-3.94-34.95-6.37-4.7-.98-9.17-.66-13.74,0-1.09-8.42-4.32-17.06,2.63-24.61,9.82,7.43,22.31,5.55,33.15,9.48,8.16,4.33,12.46,11.79,15.96,19.83.04.09-1.99,1.09-3.06,1.66Z"/>
        <path class="cls-1" d="M220.75,138.9c14.46,3.19,28.99,2.27,43.54.7,5.68,2.19,7.61,8.1,11.64,11.95,3.74,3.57,3.06,4.47-4.65,8.31-14.69-5.23-30.02-3.35-45.13-4.04-5.72-4.39-7.71-9.97-5.39-16.92Z"/>
        <path class="cls-1" d="M512.75,226.74c3.28,3.27,6.34,6.45,6.41,11.7.08,5.96-2.62,8.43-8.27,8.34-6.76-6.47-14.24-11.77-23.3-14.54.53-8.31-6.77-12.04-10.39-17.94-2.16-3.52-.55-6.03,3.32-7.14,3.77,3.49,7.92,6.42,12.9,7.89,7.48,2.21,13.21,7.27,19.33,11.69Z"/>
        <path class="cls-1" d="M183.74,158.81c-.33-4.56-.67-9.11-1-13.67,1.11-.63,2.16-1.63,3.34-1.82,3.92-.62,8.03-1.02,11.1,2.17,2.13,2.21-.34,6.93-6.11,10.89-2.04,1.4-4.87,1.66-7.34,2.44,0,0,.02,0,.02,0Z"/>
      </g>
    </g>
  </g>
</svg>