<?xml version="1.0" encoding="UTF-8"?>
<svg id="Layer_2" data-name="Layer 2" xmlns="http://www.w3.org/2000/svg" viewBox="0 0 390.46 525.92">
  <defs>
    <style>
      .cls-1 {
        fill: #ae84bf;
      }

      .cls-2 {
        fill: #d0c0de;
      }
    </style>
  </defs>
  <g id="ELEMENT">
    <g>
      <path class="cls-1" d="M111.67,50.49c13.01-1.27,25.83-5.47,39.11-2.51,14.46-5.1,26.26,1.56,39.5,6.55,19.67,7.41,33.88,19.79,45.91,36,4.34,5.85,9.16,11.35,13.66,17.09,4.02,5.12,9.63,9.13,10.85,16.22.32,1.85,1.43,4.05,2.88,5.16,15.62,11.94,20.29,32.51,35.44,44.83,1.33,1.08,2.24,3.54,2.16,5.32-.53,12.85,8.77,20.41,16.04,28.55,6.73,7.54,13.05,14.82,15.77,24.82,1.2,4.41,3.4,8.37,7.16,11.66,9.86,8.61,14.41,20.57,18.36,32.54,3.94,11.94,8.79,23.22,14.87,34.34,6.88,12.57,14.25,25.59,13.47,41.04-.16,3.17.83,6.58,2.04,9.58,1.85,4.58,2.09,9.08.5,13.61-2,5.72-3.78,11.29-1.26,17.4.69,1.68.93,4.57-.04,5.76-8.58,10.53-6.9,24.91-14.2,36.12-6.02,9.24-14.24,15.53-22.56,22.08-12.46,9.81-26.16,17.79-38.2,28.41-10.9,9.62-26.06,12.82-39.68,18.02-7.48,2.86-15.19,4.89-20.59,11.45-1.21,1.46-3.25,3.31-4.82,3.23-10.82-.59-20.21,5.7-30.91,5.87-13.21.22-26.36.56-39.63,1.98-12.65,1.36-26.37-1.63-38.85-6.35-9.27-3.51-18.28-7.79-27.22-12.1-5.47-2.63-9.1-7.31-12.8-12.18-8.36-11.01-13.78-24.24-25.36-32.95-2.82-2.12-3.75-6.84-5.38-10.44-4.54-10.06-6.25-21.44-14.56-29.78-1.59-1.6-2.25-5.04-1.95-7.46,1.88-15.19-4.33-28.86-8.9-42.43-4.63-13.76-6.71-28.1-11.58-41.7-.88-2.47-1.15-5.36-2.63-7.38-8.12-11.03-13.23-22.66-10.41-36.88.57-2.9-.87-6.64-2.41-9.43-6.58-11.86-8.01-25.13-11.18-37.96C-.86,217.66-.48,196.72.88,175.41c.68-10.72,1.46-20.91,5.85-30.7,3.29-7.33,7.3-14.09,13.6-19.34,8.66-7.23,15.65-15.97,22.14-25.13,5.66-9.97,13.88-16.14,25.5-17.51,1.03-.12,1.9-1.54,2.84-2.36,4.42-2.42,8.88-4.79,13.27-7.27,3.56-2.01,5.64-4.96,5.34-9.24,7.35-4.57,16.23-6.59,22.26-13.37ZM49.85,324.24c1.51,4.37,2.92,8.77,4.55,13.09,1.15,3.05,3.85,6.03,3.73,8.95-.59,13.75,6.16,25.74,8.47,38.74.84,4.73,3.8,6.66,8.02,7.53.41,6.7.82,13.39,1.24,20.09,2.15,11.1,3.08,22.14,12.53,31,4.5,4.22,4.76,12.95,6.94,19.64.38,2.34,1.63,3.5,4.1,2.98,2.41.08,4.82.16,7.23.23.34,9.73,5.71,15.16,14.85,17.37,6.62,11.24,17.17,15.34,29.46,15.43,19.63.14,39.26-.21,58.89-.35,11.61-5.53,23.36-10.59,36.5-11.04l.14.1c2.6,3.95,5.4,3.89,8.39.45,2.43-1.74,4.86-3.47,7.29-5.21,11.7-6.24,25.35-7.81,36.57-15.2,10.27-4.49,18.49-10.92,25.91-19.81,5.5-6.59,9.02-14.59,15.37-20.37,14.12-12.85,19.61-28.94,18.23-47.69-.11-6.94-.21-13.88-.32-20.81-1.5-4.39-3.54-8.67-4.4-13.18-2.64-13.78-9.6-26.02-13.53-39.31-1.54-5.23-4-9.87-9.26-12.35-.25-8.25,1.57-17.16-7.22-22.69-.25-7.99-2.19-15.48-6.51-22.3-3.48-5.49-7.78-10.68-7.14-17.82-7.32-8.7-10.17-21.53-23.13-25.02-3.33-10.26-11.78-17.94-14.42-28.62-.3-1.22-3.14-1.81-4.8-2.69-2.01-3.32-4.84-6.4-5.88-10-3.35-11.67-12.06-19.69-18.73-29.1-2.05-2.9-4.97-3.95-8.27-4.39-2.74-4.2-5.68-8.29-8.16-12.64-3.2-5.6-8.16-7.53-14.17-7.74-2.75-6.55-3.52-14.57-9.56-18.88-12.05-8.61-23.18-19.81-40.49-16.48-4.15.8-8.89-1.68-13.4-2.42-3.43-.56-7.3.06-8.4,3.46-2.69,8.29-8.42,10.67-16.44,11.22-5.26.36-9.84,3.45-13.14,7.89-6.72,2.83-11.88,9.58-20.33,8.04-16.7,5.25-29.86,15.7-41.85,28.05-4.26,4.39-7.83,9.45-8.94,15.07-1.98,9.99-7.71,17.87-12.13,26.55-3.82,7.51-8.82,14.72-8.56,23.79.24,8.52.31,17.05.46,25.57,1.33,4.48,2.66,8.95,3.99,13.43-.2,1.94-.97,4.02-.5,5.79,3.94,15.02,8.11,29.99,12.21,44.97,7.33,7.1,9.3,17.1,13.94,25.65-.42.71-.75,1.45-1.01,2.22-1.86,3.41-.78,6.25,1.69,8.82Z"/>
      <path class="cls-2" d="M111.67,50.49c-6.02,6.78-14.91,8.8-22.25,13.37-3.72-9.75-7.11-19.65-11.26-29.22-7.7-17.73-4.37-14.93-22.88-10.66-7.29,1.68-9.8,5.31-8.7,12.54.49,3.18,1.54,6.41,2.99,9.29,5.29,10.51,10.76,20.93,16.43,31.24.84,1.53,3.17,2.23,4.8,3.32-.94.82-1.82,2.24-2.84,2.36-11.62,1.37-19.84,7.54-25.5,17.51-2.28-1.86-2.22-4.29-2.38-7.04-.56-9.66-1.89-18.56-6.94-27.86-8.31-15.31-8.45-33.26-5.93-50.39,1.25-8.47,9.82-12.51,17.47-13.95,15.62-2.93,30.29.52,42.93,10.66,6.51,5.22,9.95,12.34,11.23,20.39,1.32,8.33,4.26,15.27,12.82,18.43Z"/>
      <path class="cls-2" d="M298.75,468.03c-11.22,7.39-24.87,8.96-36.57,15.2.26-11.85,1.43-23.76-2.2-35.38,5.82-12.56-2.34-24.54-1.65-36.91.09-1.55-1.26-3.7-2.6-4.67-2.07-1.5-4.04.37-4.76,2.03-3.95,9.08-10.85,12.71-20.47,11.82-.65-.06-1.37-.02-1.96.22-15.96,6.38-31.95,12.47-49.59,12.18-1.13-.02-3.06,2.68-3.26,4.29-.21,1.63.79,4.44,2.07,5.05,3.5,1.67,8.27,1.47,11.04,3.79,9.09,7.62,20.1,12.75,27.94,21.99,5.61,6.61,11.55,12.62,21.5,12.52,4.06-.04,6.79,3.68,8.12,7.73-13.14.45-24.89,5.51-36.5,11.04-1.36-3.19-3.5-5.84-6.97-6.48-4.76-.88-8.52-3.23-12.21-6.19-5.67-4.53-11.21-9.56-17.62-12.72-6.9-3.4-7.27-12.13-13.89-16.29-11.1,12.17-22.85,21.64-37.65,26.6-9.14-2.21-14.51-7.64-14.85-17.36.48-3.73,2.59-5.86,6.33-6.32,4.03-.49,7.79-1.44,9.85-5.47,3.94-7.68,9.46-14.11,15.26-20.47,6.23-6.84,6.43-15.54,1.12-23.5-5.11-7.64-10.66-14.99-16.29-22.27-4.12-5.33-8.53-5.84-13.3-1.39-5.77,5.38-11.12,11.22-16.66,16.85-4.73,4.8-9.97,8.63-17.11,8.71-.41-6.7-.83-13.39-1.24-20.09,4.98-14.25,9.3-28.79,18.03-41.41.37-.53.6-1.18.81-1.81,3.99-11.72,1.17-19.74-9.4-26.93-2.2-1.5-4.58-2.82-6.45-4.66-8.45-8.31-17.86-9.91-28.43-4.53-4.64-8.55-6.62-18.56-13.94-25.65,4.59.21,9.15.79,13.65-1.1,12.79-5.36,15.16-16.98,17.21-28.65.46-2.63-1.59-4.99-4.53-5.62-13.59-2.89-26.12-8.37-38.03-15.39-1.33-4.48-2.66-8.95-4-13.43,9.32-4.26,9.32-4.21,23.42-3.41,3.28.19,6.67-.65,9.86-.11,8.74,1.48,15.27-2.48,21.46-7.73,12.61-10.7,15.42-25.3,15.62-40.65.05-3.7-2.5-7.26-.94-11.42,3.47-9.29,1.97-19.38,4.84-29.03,2.56-8.6,2.29-18.33-3.23-26.68,8.45,1.54,13.61-5.21,20.33-8.04-.03,2.64.25,5.32-.15,7.91-1.79,11.57,3.15,18.97,12,26.61,9.06,7.82,19.32,13.66,28.99,20.13,13.2,8.83,29.33,5.61,44.3,3.71,7.41-.94,10.42-5.67,10.51-14.43.11-10.02.82-19.75,5.79-28.72,6.02.21,10.98,2.15,14.17,7.74,2.48,4.35,5.42,8.43,8.16,12.64.99,8.9-1.25,16.76-6.47,24.18-5.32,7.55-10.66,14.74-18.55,20.02-4.34,2.9-3.34,9.42,1.46,11.2,6.92,2.57,13.3,5.25,17.55,11.91,3.24,5.07,8.67,5.62,14.16,4.09,4.43-1.24,8.93-2.47,13.09-4.36,5.52-2.51,9.54-6.97,12.67-12.11,2.41-3.96-.98-7.58-1.04-11.43,1.66.88,4.49,1.48,4.8,2.69,2.64,10.68,11.1,18.36,14.42,28.63-1.05,4.12-3.91,6.66-7.25,9-5.92,4.15-11.76,8.44-17.41,12.96-4.34,3.47-7.45,8.4-5.7,13.79,2.34,7.19,1.45,14.38,2.09,21.55.69,7.72,5.87,13.19,12.95,11.46,8.05-1.98,15.33-.67,23.14.37,9.79,1.29,19.84,1.07,28.97-3.99,8.79,5.54,6.97,14.44,7.22,22.7-15.04,15.87-33.59,19.64-54.43,16.06-7.91-1.36-10.8.7-9.15,7.6,3.28,13.7,3.1,27.5,3.49,41.37.23,8.25,3.94,11.52,12.8,12.02,6.62.38,13.28-.24,19.91.02,9.51.38,18.51-.11,25.63-7.78,2.81-3.03,6.94-3.69,11.02-3.83,5.97-.2,11.93-.43,17.9-.64.11,6.94.21,13.88.32,20.81-3.15,2.36-6.43,4.58-9.43,7.13-3.15,2.68-6.56,4.67-10.74,4.3-10.31-.92-19.15,2.27-28.03,7.49-5.46,3.2-12.18,4.92-19.04,4.83-6.96-.09-11.45,6.1-6.98,12.45,7.72,10.96,6.42,22.49,6.49,34.29.03,3.96.1,7.98.82,11.85.69,3.72,4.04,4.85,7.39,5.53ZM150.48,316.05c28-.86,51.83-9.46,66.05-35.95,1.54-2.86,3.54-5.76,6.02-7.79,11.69-9.57,12.92-22.42,11.95-36.07-.32-4.59-2.65-7.64-7.38-7.67-10.33-.07-19.48-2.82-27.77-9.28-4.63-3.61-8.17-3.23-11.72,2.36-7.52,11.84-21.14,15.66-30.67,24.8-3.06,2.94-8.36,4.28-12.83,4.83-5.98.74-11.67,2.02-17.43,3.75-3.64,1.1-7.96.91-11.79.24-5.7-.99-11.32-5.66-17.04-1.45-5.54,4.07-2.04,11.4-4.66,16.75-.87,1.77-1.51,3.72-1.83,5.66-1.74,10.63,3.43,19.71,13.4,23.77,5.5,2.24,12.41,3.05,16.25,6.92,8.54,8.6,18.41,9.77,29.44,9.12ZM211.28,399.95c5.77.43,11.16-1.04,17.18-5.54,16.35-12.2,12.77-30.78,17.33-46.74-2.62-11.6-5.11-23.22-7.91-34.77-1.22-5.03-6.69-6.3-10.99-2.64-3.03,2.58-5.77,5.5-8.61,8.31-11.15,11.02-24.5,17.91-39.87,20.74-4.54.84-9.52-.11-13.84,1.23-11.81,3.68-23.35,4.42-35.1-.02-1.72-.65-3.97-.25-5.9.11-3.02.56-4.43,2.82-4.26,5.72.11,1.93.32,4.43,1.53,5.62,8.84,8.66,13.65,20.78,24.07,28.04,4.9,3.41,9.68,7.03,14.76,10.16,7.68,4.73,14.75,11.55,25.31,6.36,2.42-1.19,6.57.25,9.58,1.39,5.16,1.95,10.42,1.86,16.72,2.02ZM120.23,174.15c-1.12,3.15-3.16,6.74-3.6,10.52-1.41,11.97-4.51,23.13-11.69,33.09-1.9,2.63.42,5.34,3.22,5.62,9.81.99,19.79-.03,29.45,3.03,1.49.47,4.02-.55,5.36-1.7,12-10.37,23.41-21.35,33.42-33.69,1.64-2.02.09-5.93-2.35-6.21-3.26-.37-6.58-.88-9.82-.63-11.52.87-22.26-.72-32.08-7.5-3.02-2.08-6.76-4.38-11.89-2.53Z"/>
      <path class="cls-2" d="M48.16,315.41c2,2.66,2.69,5.58,1.7,8.82-2.48-2.57-3.56-5.42-1.7-8.82Z"/>
      <path class="cls-2" d="M246.5,487.99c2.8.15,5.6.29,8.39.44-2.99,3.45-5.8,3.51-8.39-.44Z"/>
      <path class="cls-2" d="M95.33,463.26c1.36,1,2.73,2,4.09,2.99-2.46.51-3.71-.65-4.09-2.99Z"/>
    </g>
  </g>
</svg>