<?xml version="1.0" encoding="UTF-8"?>
<svg id="Layer_2" data-name="Layer 2" xmlns="http://www.w3.org/2000/svg" viewBox="0 0 890.93 569.94">
  <defs>
    <style>
      .cls-1 {
        fill: #fccc24;
      }

      .cls-2 {
        fill: #b61e45;
      }

      .cls-3 {
        fill: #aea915;
      }
    </style>
  </defs>
  <g id="ELEMENT">
    <g>
      <path class="cls-2" d="M419.76,203.12c4.55,6.85,2.04,15.27,4.98,22.48-.58,5.5,1.38,10.42,3.55,15.29-3.45,6.48-5.31,13.27-5.28,20.73.05,14.45-1.63,28.77-4.47,42.94-.61,3.06.91,4.92,3.2,6.48,1.67,4.6,3.34,9.2,5.01,13.8-4.56,9.41-9.11,18.81-13.67,28.22-1.14,3.47-4.03,6.95.04,10.4-1.83-.66-4.26-1.5-5.29.34-12.32,21.95-29.72,40.33-43.04,61.56-6.65,2.12-13.32,4.2-17.33,10.61,0,0-.86.66-.87.66-6.72,1.95-13.43,3.89-20.14,5.83-14.04-2.57-28.67,2.01-42.46-3.54-8.77,4.26-17.66,1.97-26.54.48-7.01-1.78-14.08-1.25-21.16-.63-17.01-6.74-33.47-14.68-49.92-22.66-1.96-2.67-3.72-5.51-5.92-7.97-2.14-2.39-4.49-5.11-8.36-2.83.72-6.92-1.58-13.32-6.27-17.79-7.17-6.83-9.19-15.9-12.92-24.28-2.62-7.16-5.24-14.31-7.85-21.47-1.38-13.31-2.77-26.61-4.15-39.91,5.9-8.25,3.24-17.58,3.32-26.56,6.91-9.94,12.39-20.68,11.62-33-1.03-16.49,4.96-29.43,17.09-40.03,1.84-3.11,3.69-6.23,5.53-9.34,1.22-1.57,2.93-2.96,3.59-4.73,3.73-10,10.81-16.42,20.53-20.39,1.75-.71,3.05-2.51,4.57-3.81,6.22-4,12.44-7.99,18.66-11.98,18.01-6.93,36.26-12.56,55.96-10.74,1.22.11,2.52-.76,3.79-1.17,5.02,1.16,10.03,2.32,15.05,3.48,10.29,4.14,21.25,2.48,31.88,3.68,4.9,3.36,9.82,6.57,15.98,2.84,2.31,1.22,4.57,2.55,6.95,3.63,8.94,4.03,17.7,8.61,26.94,11.77,10.37,3.54,16.85,11.91,25.16,17.98,1.8,7.97,8.44,12.92,12.26,19.63ZM389.55,262.59c1.52,3.66,2.93,7.37,4.61,10.95.9,1.92,2.77,2.85,4.67,1.6.86-.57,1.58-2.35,1.36-3.38-.68-3.24-1.83-6.38-2.8-9.55,1.95-5.6,1.79-11.34.91-17.08-.34-2.27-2.25-2.94-4.22-2.84-6.27.29-9.36,4.07-6.43,9.3,2.14,3.81.05,7.6,1.88,10.99ZM286.33,376.94c-.56-2.51-.59-4.67-1.49-6.36-8.76-16.43-10.31-34.91-15.05-52.48-1.55-5.75-2.62-12.31-8.15-15.07-4.57-2.27-7.82,3.8-12.12,5.01-8.23,2.31-16.66,3.98-24.74,6.71-6.41,2.17-7.37,4.89-5.44,10.33,3.74,10.51,7.76,21.17,9.36,32.11,1.09,7.43,3.17,13.96,6.41,20.46,2.36,4.73,4.49,9.57,6.52,14.45,3.01,7.26,7.33,9.54,13.13,5.13,5.96-4.54,12.46-7.14,19.3-9.64,3.63-1.33,6.89-3.82,10.09-6.1,1.55-1.1,2.73-2.87,2.17-4.55ZM304,365.88c14.4.61,21.28-8.94,30.5-13.66,8.5-4.35,10.64-9.45,6.82-17.9-4.04-8.96-4.46-19.12-10.66-27.44-3.4-4.55-4.5-10.91-6.2-16.59-1.23-4.13,1.6-9.94-4.02-12.14-4.63-1.81-9.07,1.36-13.2,3.02-7.35,2.97-14.36,6.8-21.37,10.55-3.25,1.74-4.54,5.12-3.45,8.5,7.05,21.86,14.32,43.66,21.57,65.66ZM231.99,221.4c-8.03,7.65-14.75,13.19-23.93,13.7-5.7,7.59-15.11,10.33-22.26,16.33,2.2,2.99,5.27,5.35,5.79,8.18,2.23,11.96,9.02,21.95,13.47,32.92,4.41,10.86,7.27,11.85,18.28,7.38,9.15-3.72,17.76-8.63,27.41-11.32,6.92-1.93,8.16-5.58,5.02-12.02-4.05-8.29-10.22-16.08-12.02-24.8-2.08-10.08-7.5-18.12-11.76-30.36ZM313.24,262.2c-.48-1.78-.76-3.01-1.16-4.21-6.11-18.67-12.38-37.29-18.25-56.03-1.36-4.35-3.75-5.06-7.17-3.59-9.07,3.88-17.93,8.26-27.04,12.04-6.7,2.79-6.77,2.96-5.95,9.7,1.83,14.98,10.01,28.03,11.72,43.33,1.38,12.37,11.19,15.86,23.34,11.47,7.33-2.65,14.67-5.31,21.83-8.38,1.38-.59,1.94-3.08,2.67-4.34ZM205.24,326.13c-6.84,2.61-12.23,4.55-18.14,4.56-6.1.01-11.32,3.11-15.69,7.46-2.94,2.92-4.31,5.7-3.55,10.39,2.21,13.78,4.09,27.4,16.79,36.27,1.56,1.09,2.68,2.92,3.78,4.55,8.4,12.44,22.12,15.81,35.07,20.34.93.33,3.91-1.97,4.04-3.24.25-2.46-.78-5.08-1.39-7.61-5.8-24.15-20.1-45.65-20.91-72.72ZM336.44,178.31c-6.71,2.59-13.47,5.08-20.14,7.78-11.52,4.67-11.72,5.43-6.27,16.62,1.12,2.31,1.6,4.92,2.58,7.31,5.53,13.41,10.71,27,16.85,40.13,4.04,8.65,7.12,9.06,15.43,4.53,5.82-3.17,11.74-6.19,17.39-9.65,2.3-1.4,3.21-3.9,2.14-6.86-5.6-15.51-11.08-31.06-16.7-46.56-1.12-3.08-2.25-6.34-4.22-8.85-1.51-1.93-4.34-2.82-7.06-4.45ZM362.8,337.4c7.33-4.75,13.06-9.48,19.59-12.44,8.45-3.83,9.9-12.12,7.21-17.35-3.19-6.21-2.23-12.77-5.21-18.71-4.65-9.3-7.99-19.26-12.2-28.8-1.03-2.34-3.37-4.37-6.41-3.32-8.7,3.01-17.39,6.17-24.79,11.83-1.28.98-2.54,3.83-2.01,5.01,3.51,7.79,1.78,16.8,7.03,24.44,3.97,5.78,6.02,13.18,7.69,20.15,1.58,6.62,4.64,12.19,9.1,19.2ZM306.72,388.88c5.35,5.24,8.94,12.25,12.97,19.02,1.69,2.85,5.67,4.36,8.71,2.15,9.51-6.89,18.76-14.14,27.87-21.56,1.09-.89,1.55-4.1.83-5.43-3.58-6.63-3.16-14.09-4.93-21.06-.67-2.63-1.89-4.8-5.07-6.64-12.09,12.23-31.05,16.28-40.38,33.52ZM196.33,309.25c-4.77-15.01-8.94-28.11-15.61-40.23-1.34-2.44-3.07-4.05-7.88-3.06,2.27,9.04-1.53,17.47-3.91,26.29-2.21,8.21-3.08,16.81-4.09,25.29-.41,3.43,2.89,4.64,5.28,3.65,8.44-3.48,16.65-7.53,26.22-11.95ZM364.6,182.06c-1.82.9-3.39,1.18-3.9,2.06-.52.9-.29,2.51.13,3.62,5.57,14.76,14.55,28.13,17.76,43.88.65,3.17,5.03,4.45,8.19,2.69,3.46-1.93,7.09-3.81,9.94-6.46,1.73-1.61,3.5-5.13,2.86-6.96-2.33-6.67-2.37-14.39-8.61-19.48-5.58-4.56-10.57-9.87-16.25-14.29-3.04-2.37-7.01-3.55-10.12-5.06ZM184.62,227.7c5.22-1.16,8.46-1.35,11.22-2.59,10.7-4.83,18.94-13.84,30.28-17.78,3.22-1.12,4.64-4.86,4.35-8.27-.44-5.21-1.42-10.38-2.36-15.54-.89-4.84-4.78-5.87-8.67-2.15-4.27,4.08-7.55,9.78-12.51,12.42-13.12,6.99-15.48,20.02-22.3,33.9ZM286.85,178.82c.31-6.78-7.82-16.95-13.24-15.7-8.88,2.06-18.3,2.05-26.65,6.47-2.71,1.43-3.95,3.45-3.73,6.23.15,1.92,1.1,3.76,1.59,5.66,3.15,12.31,3.12,12.23,14.49,8.45,4.96-1.64,9.72-3.76,15.25-3.79,3.04-.01,6.21-1.97,9.04-3.55,1.52-.86,2.44-2.79,3.25-3.77ZM283.64,419.82c6.43,2.13,10.33-1.1,14.56-2.69.96-.36,2.31-2.03,2.13-2.72-1.54-5.63-3.17-11.26-5.33-16.68-.6-1.51-2.87-2.56-5.15-1.42-8.24,4.11-16.64,7.91-24.74,12.27-2.81,1.51-5.04,4.21-7.27,6.62-.72.78-1.05,2.6-.64,3.52.41.91,1.93,1.64,3.07,1.87,8.26,1.61,16.41-7.48,23.36-.77ZM372.82,364.83c2.42-2.84,5.59-5.47,7.29-8.84,2.14-4.25,8.16-8.4,3.69-13.73-3.76-4.48-8.54.04-12.51,1.2-7.15,2.1-7.59,3.92-5.65,11.45.82,3.19,1.52,6.35,7.18,9.92ZM309.05,173.24c.89-1.23.73-2.68-.82-3.12-3.68-1.04-7.46-1.72-11.23-2.41-.42-.08-1.34.66-1.44,1.15-.24,1.11-.61,2.75-.05,3.38,1.68,1.89,3.54,4.04,5.79,4.9,3.49,1.33,6.05-.81,7.75-3.91Z"/>
      <path class="cls-3" d="M413.08,353.07c4.56-9.41,9.11-18.81,13.66-28.22,15.75,5.88,32.84,4.72,48.83,9.3,7.74,5.09,16.95,1.68,25.27,4.56,20.06,6.95,40.51,12.73,60.61,19.56,6.93,2.36,13.46,5.92,21.05,5.03,6.81-.8,10.44,5.56,16.23,6.77,1.74.36,3.95-.06,5.56-.88,2.26-1.15,1.64-4.05.47-5.01-6.06-5-2.84-12.79-5.63-18.04-3.16-5.94-2.54-11.2-2.44-17.06.12-7.26,1.33-14.68-1.43-21.75-2.95-7.58-2-14.32,3.93-20.11,3.05-2.98,4.51-6.33,3.58-10.74-.39-1.86-.32-4.22.51-5.85,3.19-6.25,11.86-9.49,10.57-18.14-1.31-8.74,6.49-12.53,9.66-18.8,3.27-6.46,7.79-12.35,12.14-18.21,5.81-7.83,13.89-12.17,23.47-13.56,12.85-1.86,20.98,2.42,23.6,15.22,1.7,8.32,5.04,14.77,10.29,20.88,1.66,1.93,2.92,4.37,3.82,6.77,11.65,31.07,9.09,62.3.95,93.59-10.41,15.72-14.6,35.74-32.34,46.43-1.48.89-2.05,3.29-3.8,6.29,8.79,4.17,16.34,9.91,25.57,13.03,16.98,5.73,34.03,11.35,50.65,17.99,20.95,8.37,41.55,17.6,62.22,26.66,17.54,7.69,33.6,18.83,52.8,22.72,1.9.38,4.16,1.06,5.37,2.41,6.79,7.55,15.82,9.16,25.2,10.33,4.28.53,7.27,2.78,7.45,7.76.2,5.74-1.58,9.33-6.15,11.26-8.02,3.39-12.61,2.59-18.94-4.06-2.35-2.47-4.53-5.18-7.95-5.54-12.23-1.27-22.34-8.21-33.36-12.55-15.99-6.3-33.43-8.34-48.59-16.94-1.71-.97-4.11-.89-5.58-2.07-16.02-12.79-35.98-15.81-54.55-22.31-18.78-6.57-37.42-13.5-56.14-20.23-6.77-2.43-8.7-.31-8.19,7.84,1.09,17.64,2.88,35.37-.46,52.92-2.9,15.2-9.22,28.09-21.09,39.34-11.78,11.15-24.52,20.01-38.79,26.95-11.29,5.49-22.46,11.46-35.07,13.74-13.15,2.37-18.13-.79-20.97-14.02-2.5-11.63-4.51-23.37-7.29-34.93-.87-3.61.51-6.39.95-9.57,1.37-9.74,7.2-18.54,5.48-29.04-.45-2.76,1.88-6.3,3.62-9.05,9.14-14.47,17.96-29.2,28-43.04,6.09-8.39,13.38-16.19,24.59-21.02-10.14-4.75-17.71-10.54-27.66-7.94-11.6-5.32-24.48-5.33-36.52-8.84-5.05-1.47-9.96-3.49-15.52-2.46-3.3.61-6.7-.22-9.46-2.32-9.17-6.99-20.95-7.91-30.79-13.46-7.86-4.43-16.75-3.55-25.4-3.17,0,0,.43.05.43.05-2.42-7.75-2.53-7.81-11.84-7.01-6.87-.49-13.73-.98-20.6-1.47ZM665.74,253.38c-2.32,4.78-4.4,9.45-4.43,15.09-.08,17.24-.8,34.47-1.05,51.71-.13,8.65.29,17.23-4.45,25.14-3.26,5.43-2.21,11.58-1.6,17.53.27,2.6,3.54,3.99,6.06,2.82,6.36-2.96,10.24-8.03,13.07-14.3,7.78-17.22,9.94-35.51,10.66-54.09.1-2.63.13-5.43-.59-7.91-3.5-11.96-7.28-23.85-10.96-35.76.14-6.02-2.59-10.85-5.91-17.26-1.77,6.98-1.68,12-.81,17.05ZM556.19,518.87c2.82,1.5,5.25.45,7.31-1.18,8.38-6.65,15.15-14.79,20.68-23.87,8.89-14.61,17.96-29.16,25.99-44.24,4.32-8.1,6.98-17.09,12.5-24.64,1.35-1.84,1.05-4.04-.61-5.24-1.46-1.06-3.72-1.89-5.4-1.57-2.47.47-5.38,1.46-6.97,3.25-10.22,11.49-28.18,15.66-31.73,33.48-.23,1.14-1.4,2.34-2.45,3.02-13.9,8.93-15.07,23.49-16.82,37.78-.95,7.75-1.69,15.52-2.51,23.22ZM636.48,359.74c5.11-19.79,6-39.92,9.04-59.74,2.98-19.46,5.6-38.94,9.74-59.34-12.42,6.35-15.98,17.83-22.98,26.44-3.57,4.39-3.7,9.69-3.78,15.1-.04,2.51-1.35,5.08-2.39,7.5-10.18,23.7-4.52,45.99,6.09,67.79.45.93,2.23,1.22,4.29,2.26ZM577.51,528.3c12.04,2.26,20.53-.17,26.8-9.73,2.44-3.72,7.02-5.97,10.19-9.31,2.68-2.82,5.63-5.92,6.88-9.46,7.42-21,16.29-41.74,14.37-63.91-11.64,12.91-11.06,33.68-25.72,45.99-8.18,16.99-20.82,31.02-32.51,46.42Z"/>
      <path class="cls-1" d="M178.45,192.94c-1.84,3.11-3.69,6.23-5.53,9.34-5.27-.21-10.49-.02-15.35-3.05-14.78-9.22-31.78-12.53-48.24-17-7.97-2.17-15.97-4.93-25.07-1.85-4.98,1.69-11.44.16-17.41-1.33-9.59-2.39-19.61-2.22-29.14,2.21-12.38,5.75-22.88,21.76-21.21,33.08,2.03,13.78,11.31,23.77,25.2,26.91,7.74,1.75,15.39,3.29,22.65,7.03,13.48,6.94,27.4,13.03,41.19,19.35,2.38,1.09,4.97,1.88,7.54,2.35,10.36,1.87,20.75,3.56,31.13,5.32-.07,8.98,2.59,18.31-3.32,26.56-2.65-.23-5.77.37-7.88-.81-13.31-7.47-28.92-8.09-42.53-14.83-10.57-5.23-20.62-11.64-33.02-13.24-6.12-.79-12.09-5.38-17.39-9.25-9.07-6.64-17.89-13.71-26.24-21.24-19.89-17.94-17.7-45.46,2.65-63.25,13.33-11.65,28.98-15.97,45.02-19.15,7.98-1.59,16.94,1.53,25.42,2.78,2.58.38,5.1,2.5,7.53,2.32,14.47-1.08,27.13,5.25,40.16,9.67,8.77,2.97,17.02,7.39,26.38,8.79,6.8,1.02,11.66,6.13,17.45,9.29Z"/>
      <path class="cls-1" d="M172.08,405.32c3.87-2.28,6.22.44,8.36,2.83,2.2,2.46,3.97,5.3,5.92,7.97-1.65,2-3.54,3.85-4.89,6.04-8.63,13.96-20.51,23.52-36.32,28.5-3.53,1.11-7.3,4.11-9.16,7.3-3.32,5.7-8.67,8.18-13.92,10.63-11.92,5.57-23.72,12.76-36.36,15.13-18.12,3.4-35.74-1.79-49.37-14.96-6.23-6.02-7.44-15.23-8.3-23.9-.62-6.26,2.9-10.9,5.26-16.29,5.49-12.57,14.74-21.38,24.77-29.91,10.08-8.58,19.96-17.19,31.86-23.52,12.81-6.8,24.88-15,38.33-20.64,4.46-1.87,7.68-5.05,10.01-9.26,1.43-2.58,4.06-3.15,6.74-3.47,2.62,7.16,5.23,14.32,7.86,21.48-5.23.23-8.08,3.96-11.22,7.43-5.85,6.46-12.7,12.39-21.17,14.01-28.71,5.48-50.78,21.28-70.16,42.12-3.53,3.8-5.12,7.54-4.77,12.37.28,3.96.48,7.97,1.26,11.85,2.52,12.44,9.77,16.9,21.54,12.96,4.99-1.67,9.57-5.27,15-4.84,13.29,1.06,22.53-6.61,31.69-14.22,4.64-3.85,8.9-8.66,14.94-9.33,7.4-.82,11.78-5.4,16.66-9.93,3.86-3.58,7.76-7.79,12.45-9.62,5.82-2.27,5.26-11.43,12.96-10.73Z"/>
      <path class="cls-1" d="M300.59,143.6c-5.02-1.16-10.03-2.32-15.05-3.47-1.13-6.5-2.12-13.02-3.4-19.49-2.66-13.44-3.79-27.4-14.39-38-2.07-2.07-3.07-6.08-3.06-9.18.02-7.08-2.64-12.42-7.07-17.88-6.17-7.62-11-16.31-16.72-24.31-2.29-3.21-5.34-5.91-8.21-8.65-4.98-4.76-10.54-4.66-16.54-1.9-5.24,2.41-9.13,6.41-9.82,11.76-1.76,13.75-7.02,27.51-4.41,41.3,4.01,21.24,3.8,43.61,15.11,63.16,1.3,2.25,1.26,5.27,2.58,7.49,1.65,2.77,4.08,5.09,6.17,7.6-6.22,3.99-12.44,7.98-18.66,11.98-9.51-10.35-18.84-20.7-16.73-36.49.32-2.42-1.06-5.15-1.93-7.63-2.32-6.57-9.82-10.73-7.71-19.54,1.72-7.18-2.18-14.2-3.06-21.35-.39-3.15,1.06-6.49,1.37-9.76.87-9.13,2.39-18.11,2.78-27.39.71-17.19,8.63-31.49,24.97-40.11,4.62-2.43,8.27-1.69,12.96-1.31,21.87,1.81,33.85,15.72,43.12,33.34,4.53,8.61,9.44,17.1,14.14,25.54,9.87,17.69,13.68,37.17,20.22,55.82,2.18,6.22,3.41,12.77,5.1,19.17.9,3.4.55,6.54-1.77,9.31Z"/>
      <path class="cls-1" d="M348.45,150.12c-6.16,3.72-11.08.52-15.98-2.84,1.16-5.87,5.36-10.39,6.59-16.5,1.82-9.03,5.88-17.18,12.1-24.64,6.16-7.38,9.92-16.02,18.36-22.44,14.99-11.39,32.31-20.27,49.54-20.42,4.65-.04,9.31.08,13.96-.02,7.54-.16,14.53,2.11,20.95,5.6,13,7.06,21.59,16.54,20.16,33.15-1.09,12.77-3.99,24.8-9.44,36.13-5.41,11.24-12.06,21.87-17.81,32.95-3.04,5.85-5.11,12.03-11.8,15.22-3.66,1.75-5.16,5.68-6.33,9.69-1.22,4.18-5.1,5.85-9,7.12-3.82-6.71-10.46-11.65-12.25-19.63,7.3-8.42,14.69-16.75,21.79-25.31,2.04-2.46,3.47-5.52,4.77-8.48,1.57-3.59,1.73-8.31,4.21-10.89,8.16-8.49,5.33-21.71,13.68-30,1-.99.71-3.88.2-5.66-1.67-5.87-4.72-10.78-10.19-14.11-21.9-13.33-52.44-6.1-66.25,15.59-5.64,8.87-11.56,17.59-17.79,26.06-4.39,5.97-7.87,12.2-9.5,19.44Z"/>
      <path class="cls-1" d="M236.28,438.78c7.08-.62,14.15-1.15,21.16.63.19,7.97,1.44,16.1.32,23.88-1.86,12.89,1.25,24.99,4.15,37.08,2.31,9.62,5.65,18.92,6.76,28.9.72,6.48,3.11,12.78,4.87,19.12,1.23,4.41,4.88,6.72,8.85,6.93,5.89.31,12.29.24,16.82-4.41,10.87-11.15,25.47-19.88,25.79-38.18,4.87-4.47,2.25-9.67,1.48-14.71-.6-3.93-2.1-8.06-1.42-11.78,2.66-14.57.73-29.2,1.4-43.78,6.71-1.94,13.42-3.89,20.14-5.83-5.21,9.81-4.33,20.41-3.16,30.75,2.34,20.64-3.08,40.26-6.85,60.12-6.96,8.81-9.52,20.23-17.68,28.47-14.34,14.47-28.04,17.57-46.66,9.85-10.77-4.47-19.86-10.29-23.53-22.34-1.33-4.36-4.33-8.18-6.18-12.42-1.02-2.33-2.3-5.37-1.6-7.48,3.37-10.19-.18-19.01-3.5-28.46-4.7-13.41-4.46-41.56-1.15-56.35Z"/>
      <path class="cls-1" d="M413.08,353.07c6.87.49,13.73.98,20.6,1.46,2.55,4.68,6.03,7.81,11.84,7.01,0,0-.43-.05-.43-.05.68,1.12,1.22,2.37,2.07,3.35,7.82,8.97,18.28,16.76,22.82,27.15,4.42,10.12,8.93,20.2,14.26,29.84,7.81,14.12,6.42,28.43-.06,41.81-5.11,10.55-13.03,19.74-19.76,29.5-2.01,2.91-5.11,4.18-8.45,4.63-11.46,1.53-22.57.67-32.32-6.29-9.11-6.5-17.81-13.61-29.74-14.36-1.72-.11-4.25-1.44-4.85-2.86-3.99-9.48-13.11-12.21-20.78-17.18-8.32-5.39-14.75-13.19-20.82-21.09,4.01-6.41,10.68-8.49,17.33-10.61,5.76.42,10.39,3.87,13.53,7.8,11.98,14.99,28.81,23.14,44.47,32.97,8.02,5.04,16.73,7.96,26.35,7.83,11.04-.15,18.31-4.6,20.73-14.94,4.31-18.43,4.99-36.67-7.9-52.67-1.64-2.03-3.35-4.01-5.14-5.92-13.11-14.05-28.45-25.46-43.71-36.97-4.07-3.45-1.17-6.93-.04-10.4Z"/>
      <path class="cls-1" d="M475.57,334.15c-16-4.57-33.09-3.42-48.83-9.3-1.67-4.61-3.34-9.21-5.01-13.81,9.28-.49,18.64-2.01,27.82-1.25,22.62,1.87,43.2-5.27,63.76-12.82,7.98-2.93,8.82-5.27,5.56-13.45-3.1-7.77-5.16-15.17-13.81-20.56-20.13-12.54-41.02-20.97-64.82-21.68-3.99-.12-7.97-.26-11.95-.39-2.17-4.87-4.12-9.78-3.55-15.29,11.49-5.58,23.69-4.43,34.93-.91,12.08,3.79,24.35,6.37,36.59,9.16,19.63,4.46,32.74,16.38,41.15,34.1,9.35,19.7-.63,44.03-21.05,52.37-6.86,2.8-13.96,4.2-21.13,5.61-7.07,1.38-14.41,2.34-19.64,8.21Z"/>
    </g>
  </g>
</svg>