<?xml version="1.0" encoding="UTF-8"?>
<svg id="Layer_2" data-name="Layer 2" xmlns="http://www.w3.org/2000/svg" viewBox="0 0 345.02 674.03">
  <defs>
    <style>
      .cls-1 {
        fill: #f88219;
      }

      .cls-2 {
        fill: #aea915;
      }
    </style>
  </defs>
  <g id="ELEMENT">
    <g>
      <path class="cls-1" d="M255.29,209.91c20.13,10.73,29.59,31,42.89,47.84,3.15,12.57,10.59,23.98,8.7,37.98-.75,5.58,1.96,11.57,2.73,17.42,1.46,11.12-3.46,22.13-.94,33.26,2.59,11.44-4.06,22.02-2.85,33.34.19,1.82-.6,4.15-1.72,5.64-9.01,11.93-8.52,27.37-15.09,40.19-6.3,12.29-13.69,24.24-18.19,37.18-6.84,19.65-18.98,36.34-27.67,54.82-6.34,13.47-16.52,23.7-25.26,35.01-12.09,15.66-25.62,30.2-35,47.84-1.89,3.55-3.96,6.86-7.64,8.95-1.7.97-3.03,2.56-4.54,3.87-5.6,4.86-5.64,13.46-12.1,17.82-5.49,3.7-11.35,7.13-15.06,12.82-10.02,15.34-26.2,21.81-41.95,28.28-7.8,3.21-16.18,2.43-24.3-3.5-18.1-13.22-33.41-28.02-38.63-50.78-13.4-21.72-15.13-47.33-23.34-70.79-3.65-10.42-4.21-21.99-5.62-33.1-2.49-19.61-3.45-39.49-7.31-58.81-1.81-9.05-2.42-17.65-2.16-26.64.25-8.58-.76-17.25.14-25.74,2.86-26.77,5.75-53.58,9.92-80.16,1.71-10.88,3.47-22.18,9.95-32,2.42-3.67,3.78-8.85,3.63-13.27-.61-17.03,10.18-28.22,20.2-39.28,9.21-10.16,20.22-18.69,30.43-27.94,5.81-.47,9.67-3.39,11.99-8.81,1.95-4.56,5.69-7.11,10.69-7.68,10.57-5,22.17-2.08,33.11-4.35,13-2.69,26.19-1.9,39.35-2.14,21.93-.4,42.51,8.47,64.28,8.93.91,4.92,3.85,7.94,8.58,9.45,4.29,1.37,8.52,2.89,12.78,4.35ZM156.98,595.99c-16.35-5.23-30.53-13.9-46.6-17.41-.62-.14-1.16-.63-1.74-.97-5.38-3.1-3.46-7.98-2.94-12.44.46-3.92,3.14-5.64,6.81-5.88,10.12-.66,19.71.05,27.66,7.79,7.59,7.39,19.25,3.61,27.76,9.18,1.02.67,3.7-.98,5.51-1.78,5.02-2.23,10.07-5.63,11.46-10.56,2.37-8.4,10.01-13.63,11.31-22.9.95-6.8,5.62-13.29,9.39-19.46,11.32-18.51,22.28-37.16,29.97-57.56,2.3-6.1,1.62-9.64-4.18-10.06-12.14-.89-22.18-8.05-34.24-9.67-9.57-1.28-18.53-7.03-27.79-10.7-4.86-1.93-3.97-6.73-4.41-10.17-.5-3.83,4.16-4.46,6.98-5.7,1.65-.72,4.3-1,5.69-.15,7.66,4.66,16.68,3.99,24.84,6.79,13.15,4.52,26.76,7.73,40.13,11.64,3.36.98,7.05,1.84,9.29-.97,6-7.54,15.75-12.81,15.27-24.54-.1-2.52,1.27-5.1,1.99-7.65,4.13-14.64,8.84-28.95,16.26-42.44,5.13-9.32,1.29-16.3-9.31-19.04-14.64-3.77-28.54-10.78-44.4-9.47-4.42.37-9.09-1.62-13.57-2.81-6.91-1.83-11.13-7.32-14.74-12.75-1.28-1.93-2.17-6.33.38-9.18,1.74-1.95,3.75-3.85,6.76-3.31,6.52,1.19,13.42,1.46,19.47,3.86,14.79,5.87,31.37,5.61,45.45,13.72,1.56.9,3.91.66,5.88.58,2.79-.12,5.74-1.37,5.95-4.19.85-11.73,3.11-23.17-3.4-34.84-5.37-9.62-12.59-18.6-14.77-30.05-.51-2.67-4.07-5.06-6.69-6.95-4.25-3.07-9.53-4.48-12.84-9.15-3.61-5.08-9.58-7.21-15-9.5-10.34-4.38-21.27-7.15-31.49-12.11-7.46-3.62-17.02-3.16-22.44,2.67-6.07,6.51-12.46,6.56-19.69,6.53-9.24-.04-18.39,1.02-27.71.6-15.4-.69-30.14,3.72-44.45,9.25-5.73,2.22-9.75,5.94-13.15,11.42-5.51,8.86-11.5,17.93-19.19,24.77-7.04,6.27-10.74,14.62-17.06,21.26-7,7.35-6.71,18.34-9,28.83,14.52,4.49,28.12,11.32,43.9,11.06,6.55-.11,13.17,1.76,19.69,3.05,3.88.77,5.23,3.61,4.45,7.43-.4,1.96-1.04,3.88-1.26,5.85-.55,4.82-3.33,6.71-7.97,7.01-3.96.26-7.79,1.26-11.64-.87-13.88-7.66-29.39-7.1-44.49-8.61-3.67-.37-6.29.37-8.12,3.92-2.71,5.26-6.64,9.92-3.37,16.62,1.74,3.57,1.13,7.71-.31,11.64-4.03,10.94-4.04,22-.64,33.16.76,2.48,1.9,5.81.9,7.7-4.67,8.83,1.22,18.03-1.64,26.98-1.43,4.46,1.7,7.64,6.22,8.28,20.98,2.97,41.88,6.2,61.27,15.52,1.65.79,3.96.83,5.82.47,7.18-1.36,9.11,3.39,10.92,8.7,2.6,7.65,1.23,9.53-6.24,9.9-8.15.4-16.53-.43-23.42-3.76-13.23-6.39-26.93-6.19-40.82-6.45-8.43-.16-11.47,2.16-10.32,10.05,2.33,16.08,2.75,32.63,9.73,47.72,1.4,3.02,3.4,5.43,2.21,9.12-4.63,14.28,1.49,25.85,9.53,36.94,4.66,6.43,9.1,12.84,10.81,20.98,3.26,15.55,16.86,24.85,24.04,38.1.85,1.57,3.05,2.45,4.68,3.57,6.62,4.57,13.25,5.79,20.15.4,14.11-11.01,28.39-21.79,42.39-32.93,4.7-3.74,8-8.77,10.13-16.11Z"/>
      <path class="cls-2" d="M255.29,209.91c-4.26-1.46-8.49-2.98-12.78-4.35-4.72-1.51-7.67-4.53-8.57-9.45.1-4.17,1.13-7.88,5.02-10.18,5.27-3.12,8.9-7.15,11.27-13.23,1.8-4.62,6.24-8.58,10.29-11.86,6.8-5.51,12.55-11.55,16.94-19.25,2.9-5.09,6.81-10.19,11.51-13.52,6.02-4.27,8.75-9.92,10.27-16.37,3.49-14.84,13.78-27.14,15.63-42.55,8.12-6.72,5.91-14.37,3.97-23.37-1.7-7.9-5.26-13.59-10.9-18.04-5.78-4.56-13.14-7.31-20.5-6.53-20.26,2.13-38.08,10.05-52.16,25.14-2.24,2.39-3.61,5.94-7.01,6.67-7.79,1.67-11.24,8-12.44,14.13-1.47,7.51-9.51,11.69-8.79,19.5.76,8.22-3.09,13.69-9.02,18.41-.42.33-.7,1.26-.57,1.8,2.58,10.85-3.19,20.64-3.82,31.02-.71,11.58-7.86,20.83-10.28,31.74-.62,2.79-3.63,4.05-6.39,3.02-2.96-1.1-8.05-2.16-7.45-5.41,1.7-9.27-3-17.88-1.26-27.2,2.28-12.28,2.23-24.46-.59-37.22-4.4-19.85-7.36-28.31-21.27-39.71-2.56-2.1-6.1-3.42-7.83-6-4.37-6.5-10.93-5.78-17.3-7.35-9.48-2.33-12.38,3.98-17.73,8.95-7.55,7.02-11.81,15.87-17.02,24.21-2.73,4.38-5.17,9.16-2.37,14.9,1.48,3.03.62,6.49-1.27,9.48-1.87,2.96-2,6.09-1.28,9.51,1.46,7.03,1.49,14.09,1.19,21.33-.27,6.41,1.08,13.33,3.5,19.3,3.32,8.19,6.07,16.11,4.28,25.02-1.15,5.74,3.58,8,6.65,11.24-5,.56-8.74,3.12-10.69,7.68-2.32,5.41-6.19,8.33-11.99,8.81-3.51-7.78-9.75-14.49-9.39-23.79.12-3-1.48-4.99-3.72-6.57-3.85-2.73-4.64-6.74-3.18-10.59,2.3-6.05,1.17-11.63-.28-17.54-1.41-5.76-2.21-11.69-2.81-17.6-.81-7.9-2.55-16.07-1.32-23.72,1.19-7.39,5.06-14.22,5.67-22.19.55-7.14,3.7-14.07,5.66-21.11,4.89-17.54,17.43-29.48,30.21-41.24.96-.88,2.17-1.95,3.35-2.08,11.2-1.24,22.62-3.03,33.43,1.06,6.75,2.55,12.93,6.75,19.1,10.64,2.72,1.72,5.24,4.2,7.02,6.88,8.59,12.89,21.07,23.16,26.01,38.55.73,2.27,5.39,2.12,6.63.07.68-1.13,1.93-2.24,1.97-3.39.76-19.26,16.64-29.46,26.04-43.52,1.06-1.58,2.83-3.12,4.6-3.73,16.4-5.7,28.25-19.3,43.83-25.74,9.16-3.78,19.68-5.18,30.65-4.27,14.87,1.22,25.06,8.86,33.06,19.31,7.88,10.29,15.62,22.9,13.67,35.75-1.78,11.78,1.69,25.85-9.23,35.51-5.41,17.21-16.15,31.53-25.13,46.83-2.99,5.08-5.14,10.31-9.37,14.9-13.86,15.07-23.81,33.38-39,47.46-2.84,2.63-4.5,6.56-6.7,9.88Z"/>
    </g>
  </g>
</svg>