<?xml version="1.0" encoding="UTF-8"?>
<svg id="Layer_2" data-name="Layer 2" xmlns="http://www.w3.org/2000/svg" viewBox="0 0 564.79 806.9">
  <defs>
    <style>
      .cls-1 {
        fill: #b88278;
      }

      .cls-2 {
        fill: #aea915;
      }
    </style>
  </defs>
  <g id="ELEMENT">
    <g>
      <path class="cls-2" d="M209.33,650.6c-5.92-.72-11.94-1.02-17.73-2.31-4.05-.9-7.65-.76-11.67.13-13.18,2.93-26.14,2.68-39.02-2.57-9.83-4-20.27-5.72-31.09-5.6-11.94.13-24.05-.1-34.92-6.32-6.85-3.92-14.3-2.09-21.52-2.51-3.98-.23-8.61.46-11.15-3.03-6.91-9.52-17.2-11.56-27.62-13.16-5-.77-6.69-3.03-6.71-7.81,0-1.66-1.32-4.03-2.74-4.84-6.99-3.99-5.9-7.78-2.53-14.49,6.48-12.91,14.54-23.18,27.51-30.19,7.85-4.24,13.74-11.14,7.17-21.34-1.67-2.59-.56-5.02,2.06-6.62,8.91-5.43,19.31-9.01,23.7-19.97.53-1.34,3.41-1.65,5.1-2.62,5.74-3.31,12.18-5.87,16.98-10.23,9.97-9.06,20.98-16.26,33.1-21.88,10.57-4.9,17.18-14.43,25.45-21.94,3.49-3.17,6.72-6.16,11.01-7.98,2.56-1.09,5.03-2.58,4.12-5.61-.42-1.41-2.72-2.9-4.37-3.21-27.98-5.2-55.41-13.64-84.13-14.45-4.66-.13-9.77.49-12.97-3.62-4.41-5.67-11.11-10.08-11.99-17.9-.68-6.09.66-12.25,5.63-16.28,17.96-14.57,35.13-29.94,50.28-47.47,10.25-1.55,13.84-11.35,20.81-16.98,4.51-3.64,9.85-6.83,11.84-13.11,1.07-3.37,4.43-4.79,7.73-5.65,5.55-1.45,8.75-4.69,11.04-10.25,1.9-4.61,5.03-9.13,10.13-11.87,3.36-1.81,6.22-4.97,8.61-8.06,9.49-12.31,22.79-19.44,35.71-27.2,4.76-2.86,12.56-5.1,10.7-11.85-1.51-5.48-8.91-4.7-14.18-4.52-10.57.36-21.33-1.66-31.65,2.3-1.21.46-2.62.56-3.94.54-21.16-.35-42.33-.65-63.48-1.21-4.1-.11-6.63-2.14-8.64-6.59-9.44-20.89-7.14-22.73,7.48-35.77,4.42-3.94,10.02-6.47,12.71-12.31.74-1.6,2.85-3.49,4.45-3.62,9.92-.78,14.45-8.37,20-14.86,8.66-10.13,19.24-18.1,29.98-25.81,9.69-6.96,19.15-14.12,27.71-22.52,2.87-2.81,5.79-5.01,7.19-9.06.79-2.28,2.93-5.28,4.98-5.76,11.28-2.6,14.9-12.16,20.14-20.51,5.21-8.29,12.32-15.64,16.22-24.45,4.28-9.66,13.81-13.86,19.15-22.21,2.73-4.27,7.72-6.8,8.45-12.86.83-6.85,10.29-5.77,12.38-12.6,5.24,5.28,9.72,10.95,15.33,15.08,3.97,2.92,7.28,6.44,8.92,10.39,7.3,17.5,21.43,29.74,32.78,44.1,4.92,6.23,10.33,12.07,15.35,18.23,4.63,5.68,9.5,11.03,15.75,15.05,7.77,4.99,15.83,9.34,21.16,17.7,3.46,5.43,10.81,7.02,16.19,10.75,12.61,8.75,21.92,20.92,34.03,30.21,7.24,5.56,14.09,11.38,22.31,15.48,14.87,7.41,16.73,20.52,15.08,35.02-.6,5.27-3.91,7.69-9.53,7.17-5.94-.55-11.99-.76-17.74-2.14-4.72-1.13-8.91-.53-13.59.03-13.09,1.55-26.5,3.87-38.98-3.17-3.1-1.74-6.09-1.21-9.51-.54-11.01,2.16-22.29,3.11-33.17,5.75-4.59,1.11-12.31-1.44-13.34,4.61-.89,5.2,5.67,8.41,9.94,11.43,11.42,8.06,21.1,17.28,28.78,29.44,5.74,9.1,14.94,16.28,23.48,23.24,4.22,3.44,8,6.52,10.42,11.51,3.54,7.26,8.21,13.6,16.64,16.05,4.79,1.39,7.81,4.95,9.61,9.48,1.75,4.43,3.92,8.82,8.3,10.86,16.99,7.91,27.58,22.5,38.63,36.56,5.2,6.62,9.22,14.06,16.15,19.38,5.42,4.16,6.03,9.98,2.66,16.09-1.92,3.48-4.36,6.89-5.29,10.64-2.28,9.24-10.22,9.28-16.97,11.42-17.84-6.5-35.22,3.28-53.07,1.57-7.82-.75-15.6-.1-23.44-2.54-9.34-2.9-13.03-1.6-24.88,4.38,4.38,4.43,9.25,7.68,15.36,6.5,6.78-1.31,11.6,1.94,16.22,5.57,9.74,7.65,19.69,14.89,27.65,24.8,12.8,15.92,25.11,32.37,41.12,45.51,3.98,3.26,6.91,8.03,9.64,12.52,3.56,5.87,8.28,10.11,14.02,13.8,22.2,14.25,38.64,33.77,50.97,56.91,1.75,3.28,1.22,5.98-1.64,8.79-10.88,10.69-21.7,21.25-38.55,20.88-1.98-.04-4.58-.5-5.87.52-11.32,8.97-25.12,6.58-37.88,9.23-13.65,2.84-27.03,5.49-41.08,5.74-7.67.13-14.66,6.42-22.99,5.18-13.86-2.06-27.57,1.57-41.42.82-5.23-.29-10.54,1.01-15.8,1.57-10.75-1.19-21.08.74-31.2,4.28-9.1-1.27-18.6.94-27.36-3.21-20.28,2.31-40.48-2.07-60.74-.73-9.98-.43-19.95-.85-29.93-1.28ZM37.97,593.21c1.41,1.06,2.42,2.47,3.33,2.4,12.53-.89,23.59,2.47,33.09,10.78,5.88,5.14,13.46,7.3,20.45,6.1,12.22-2.1,23.43.94,35.02,3.18,8.25,1.6,16.49,4.12,25.16.49,3.42-1.43,7.97.13,11.88-.46,15.06-2.27,29.92,6.74,45.12.61,1.91-.77,4.94,1.45,7.5,2.09,22.06,5.51,44.77,4.29,67.17,6.19,20.42,1.73,40.72-3.43,61.3-2.6,11.58.47,23.35-.82,34.91-1.4,17.25-.87,34.31-2.17,51.5.15,2.52.34,5.3.29,7.73-.4,8.29-2.37,16.87-3.39,25.18-5.19,16.76-3.64,33.6-8.01,48.89-16.43,9.09-5,9.72-9.56.93-16.26-8-6.1-15.49-12.26-20.4-21.27-2.96-5.43-8.26-9.44-13.76-10.92-10.12-2.72-15.56-9.52-20.08-17.93-5.97-11.11-16.46-18.75-22.62-29.94-2.48-4.51-9.86-5.68-14.83-8.82-7.43-4.69-14.27-9.01-18.24-17.41-2.58-5.45-8.15-8.59-13.63-11.28-12.08-5.92-21.33-15.74-32.08-23.5-3.87-2.79-6.29-6.79-6.11-11.95.16-4.66-.03-9.32.15-13.98.17-4.41,2.34-7.29,6.72-8.75,11.65-3.88,23.63-3.62,35.62-3.16,11.1.43,22.03,2.37,33.28,2.51,10.98.13,22.02-3.03,33.21.36,6.33,1.92,12.63-1.81,18.31-4.93.44-3.15-1.49-5.16-3.17-7.14-2.11-2.49-4.49-4.76-6.81-7.08-8.77-8.77-18.61-16.74-26.03-26.53-6.5-8.57-16.56-14.44-20.75-23.98-4.95-11.25-15.93-15.52-22.8-24.25-3.68-4.68-8.19-8.67-10.93-14.13-4.23-8.43-10.92-14.98-17.63-21.31-8.22-7.75-16.75-14.91-22.23-25.28-5.79-10.97-19.95-12.96-26.92-23.05-.37-.54-.93-.96-1.37-1.45-7.26-8.2-4.48-18.55,6.3-21.5,12.76-3.49,25.73-6.28,38.65-9.16,2.55-.57,5.73-1.12,7.89-.11,14.12,6.63,28.41-.13,42.59.41,7.56.29,15.88,2.02,23.58-.92,1.11-.42,2.51-.95,3.04-1.86,1.25-2.15-.46-3.79-1.78-5.15-5.95-6.11-15.91-7.35-19.65-16.18-8.59-2.05-14.34-8.68-21.48-13.01-14.25-8.65-27.95-17.33-36.12-32.66-1.41-2.65-4.89-4.49-7.78-6.01-4.16-2.19-8.29-4.24-11.2-8.09-8.3-10.95-21.38-17.46-27.82-30.25-1.4-2.79-4.4-5.14-7.19-6.79-11.21-6.61-18.12-16.99-25-27.46-3.55-5.4-10.79-5.91-12.22-.22-3.25,12.87-16.38,18.64-20.37,30.93-1.51,4.67-6.07,8.68-9.99,12.16-4.94,4.38-11.02,7.48-15.88,11.93-4.29,3.93-5.94,11.32-12.47,12.18-9.44,1.25-6.22,10.81-11.04,14.81-2.04,1.69-4.39,3.02-6.39,4.75-2.47,2.14-5.58,4.1-6.92,6.87-4.53,9.35-11.57,15.87-20.48,20.81-2.23,1.23-4.54,3.06-5.78,5.21-6.51,11.34-16.55,18.67-27.38,25.29-2.19,1.34-4.1,3.31-5.75,5.3-.47.57.22,3.18.67,3.27,3.18.6,6.44.9,9.69,1.07,11.93.65,24-1.46,35.82,1.48,18.05,4.49,36.3,7.3,54.94,7.21,2.65-.01,5.32.16,7.95.49,3.08.39,4.44,2.48,4.59,5.42.17,3.28.35,6.56.39,9.84.11,8.96-1.01,17.09-10.56,21.66-3.44,1.64-7.45,4.74-8.57,8.06-3.93,11.6-14.78,16.33-22.51,24.01-4.65,4.62-9.3,9.2-13.88,13.91-11.96,12.31-24.23,24.32-36.11,36.74-3.54,3.7-8.65,6.19-13.45,8.31-3.76,1.66-7.29,3.44-9.8,6.57-6.44,8.07-13.32,15.29-22.45,20.73-5.44,3.24-8.96,9.6-13.56,14.35-4.92,5.08-10.1,9.9-16.66,16.29,18.48,3.93,34.93,8.1,51.62,10.82,20.99,3.43,41.47,8.66,61.7,14.96,11.27,3.51,13.27,8.18,9.79,19.31-1.9,6.09-5.96,10.48-11.13,13.57-11.95,7.13-25.44,11.64-36.05,21.12-.88.78-2.52,1.04-3.79,1-12.52-.46-18.81,7.52-24.55,17.08-4.06,6.75-8.41,13.95-14.38,18.78-9.38,7.6-16.83,16.59-24.29,25.82-2.86,3.54-6.51,7.52-10.57,8.77-9.63,2.97-14.77,10.45-21.22,17.03-3.9,3.97-6.51,8.15-8.67,13.04-2.37,5.35-9.1,7.75-10.37,13.92Z"/>
      <path class="cls-1" d="M327.36,655.83c10.11-3.54,20.45-5.47,31.2-4.28-5.56,3.88-8.42,8.86-4.55,15.22,7.17,11.78,6.19,24.15,3.1,36.61-1.32,5.33-1.39,10.38-.42,15.71,2.86,15.73,4,31.42-.28,47.23-1.36,5.01-.24,10.63-.99,15.87-1.94,13.67-8.85,19.93-22.5,20.46-7.97.31-15.97.01-23.96.1-8.61.09-17.14,1.29-25.67,2.08-18.36,1.71-36.92,2.92-55.44,1.35-4.51-.38-9.97.96-12.78-3.76-3.66-6.16-11.29-10.99-10.05-18.89,2.08-13.25-1.79-26.2-.53-39.36.76-7.9.51-15.79,2.42-23.69,1.68-6.93.13-14.13-.61-21.35-1.64-16.07-5.64-32.88,3.02-48.52,9.98.43,19.96.85,29.95,1.28-1.26,2.31-2.78,4.68-1.09,7.32,2.3,3.58,2.6,7.31,1.85,11.4-2.11,11.49-3.02,23.28-5.05,34.6-4.05,22.59-3.33,44.51.92,66.68,1.11,5.79,3.2,8.1,9.26,8.17,13.89.16,27.82-.71,41.69-.15,10.89.44,20.81-3.2,31.15-5.13,2.94-.55,4.58-2.05,5.04-5.04.59-3.83,3.18-6.98,2.66-11.35-2.7-23-.41-46.12-1.25-69.16-.42-11.37.41-22.39,2.91-33.39Z"/>
    </g>
  </g>
</svg>