<?xml version="1.0" encoding="UTF-8"?>
<svg id="Layer_2" data-name="Layer 2" xmlns="http://www.w3.org/2000/svg" viewBox="0 0 137.33 148.55">
  <defs>
    <style>
      .cls-1 {
        fill: #ef6172;
      }
    </style>
  </defs>
  <g id="ELEMENT">
    <path class="cls-1" d="M69.14,23.71c5.99-4.89,12.15-8.88,16.96-14.1,6.51-7.07,14.19-8.17,23.19-8.69,10.17-.58,15.65,3.81,20.44,11.88,6.64,11.2,8.9,22.14,6.9,35.59-3.92,26.37-18.41,47.88-28.91,71.25-2.61,5.8-8.86,7.96-13.48,11.43-13.95,10.47-29.26,18.33-47.59,17.28-1.98-.11-4.35.63-5.89-.22-14.82-8.13-27.1-19.64-33.33-35.05-3.36-8.3-7.69-18.32-1.49-28.72,2.9-4.86.35-11.52-1.86-17.31C-1.81,51.61-.62,35.98,3.19,20.17c1.74-7.2,5.91-11.67,11.92-14.94C34.15-5.11,54.05.14,66.52,18.72c.98,1.47,1.66,3.14,2.62,4.99ZM18.33,53.09c-1.63,15.64,2.21,30.31,7.78,44.7,1.66,4.3,4.13,8.67,4.27,13.08.27,8.3,5.13,12.18,11.86,13.92,12.33,3.19,25.54,5.9,35.56-4.55,12.8-13.35,25.12-27.36,31.94-45.08,1.17-3.05,1.37-7.34,3.57-8.96,7.99-5.89,3.12-15.27,6.95-22.11,5.83-10.39-5.48-15.12-7.98-22.78-1.88-5.78-8.92-6.13-12.92-1.74-1.33,1.46-2.05,3.44-3.32,4.97-6.34,7.67-12.83,15.22-19.16,22.91-5.48,6.65-12.72,6.4-20.13,5.27-6.78-1.04-3.77-7.49-5.93-10.99-4.14-6.72-8.77-13.24-13.93-19.22-3.87-4.48-12.26-2.19-14.82,3.37-4,8.7-4.41,17.89-3.74,27.23Z"/>
  </g>
</svg>