<?xml version="1.0" encoding="UTF-8"?>
<svg id="Layer_2" data-name="Layer 2" xmlns="http://www.w3.org/2000/svg" viewBox="0 0 283.92 270">
  <defs>
    <style>
      .cls-1 {
        fill: #dabfbb;
      }

      .cls-2 {
        fill: #ef6172;
      }

      .cls-3 {
        fill: #b88278;
      }
    </style>
  </defs>
  <g id="ELEMENT">
    <g>
      <path class="cls-2" d="M160.18,164.56c-3.67-5.11-8.41-8.56-14.94-7.94-9.53.9-18.03-2.95-26.9-5.16-1.75-1.77-3.68-3.58-5.77-.84-.36.47,1.59,2.69,2.47,4.1,2.76,4.41,5.7,8.71,8.23,13.25,2.47,4.44,6.12,8.47,3.84,14.48-2.6,6.88-5.03,13.44-13.26,15.47-1.79.44-3.27,2.12-4.89,3.23-6.24.14-11.3,3.08-16.02,6.82-13.46-.79-26.81-.75-39.36,5.25-5.18-.14-10.35-.29-15.53-.43-5.32-4.21-11.41-6.94-17.99-8.03-4.86-.8-8.45-3.51-12.48-5.78-5.92-3.33-7.45-7.65-7.57-14.59-.15-8.75.51-16.87,4.29-24.71,7.7-15.96,14.43-32.45,24.7-47.04,2.64-3.74,5.63-7.59,9.3-10.2,13.11-9.34,34.81-5.37,44.54,7.72,2.35,3.16,4.38,6.6,7.02,9.49,1.25,1.37,5.04,1.26,4.8-.55-1.63-12.22,6.01-19.62,13.25-27.32,6.01-6.4,8.76-14.66,12.46-22.29,6.61-13.64,11.67-28.07,18.95-41.31,4.69-8.53,12.14-15.55,18.44-23.18,2.33-2.82,5.94-2.62,9.11-3.36,9.85-2.28,19.91-1.76,29.78-.98,18.94,1.5,32,12.09,38.51,29.56,3.85,10.33,9.89,19.92,10.17,31.74.15,6.47,3.72,12.76,10.78,15.6,1.22.49,2.34,1.25,3.43,2,15.17,10.46,21.94,24.91,24.15,43.26,1.35,11.24-3.24,18.28-10.25,23.81-6.53,5.15-14.34,10.12-23.48,9.72-7.59-.33-14.32,2.37-21.28,4.43-4.68-.01-9.37-.02-14.05-.03-2.74-1.68-5.45-3.18-8.86-1.67-9.99,4.42-20.55,6.23-31.4,6.68-4.72-.4-9.45-.8-14.17-1.2ZM22.66,164.19c-1.73,5.77-3.46,11.55-5.19,17.32.56,1.87.74,5.1,1.75,5.39,7.57,2.12,14.7,6.04,22.88,5.85,11.25-.25,22.51-.35,33.77-.51,3.37-.05,6.59-.53,8.93-3.33,5.83-.14,11.68.03,17.48-.49,6.68-.59,10.61-8.49,5.72-12.69-7.21-6.19-10.93-16.27-21.04-19.16.29-2.58,1.61-5.62.69-7.65-4.02-8.82-8.33-17.56-13.32-25.85-1.88-3.13-5.55-6.08-9.68-6.1-6.58-.03-13.1,1.2-19.04,4.22-4.46,2.27-5.97,6.71-7.15,11.23-1.55,3.67-2.69,7.41-1.81,11.47-3.82.81-7.03,2.26-8.48,6.39-1.65,4.7-3.65,9.27-5.5,13.9ZM160.38,24.87c-5.05,2.96-9.55,6.34-9.86,12.92-1.08,5.12-2.16,10.25-3.23,15.37-2.53,1.76-2.61,4.51-2.94,7.17-5.7,2.93-8.5,8.59-9.63,13.95-1.8,8.52-7.29,14.89-10.5,22.49-6.72,2.97-7.08,9.27-8.02,15.27.82,9.88,8.85,14.13,15.51,19.22,1.75,1.34,5.57,1.73,7.5.74,7.47-3.87,14.18-2.04,20.69,1.78,2.96,1.74,5.87,3,9.28,3.01,13.25.05,26.5.07,39.76.1,6.61,0,13.22,0,19.83,0,13.2,1.35,24.83-1.98,34.31-11.59,2.36-2.39,5.04-5.32,4.06-8.59-3.01-9.99-5.09-21.05-18.22-23.23-.43-4.41-4.53-5.18-7.25-7.34.38-3.38-1.14-6.06-3.18-8.54-4.85-5.91-8.13-12.66-10.55-19.86.83-4.69,1.55-9.36-3.09-12.73-2.8-18.99-6.73-22.72-26.83-25.4-5.62-3.17-11.51-3.38-17.58-1.64-7.74-.8-14.62.91-20.04,6.88ZM109.05,146.48c-.33-2.73-1.75-4.6-4.21-5.87-3.08-1.58-3.36,1.2-3.42,2.59-.13,2.81,1.44,4.95,4.53,4.96,1.04,0,2.08-1.1,3.1-1.69ZM97.86,135.57c.42.39.89,1.13,1.33,1.12.44-.01.85-.79,1.27-1.24-.64-.44-1.28-.88-1.91-1.32-.21.44-.42.88-.68,1.43Z"/>
      <path class="cls-3" d="M160.18,164.56c4.72.4,9.45.8,14.17,1.2-1.77,7.04-2.84,14.34-5.46,21.05-3.96,10.18-4.58,20.91-3.77,31.15,1.68,21.05,14.69,32.15,35.69,30.66,2.51-.18,5.33-.99,7.35-2.42,10.2-7.2,16.37-16.69,16.6-29.69.35-19.3-2.67-37.92-10.16-55.76,4.68.01,9.37.02,14.05.03.44,1.25.98,2.47,1.32,3.75,2.48,9.54,5.75,53.25,6.61,62.51.95,10.15-5.17,16.15-10.57,22.4-5.59,6.46-12.31,12.13-22.02,11.69-3.27-.15-6.91-.27-9.82.93-12.77,5.28-21.78-1.15-30.08-9.3-9.31-9.13-15.43-19.93-14.36-33.54,1.23-15.75,2.46-31.52,4.35-47.19.33-2.7,3.97-4.99,6.09-7.47Z"/>
      <path class="cls-3" d="M38.06,212.79c5.18.14,10.35.29,15.53.43.04,5.98.55,12.01-.01,17.94-.54,5.76,1.63,10.46,4.22,15.08,4.35,7.75,11.62,8.97,18.17,2.85,3.35-3.13,6.71-6.72,8.65-10.78,4.56-9.54,9.08-19.27,8.32-30.34,4.72-3.74,9.78-6.67,16.02-6.82-5.03,11.28-3.48,23.36-3.96,35.12-.58,14.28-9.78,23.06-20.39,28.98-8.08,4.51-18.17,6.94-28.4,2.1-11.8-5.59-18.72-12.84-18.59-27.08.08-9.14-1.62-18.32.43-27.48Z"/>
      <path class="cls-1" d="M208.92,136.9c-.1-4.2-2.72-7.19-4.68-10.62-7.34-12.84-4-20.62,10.29-24.8,1.24-.36,2.66-.16,3.91-.52,1.2-.34,2.28-1.08,3.48-1.68-.26-5.33-5.2-7.22-7.92-10.73-7.71-9.98-10.42-20.45-5.77-33,3.15-8.51,8.6-10.9,16.6-10.53,4.64,3.37,3.92,8.04,3.1,12.73-1.62,1.1-3.49,1.96-4.82,3.34-7.99,8.34-6.92,17.23,3.26,21.91,4.6,2.12,10.16,2.16,15.28,3.15,2.71,2.15,6.82,2.93,7.25,7.33-.3,6.18-4.91,6.63-9.52,7.45-2.66.47-4.9,2.05-3.83,5.33,3.8,11.59.55,21.55-6.8,30.63-6.61,0-13.22,0-19.83,0Z"/>
      <path class="cls-1" d="M147.29,53.16c7.76-.81,12.91,3.74,15.78,9.75,3.34,6.98,6.98,14.39,5.06,22.71-3.54,15.32-14.27,25.11-30.16,26.61-7.18.68-14.5-.07-21.77-.18.94-6,1.3-12.31,8.02-15.27,1.84.7,3.64,1.52,5.51,2.07,10.33,3.01,17.55-2.08,23.85-9.35,5.56-6.42,1.69-12.35-1.27-18.12-2.08-4.04-3.95-8.35-7.96-11.05.34-2.65.42-5.41,2.94-7.17Z"/>
      <path class="cls-1" d="M84.79,188.9c-5.21-6.16-6.43-13.98-8.7-21.32-1.97-6.37-.86-7.9,7.03-10.78,1.16-.42,2.57-.16,3.84-.22,10.1,2.89,13.82,12.96,21.03,19.16,4.89,4.2.96,12.1-5.72,12.69-5.8.51-11.65.35-17.48.49Z"/>
      <path class="cls-1" d="M198,19.64c-3.14,5.79-5.77,11.94-9.55,17.27-3.99,5.63-9.37,8.67-17.04,6-6.74-2.34-13.91-3.46-20.89-5.12.31-6.58,4.81-9.96,9.86-12.92,1.8.76,3.55,1.64,5.39,2.24,9.05,2.96,10.55,2,14.65-9.12,6.07-1.73,11.97-1.52,17.58,1.64Z"/>
      <path class="cls-1" d="M38.45,132.42c5.46,3.41,7.85,9.04,9.64,14.67,2.55,8.04,1.52,15.71-4.73,22.12-7.12,7.31-14.74,13.49-25.88,12.29,1.73-5.77,3.46-11.54,5.19-17.31,12.1-1.5,12.82-1.98,13.85-10.89.36-3.1.11-6.27.14-9.41-.89-4.06.26-7.8,1.81-11.47Z"/>
    </g>
  </g>
</svg>