<?xml version="1.0" encoding="UTF-8"?>
<svg id="Layer_2" data-name="Layer 2" xmlns="http://www.w3.org/2000/svg" viewBox="0 0 1293.61 446.35">
  <defs>
    <style>
      .cls-1 {
        fill: #b9e8df;
      }

      .cls-2 {
        fill: #724014;
      }

      .cls-3 {
        fill: #fea9a8;
      }

      .cls-4 {
        fill: #442e23;
      }

      .cls-5 {
        fill: #fed175;
      }

      .cls-6 {
        fill: #fbcdaa;
      }
    </style>
  </defs>
  <g id="Layer_1-2" data-name="Layer 1-2">
    <g>
      <g>
        <path class="cls-3" d="M661.79,172.65v68.5c0,.54-1.94,5.63-2.44,6.56-7.06,13.38-28.63,11.32-31.33-4.8-2.04-12.22-.79-37.25-.86-50.93-.1-19.28-1.34-47.53.62-65.83,1.57-14.65,18.1-18.19,29.03-10.02,8.9,6.66,28.26,36.44,35.81,47.19,8,11.4,14.87,24.15,24.17,34.33v-72.5c0-.36,1.88-5.94,2.26-6.74,6.6-13.87,29.09-9.38,31.5,4.98,3.29,19.55-1.99,46.45.28,66.8-2.48,14.91.58,32.04-1.04,46.96-2.42,22.32-25.54,23.28-38.03,8.02l-49.97-72.53h0Z"/>
        <path class="cls-3" d="M167.79,213.65v31.5c0,1.7-3.95,7.19-5.64,8.36-10.92,7.51-26.32,2.03-28.12-11.59,1.41-34.81-2.68-72.29-.28-106.81,1.19-17.04,7.96-26.17,25.5-27.5,23.86-1.81,58.99.65,72.74,23.34,12.74,21.04,9.01,49.23-7.17,67.23-1.89,2.1-6.98,4.76-7.01,6.94,3.33,11.45,19.22,24.72,17.92,36.92-.99,9.33-10.16,15.76-19.35,14.51-13.91-1.89-22.85-32.89-31.09-42.91h-17.5ZM167.79,146.15v36.5c9.29.96,18.22,1.55,27.04-2.46,13.76-6.24,14.39-31.14-.34-36.75-5.35-2.03-25.25-4.14-26.7,2.7h0Z"/>
        <path class="cls-3" d="M538.56,111.93c92.22-10.5,95.26,137.1,16.71,143.71-91.36,7.69-90.27-135.34-16.71-143.71ZM545.57,144.92c-34.31,3.17-35.14,67.33-7,76.45,49.74,16.12,51.07-80.52,7-76.45Z"/>
        <path class="cls-3" d="M314.62,109.9c23.49-.88,30.57,16.95,37.93,35.49,11.68,29.4,18.26,62.47,27.13,92.91.48,13.8-13.02,22.36-25.79,16.75-6.2-2.72-8.46-9.65-10.39-15.61-1.64-5.07-2.91-16.22-4.91-20.09-.58-1.12-.88-1.69-2.3-1.7l-40.56-.54c-4.94,10.34-4.51,28.7-13.93,36.08-13.08,10.25-26.89-2.5-26.02-17,.69-11.54,8.28-35.17,11.73-47.29,4.68-16.48,17.18-61.7,28.77-72.23,4.56-4.15,12.27-6.53,18.33-6.76h.01ZM333.78,187.65c-2.5-6.71-9.34-37.96-13.42-41.07-.94-.71-1.7-1.25-2.95-.87-3.32.99-14.1,34.52-14.63,39.94l31,2h0Z"/>
        <path class="cls-3" d="M57.59,104.95c21.93-2.15,56.91,6.95,53.11,35.12-.59,4.39-4.06,9.98-8.33,11.66-12.75,5.02-19.08-7.06-30.02-10.13-46.29-12.98-50.89,81.1-3.06,77.03,10.3-.88,20.07-9.85,30-8.99,10.88.94,14.27,12.65,12.08,22.08-2.81,12.12-29.89,22.83-41.08,23.92-90.41,8.83-92.48-142.85-12.69-150.69h-.01Z"/>
        <path class="cls-3" d="M426.77,164.65c1.11-4.12,3.67-8.84,5.84-12.67,4.15-7.32,17.75-31.93,22.82-36.18,10.56-8.84,27.45-1.5,27.24,12.24-.24,15.68-31.2,50.98-38.44,66.56-3.01,14.11,3.4,42.2-2.68,54.32-4.8,9.57-21.95,10.43-28.23.68-8.13-12.62-.27-40.29-3.79-54.21-.72-2.84-9.27-15-11.53-18.47-8.14-12.45-30.28-37.52-29.28-51.82.82-11.81,14.38-16.65,24.21-11.11s31.68,52.83,33.83,50.65h.01Z"/>
      </g>
      <g>
        <path class="cls-2" d="M409.79,355.65v-59.5c0-.93,4.01-5.91,5.27-6.73,7.35-4.74,19.64-1.19,21.5,7.96-1.66,28.35,3.01,60.9.22,88.76-.56,5.59-3,12.13-8.43,14.58-10.83,4.88-16.53-.27-22.98-8.14-12.06-14.72-26.1-36.19-36.49-52.46-.53-.82.56-2.04-2.09-1.46v54.5c0,1.22-4.1,6.59-5.62,7.38-7.72,3.98-17.69,1.19-20.16-7.6-3.15-11.26-.29-24.45-.18-35.74.12-12.99-2.31-52.75,1.9-62.1,1.72-3.82,6.34-7.12,10.57-7.49,8.44-.73,12.52,3.73,17.32,9.72,14.12,17.57,24.86,40.6,39.17,58.33h0Z"/>
        <path class="cls-2" d="M480.58,286.95c35.97-3.17,67.38,12.21,70.19,51.21,3.41,47.42-33.29,70.11-77.25,63.25-12.57-1.96-15.08-13.31-15.79-24.21-1.26-19.32-1.34-48.82,0-68.09,1.18-16.93,6.43-20.72,22.84-22.16h0ZM486.79,374.65h16.5c2.56,0,11.49-5.33,13.49-7.51,10.19-11.1,8.26-41.24-5.3-49.68-1.47-.92-7.95-3.81-9.19-3.81h-15.5v61Z"/>
        <path class="cls-2" d="M149.56,286.93c69.29-6.36,76.09,109.7,7.71,115.71-72.82,6.4-74.63-109.57-7.71-115.71ZM148.52,314.89c-26.72,4.54-27.36,65.33,8.68,60.67,28.93-3.74,27.04-66.75-8.68-60.67h0Z"/>
        <path class="cls-2" d="M581.52,287.89c13.97-2.34,38.7-.39,51.48,6.05,26.18,13.18,26.06,51.48,1.8,66.29-.47,2.02,13.76,18.38,14.75,23.15,2.88,13.8-9.26,23.94-21.72,16.72l-17.54-29.46c-21.43-6.23-12.62,9.79-14.58,22.45-2.05,13.3-25.34,14.16-26.99-2.89,2.14-27.89-2.7-59.62.06-87.04.81-8.08,4.22-13.85,12.73-15.27h.01ZM595.79,314.15v29c4.88,3.01,15.85,1.62,21.06-.94,9.79-4.81,9.52-23.29-.66-27.47-3.31-1.36-19.36-3.97-20.41-.59h0Z"/>
        <path class="cls-2" d="M233.51,287.88c10.82-2.19,16.44,4.11,17.31,14.24,1.44,16.77-4.54,57.17,5.95,69.05,9.1,10.32,28.32,3.3,32.51-9.53,3.72-11.38,1.62-30.53,1.47-42.45-.14-10.87-2.4-31.11,13.53-31.63,9.83-.32,14.76,5.26,15.54,14.55,1.3,15.36,1.16,56.13-2.99,70.08-10.35,34.82-67.3,42.08-85.87,12.77-11.56-18.23-11.08-59.3-9.21-80.86.64-7.33,3.8-14.62,11.76-16.24v.02Z"/>
        <path class="cls-2" d="M43.79,313.65l-.07,21.54c11.86.78,33.3-4.79,34.13,12.95.31,6.6-4.82,13.52-11.56,13.52h-23.5v30.5c0,4.29-8.08,10.2-12.53,10.52-10.83.78-14.7-7.01-15.51-16.49-1.83-21.42-1.4-57.36-.01-79.08.78-12.2,3.58-17.83,16.66-19.34,14.19-1.65,31.17.79,45.65.14,7.88,3.53,10.8,11.59,8.3,19.81-.51,1.66-4.67,5.95-6.05,5.95h-35.5v-.02Z"/>
        <path class="cls-2" d="M681.45,291.98c4,4.03,13.4,21.25,17.14,27.36,2.28,3.73,4.86,8.15,6.21,12.3,2.69.64,2.72-3.17,4.16-5.33,4.9-7.36,18.8-32.1,23.87-36.13,9.58-7.63,21.52,1.69,19.87,13.88-1.76,12.96-27.61,39.11-33.44,52.55-1.89,11.08,2.23,26.63-.91,37.08-1.84,6.14-7.87,9.42-14.04,8.97-20.43-1.48-9.16-35.38-12.97-48.07-2.94-9.79-24.09-33.59-30.37-44.63-10.21-17.94,9.09-29.47,20.49-17.99h-.01Z"/>
      </g>
      <path class="cls-5" d="M915.28,21.84c-3.3,2.49-4.81,6.67-6.91,9.04-.7.79-2.48.39-3.02,2.18-5.48-.85-17.4-4.14-20.9,1.34s4.72,11.54,4.71,17.27c0,5.14-6.1,13.74-5.71,19.02.04.57,1.8,2.57,1.96,2.62,3.74,1.18,15.13-3.18,19.95-3.03.74,1.98,2.64,1.66,3.84,2.83,2.44,2.39,5.23,11.79,11.07,11.22,7.55-.74,5.65-14.28,7.84-19.29,4.22-3.02,14.81-4.28,14.11-10.81-.6-5.65-12.04-7.62-14.25-13.1s3.03-31.12-12.68-19.29h-.01Z"/>
      <path class="cls-3" d="M865.47,105.12l.23,9.84,11.24,4.55c1.27-3.78,4.24-4.78,6.5-7.66l-6.19-10.94-11.77,4.21h0Z"/>
      <path class="cls-5" d="M819.12,204.28l-2.99,9.85c2.77,1.16,3.57,5.06,6.8,5.66,2.75.51,2.19-2.12,3.29-2.4,1.45-.37,3.61.26,5.22.02,1.51-10.49-2.25-13.56-12.32-13.14h0Z"/>
      <path class="cls-1" d="M840.7,283.41c.05.11,1.11.03,1.42.76.48,1.11,1.91,7.15,2.58,7.64,2.58-1.51,8.61,1.01,10.32-1.62.37-.57,1.38-7.67,1.23-8.66-.96-6.2-13.41-4.68-15.71.79-.29.48,0,.72.16,1.08h0Z"/>
      <path class="cls-5" d="M800.24,158.87c-3.9-.8-9.77,2.96-6.46,7.35,7.8,10.37,15.45-5.5,6.46-7.35Z"/>
      <path class="cls-3" d="M844.03,230.79c-3.35-.44-5.01,2.27-5.14,5.33-.27,6.68,14.19,4.94,10.33-3.01-.49-.8-4.16-2.18-5.2-2.32h.01Z"/>
      <path class="cls-1" d="M901.12,124.14c-7.87-2.34-10.17,10.99-1.55,9.79,5.98-.83,5.7-8.56,1.55-9.79Z"/>
      <path class="cls-3" d="M820.89,265.16c1.84,1.29,4.36,1.32,6.21-.01,1.74-4.09,1.68-7.89-3.39-8.71-4.36,1.21-4.83,5.05-2.83,8.72h.01Z"/>
      <path class="cls-5" d="M834.86,98.5c-2.26,4.17-1.01,11.19,4.83,8.55,5.66-2.56,1.16-10.86-4.83-8.55Z"/>
      <path class="cls-5" d="M806.84,129.59c4.56,4.58,10.73-4.77,4.76-7.68-4.94-2.41-7.82,4.6-4.76,7.68Z"/>
      <g>
        <path class="cls-1" d="M1210.57,88.96c-4.33,3.67-12.88,11.32-14.22,16.87-.37,1.56.27,17.45.49,20.24s1.56,11.22,3.86,12.88c7,5.04,22.66-5.3,25.51,6.54,4.65,19.32-8.01,48.04-28.56,52.94,3.45,9.51-5.77,18.09-12.96,22.98-9.41,6.4-29.15,12.81-40.21,10.06-.67-.17-.5-1.61-1.04-1.64-3.98-.21-7.65.41-12.11-1.05-2.34-.77-4.06-3.35-6.42-2.68,1.53,1.36,3.32,2.98,5.04,4.05,6.92,4.3,14.66,7.9,21.67,12.22,15.83,9.75,46.51,33.41,63.9,35.3,12.25,1.33,37.96-5.62,39.69,11.41.14,1.37-1.67,3.89.58,3.46,17.49-3.35,35.2-20.9,28.4-39.72-8.16-22.61-43.76-22.07-62.9-17.94-3.59.77-10.25,5.64-11.99.46.28-3.24,14.51-13.28,17.71-16.24,24.4-22.56,41.08-45.51,48.11-78.37,2.75-12.87,5.87-34.66,4.16-47.5-5.62-42.36-48.08-21.77-68.73-4.26h.02Z"/>
        <g>
          <path class="cls-5" d="M840.54,142.19l-1.26,19-12.77,9.52c3.96,4.9,10.92,4.15,16.34,6.37.75,2.79,3.88,19.54,7.13,18.81,3.66-.82,6.35-12.55,10.4-14.43,4.5-2.08,12.22,1.51,17.14-1.04.8-.41,1.27.2,1.05-1.4-.74-5.46-8.69-9.1-9.11-11.65.33-6.6,5.37-12.51,2.49-19.39-5.44.86-11.42,5.14-16.9,4.09-3.18-.61-12.85-11.05-14.49-9.87h-.02Z"/>
          <path class="cls-6" d="M893.72,272.54c.15.23,3.09,3.96,3.28,4.16,1.11,1.16,8.96,7.3,10.1,7.67,2.57.83-.02-2.94.39-3.29l2.54-.45-.16-3.59c-10.72-3.36-21.21-12.83-10.65-23.23-2.74-.13-3.28-4.4-3.31-6.63-1.25,1.23-5.04,3.04-5.41,4.54-.51,2.08-.66,10.18-.32,12.36.29,1.86,2.47,6.77,3.54,8.46h0Z"/>
        </g>
        <g>
          <path class="cls-2" d="M966.2,119.87l8.67-13.22c4.39-2.22,7.79-6.46,11.72-8.94,4.35-2.75,9.89-4.71,14.4-7.09,1.72-7.98,1.25-16.79,7.44-23.15,9.23-9.48,30.81-8.23,32.82,6.75,1.56,11.62-15.02,15.6-17.57,8.49-1.87-5.22,5.1-2.18,8-3.53,3.45-1.61,3.79-5.37.96-7.98-4.42-4.07-14.24-2.63-18.53,1.12-7.68,6.71-6.7,17.72-3.06,26.26,2.91,6.81,7.47,9.58,14.43,12.02,25.88,9.09,51.89-4.73,70.93-21.32,5.62-4.9,8.77-10.16,14.02-15.7,1.35-1.43,4.53-5.37,6.46-4.86,3.95,1.05.87,3.78.62,5.33-3.26,20.04-4.4,32.35,3.79,51.51,4.2,9.83,11.01,16.46,17.25,24.91.63-4.09,6.53-6.31,10.14-7.21,3.98-.99,15.79-1.51,19.42-.03,4.41,1.8,10.49,6.3,12.37,10.77,7.59,18.09-2.48,40.04-22.2,43.49-4.17.73-8.61-.53-12.13.27-5.55,1.26-8.1,6.86-11.34,10.98-1.86,2.37-5.76,4.41-6.47,8.43-.26,2.66,12.02,6.36,14.55,6.7,14.01,1.93,35.39-4.25,45.29-14.67,2.63-2.76,3.15-5.39,2.84-9.13-1.36-.35-.38,1.42-1.35,1.67-5.89,1.48-14.7-4.75-5.58-7.37,4.02-1.16,7.81-.52,11.9-2.16,9.83-3.94,21.36-17.67,23.09-28.17.4-2.43,1.17-15.05-.72-16.54-6.82,1.4-21.94.98-25.27-6.12-4.7-10.01-3-27.18-3.67-38.49-1.17-19.6-5.94-41.66-20.27-56.61-10.08-10.52-26.15-11.73-38.47-18.57-6.08-3.37-10.98-8.61-17.44-11.49-41.77-18.69-115.76-1.32-141.41,37.79-10.18,15.52-16.55,33.66-11.2,51.99,1.4,4.8,5.34,9,5.57,13.86h0ZM991.82,45.48l5.79-1.65-2.47,1.66,2.47.82c-2.49,4.5-3.32,1.6-5.79-.83Z"/>
          <path class="cls-2" d="M974.45,205.84c.31-1.28-1.17-.46-1.63-1.41-3.94-8.27-8.23-19.12-9.73-28.14-.65-3.9.54-8.12-1.45-11.77l-10.39,7.79-5.35,2.08c-.32,15.02,11.91,33.44,28.54,31.45h.01Z"/>
          <path class="cls-2" d="M991.82,45.48c2.46,2.43,3.3,5.33,5.79.83l-2.47-.82,2.47-1.66s-5.79,1.65-5.79,1.65Z"/>
        </g>
        <g>
          <path class="cls-4" d="M1245.19,404.25c3.21-.35,6.32-2.36,8.04-5.19,10.06-16.57-13.02-29.83-26.63-32.01-1.06-1.19,4.03-4.42,4.92-5.58,4.13-5.41,13.05-19.95,13.88-26.46,1.01-7.98-2.82-11.24-9.69-13.83,1.08-3.37,6.77-4.71,7.82-7.04,1.17-2.6-.47-6.72.96-8.33,7.67-2.76,15.74-4.58,23.17-8.05,16.47-7.68,27.41-20.2,25.79-39.3-1.48-17.4-15.28-28.5-31.3-32.36-9.31-2.24-17.74-2.57-27.28-2.06-.39-1.58.58-1.59,1.38-2.33,16.97-15.42,31.55-33.16,40.12-54.95,9.06-23.05,17.2-70.44,5.99-93.14-.89-1.81-8.25-9.58-9.96-10.67-16.2-10.37-43.07,2.59-57.48,11.77-7.6,4.84-13.67,10.48-18.9,17.88-1.85-16.52-4.92-30.49-14.88-44.01-8.12-11.02-17.67-17.5-30.58-22.57-1.79-.7-4.57.55-4.16-2.03l-.82,1.64c-2.17.72-1.3-1.15-2.25-1.62-5.04-2.49-6.48-3.19-11.16-6.02-19.88-12.03-38.29-19.38-62.02-17.77-31.9,2.17-71.61,12.7-94.78,35.84-15.71,15.68-29.41,48.47-23.66,70.6,1.62,6.22,9.8,18.47,10.35,22.8.28,2.26-.82,4.29-.86,6.51-.11,6.91.17,13.85-.29,20.72-4.29,5.07-10.91,6.59-16.37,9.56-.54.29-.54,1.04-1.34,1.51-.67.39-1.9-.38-2.72.57-1.2,1.4-2.48,7.76-2.45,9.82.21,13.35,14.95,33.77,28.8,35.75,4.49.64,8.77-.45,13.22.87,3.53,1.04,11.84,11.08,16.49,14.07,8.01,5.15,19.63,9.55,29.18,9.26-.88,2.56-4.05,2.26-5.56,3.1-28.02,15.48-48.91,22.4-81.24,10.53-11.01-4.04-26.69-16.72-37.79-16.72-2.99,0-2.9,2.82-6.73-1.6s-13.83-24.76-16.79-31.15c-1.32-2.85-4.1-9.05-4.7-11.85-.35-1.63-.01-.84,1.01-1.18,7.02-2.38,17.14-1.68,12.04-13.33-.29-.65-1.3-.78-1.57-1.26-1.37-2.51-6.36-9.7-6.64-11.43-.8-4.94,5.85-10.99,2.29-17.98-3.86-7.58-16.33-1.79-22.56-.51-13.34-11.07-23.9-18.46-25.27,5.31-.14,2.38,1.12,5.24.57,7.06-1.1,3.66-12.85,5.64-13.46,13.72-.92,12.05,13.77,9.76,17.68,14.59,3.61,4.45.72,15.38,11.16,18.25,7.25,1.99,9.62-7.74,14.69-10.21,7.91,16.58,16.76,32.42,25.52,48.57.46,2.85-5.56,10.8-5.62,15.6-.03,1.99,1.24,2.88,1.37,4.14.12,1.11-.73,2.36-.44,3.8,2.3,11.41,11.46,21.61,22.4,25.62,2.98,1.09,7.44.84,10.14,3.09,2.13,1.78,6.97,13.16,8.36,14.15,1.09.78,3.36.91,4.72.68,3.66-1.25.72-12.85-.29-15.63,7.01,2.21,13.56,5.71,20.66,7.85,30.26,9.11,45.79,5.18,74.21-3.65,1.63-.51,4.18-.47,5.97-.9,1.51,7.68,2.54,15.73,4.37,23.34,8.55,35.54,22.87,65.27,44.39,94.49,3.47,4.71,6.35,9.16,10.35,12.77,4.58,4.13,10.23,11.44,17.15,10.62,10.42-1.23,23.38-14.26,26.2-24.3l2.06-.36c10.38,6.09,20.08,11.67,31.46,15.73,18.33,6.55,38.06,10.47,56.43,17.14,19.84,1.91,23.09-13.2,14.42-28.47-2.88-5.08-7.71-8.66-10.9-13.49,6.22-.48,13.32.66,19.43,0l-.02.02ZM966.2,119.87c-.23-4.87-4.17-9.07-5.57-13.86-5.35-18.34,1.02-36.47,11.2-51.99,25.65-39.11,99.64-56.48,141.41-37.79,6.46,2.89,11.36,8.12,17.44,11.49,12.33,6.83,28.39,8.04,38.47,18.57,14.33,14.96,19.1,37.01,20.27,56.61.68,11.31-1.02,28.48,3.67,38.49,3.33,7.1,18.45,7.51,25.27,6.12,1.89,1.49,1.12,14.1.72,16.54-1.73,10.5-13.25,24.23-23.09,28.17-4.08,1.64-7.87,1-11.9,2.16-9.12,2.62-.31,8.85,5.58,7.37.97-.24,0-2.02,1.35-1.67.3,3.74-.22,6.36-2.84,9.13-9.91,10.42-31.28,16.6-45.29,14.67-2.53-.35-14.8-4.04-14.55-6.7.72-4.02,4.61-6.06,6.47-8.43,3.23-4.12,5.78-9.72,11.34-10.98,3.52-.8,7.96.46,12.13-.27,19.71-3.45,29.78-25.4,22.2-43.49-1.88-4.47-7.96-8.97-12.37-10.77-3.63-1.48-15.44-.96-19.42.03-3.61.9-9.51,3.12-10.14,7.21-6.24-8.44-13.05-15.08-17.25-24.91-8.19-19.17-7.06-31.47-3.79-51.51.25-1.54,3.33-4.28-.62-5.33-1.93-.51-5.11,3.43-6.46,4.86-5.25,5.54-8.41,10.81-14.02,15.7-19.03,16.59-45.05,30.41-70.93,21.32-6.96-2.44-11.53-5.21-14.43-12.02-3.64-8.54-4.62-19.55,3.06-26.26,4.29-3.75,14.11-5.2,18.53-1.12,2.83,2.61,2.49,6.38-.96,7.98-2.9,1.35-9.87-1.69-8,3.53,2.55,7.11,19.13,3.12,17.57-8.49-2-14.97-23.59-16.23-32.82-6.75-6.19,6.36-5.72,15.16-7.44,23.15-4.52,2.38-10.05,4.34-14.4,7.09-3.93,2.49-7.33,6.72-11.72,8.94l-8.67,13.22h0ZM1210.57,88.96c20.65-17.51,63.12-38.1,68.73,4.26,1.7,12.84-1.41,34.63-4.16,47.5-7.03,32.86-23.71,55.81-48.11,78.37-3.2,2.96-17.43,12.99-17.71,16.24,1.74,5.18,8.4.31,11.99-.46,19.14-4.14,54.74-4.67,62.9,17.94,6.8,18.82-10.92,36.37-28.4,39.72-2.25.43-.44-2.09-.58-3.46-1.73-17.02-27.44-10.08-39.69-11.41-17.39-1.88-48.07-25.55-63.9-35.3-7.02-4.32-14.75-7.92-21.67-12.22-1.72-1.07-3.51-2.69-5.04-4.05,2.36-.67,4.08,1.91,6.42,2.68,4.46,1.46,8.13.84,12.11,1.05.54.03.38,1.47,1.04,1.64,11.06,2.75,30.79-3.66,40.21-10.06,7.19-4.89,16.41-13.47,12.96-22.98,20.54-4.9,33.2-33.63,28.56-52.94-2.85-11.84-18.5-1.5-25.51-6.54-2.3-1.65-3.63-9.97-3.86-12.88s-.87-18.68-.49-20.24c1.33-5.55,9.89-13.2,14.22-16.87h-.02ZM973.63,185.18c-1.54-1.41-2.18-4.01-2.71-5.97-3.02-11.13-2.32-42.61,1.3-53.72,4.69-14.4,17.85-22.16,31.17-27.11.63,8.07,8.05,14.55,15.14,17.52,33.26,13.93,65.85-2.12,87.96-27.21.49-.56-.05-1.59,1.89-1.05-1.2,11.34-.2,21.94,3.08,32.88,4.15,13.87,10.3,22.39,20.14,32.58,1.65,1.71,5.88,6.51,7.81,6.43,3.17-.4,3.13-4.11,5.03-5.68,4.8-3.97,15.38-5.32,21.39-4.21,2.61.48,7.62,6.34,8.44,8.92,4.51,14.13-3.62,29.22-18.57,31.36-11.82,1.69-13.29-1.36-22.5,8.91s-12.16,17.33-26.14,24.28c-33.04,16.42-85.64,14.95-114.8-9.03-3.45-2.84-12.57-12.56-13.66-16.51-.07-.26.06-.57,0-.83-1.49-.71-1.2-2.33-1.65-3.31-.11-.22.1-.59,0-.83-.06-.15-.95-.63-1.65-2.48-.09-.24.08-.58,0-.83s-.55-.75-.83-1.65c-.25-.82-.63-1.52-.83-2.48v.02ZM840.54,142.19c1.65-1.18,11.31,9.26,14.49,9.87,5.48,1.05,11.46-3.23,16.9-4.09,2.89,6.88-2.15,12.79-2.49,19.39.43,2.55,8.38,6.19,9.11,11.65.22,1.6-.25.99-1.05,1.4-4.92,2.55-12.63-1.04-17.14,1.04-4.05,1.88-6.74,13.61-10.4,14.43-3.24.73-6.38-16.02-7.13-18.81-5.42-2.22-12.38-1.47-16.34-6.37l12.77-9.52,1.26-19h.02ZM974.45,205.84c-16.63,1.99-28.86-16.43-28.54-31.45l5.35-2.08,10.39-7.79c1.98,3.65.8,7.87,1.45,11.77,1.5,9.02,5.79,19.86,9.73,28.14.45.95,1.94.13,1.63,1.41h-.01ZM1032.32,242.22l7.1,1.63c-.6,11.63,7.5,22.95,19.16,25.42,15.71,3.33,25.6-8.1,33.09-20.18,1.39-2.24,6.46-12.92,7.14-13.53,2.69-2.38,9.46-2.54,12.45-4.9-2.62,9.17-1.25,19.12,1.66,28.08,12.1,37.23,74.14,51.53,107.01,63.29,9.14,3.27,20.63,6.33,15.63,18.05-11.91,27.94-58.65,61.67-89.62,59.24-3.31-.26-14.62-3.7-16.08-2.96-2.01,1.02-1.18,4.22-1.87,6.39-1.73,5.42-7.74,16.68-11.85,20.45-2.02,1.85-10.18,6.16-12.7,5.44-.43-.12-6.61-4.84-7.12-5.33-7.78-7.54-16.01-20.21-21.71-29.54-24.49-40.11-37.14-84.42-41.48-131.3-.61-6.64.31-13.59-.84-20.24h.03ZM1116.64,231.48c18.66,7.64,34.61,20.76,51.83,31.25,10.78,6.57,32.04,20.62,43.76,22.22,8.98,1.22,20.41-.58,29.69.23,3.03.26,5.16.55,5.7,4.07.97,6.36-12.37,7.24-16.03,9.63-1.37.89-2.31,4.64-1.52,6.01.94,1.62,9.31,2.19,6.9,5.98-2.08,3.27-12.14,3.75-15.69,3.22-14.3-2.13-42.15-13.15-55.57-19.66-23.3-11.29-44.44-22.17-48.01-50.36-.54-4.29.55-8.64-1.04-12.59h-.02ZM1045.55,243.05c8.22-.67,16.19.2,24.38-.84,5.94-.75,11.75-2.92,17.78-3.29-5.45,23.85-37.44,34.32-42.16,4.13h0ZM900.88,243.05c1.44,0,2.92-.21,4.35.19,7.17,2.05,17.95,10.3,25.22,13.64,28.4,13.04,56.05,10.89,83.43-2.95,1.45-.73,11.2-7.49,11.84-6.76l2.49,41.33c-4.76-.45-8.71,2.59-13.05,3.9-19.79,5.96-42.59,6.62-62.54,1.01-6.05-1.7-25.22-8.94-29.35-12.81-2.55-2.39-2.42-5.35-2.89-6.13-.54-.9-3.09-1.6-3.76-2.92l2.47-1.23c-4.61-.28-15.77-.33-15.63-6.94.19-8.85,9.33-1.02,13.63-.57,1.11.12,2.4.61,1.91-1.08.45-7.6-14.29-8.98-16.05-11.25-1.02-1.32-.73-5.68-2.05-7.45l-.02.02ZM893.72,272.54c-1.07-1.7-3.25-6.6-3.54-8.46-.34-2.18-.19-10.28.32-12.36.37-1.49,4.15-3.31,5.41-4.54.03,2.23.57,6.49,3.31,6.63-10.56,10.4-.07,19.86,10.65,23.23l.16,3.59-2.54.45c-.42.35,2.18,4.12-.39,3.29-1.14-.37-8.99-6.51-10.1-7.67-.19-.2-3.13-3.93-3.28-4.16h0ZM1219.32,372.19c2.68-1.56,13.15,3.93,15.97,5.58,5.73,3.34,21.99,13.91,7.05,17.01-9.11,1.89-20.15.67-29.15-1.53-4.14-1.01-8.05-2.98-12.23-3.9-.67-.86,12.09-10.15,13.24-11.14,1.47-1.27,4.78-5.83,5.12-6.03h0ZM1143.51,406.73c4.94.17,9.94,0,14.88,0,2.55,0,12.79-3.05,15.73-4.11,6.4-2.3,12.12-6.12,18.21-9.12.83-.08,14.24,5.25,15.5,5.99,3.07,1.81,12.34,10.17,15.07,13,5.4,5.59,19.51,23.84,5,25.58-28.97-9.34-60.8-13.49-86.06-31.33-.83-2.26,1.53,0,1.66,0h.01Z"/>
          <path class="cls-1" d="M1032.32,242.22c1.15,6.66.23,13.6.84,20.24,4.34,46.87,16.99,91.18,41.48,131.3,5.7,9.33,13.93,22.01,21.71,29.54.51.49,6.69,5.21,7.12,5.33,2.52.72,10.68-3.59,12.7-5.44,4.11-3.76,10.12-15.03,11.85-20.45.69-2.17-.14-5.38,1.87-6.39,1.46-.74,12.77,2.7,16.08,2.96,30.97,2.43,77.71-31.3,89.62-59.24,5-11.73-6.5-14.78-15.63-18.05-32.87-11.76-94.91-26.06-107.01-63.29-2.91-8.96-4.28-18.91-1.66-28.08-3,2.35-9.77,2.52-12.45,4.9-.68.6-5.75,11.29-7.14,13.53-7.49,12.08-17.38,23.5-33.09,20.18-11.66-2.47-19.76-13.78-19.16-25.42l-7.1-1.63h-.03Z"/>
          <path class="cls-6" d="M978.59,197.58c1.09,3.95,10.21,13.67,13.66,16.51,29.16,23.99,81.75,25.45,114.8,9.03,13.99-6.95,16.51-13.54,26.14-24.28s10.68-7.22,22.5-8.91c14.94-2.14,23.07-17.23,18.57-31.36-.82-2.58-5.83-8.43-8.44-8.92-6.01-1.11-16.59.24-21.39,4.21-1.89,1.57-1.85,5.28-5.03,5.68-1.93.08-6.16-4.72-7.81-6.43-9.84-10.19-15.99-18.71-20.14-32.58-3.28-10.95-4.27-21.54-3.08-32.88-1.93-.53-1.39.49-1.89,1.05-22.12,25.09-54.7,41.14-87.96,27.21-7.09-2.97-14.51-9.45-15.14-17.52-13.32,4.95-26.48,12.71-31.17,27.11-3.62,11.12-4.32,42.6-1.3,53.72.53,1.96,1.17,4.56,2.71,5.97-1.06-5.07-.03-3.04,1.27-6.59.77-2.1-.02-4.31,2.44-5.9l13.66-2.39c-4.6-4.67-6.26-20.22.35-18.17,2.91.9,1.82,14.89,10.81,15.72,11.29,1.05,10.06-12.1,13.35-13.17.93-.3,1.94-.23,2.79.3,3.9,2.37-.62,12.72-3.14,15.32-5.62,5.79-13.96,6.08-20.85,2.48,1.02.75,1.59,2.04,2.29,2.43,1.23.68,3.9.44,4.75,1.69.32.48,2.64,9.99,2.81,11.24s.31,7.27-.06,7.67c-5.48,2.49-7.74,5.53-14.61,3.69-2.16-.58-5.52-3.44-7.16-3.61-.2-.02-1.01,2.98-3.73,1.69h0ZM1008.34,121.54c.07.9.14,1.68-.37,2.5-.86,1.36-11.89,3.65-14.53,4.48-2.57.81-6.5,4.42-8.14,1.57-2.57-8.24,17.53-12.61,23.05-8.55h0ZM1096.52,130.07c1.24,1.27,2.15,3.81,3.48,5.24.18,1.17-1.5,2.73-2.64,2.62-1.6-.15-8.46-5.36-12.08-6.13-4.94-1.04-13.88,2.78-10.18-5.13,3.01-6.44,17.55-.57,21.42,3.39h0ZM1151.64,163.99c2.91-2.07,11.1-5.89,13.7-2.31,3.61,4.97-4.26,5.11-7.38,6.55-6.53,3.01-9.84,14.66-15.6,8.1-.65-2.6,7-10.73,9.27-12.34h.01ZM1094.32,181.05c-1.17.62-6.61,2.47-7.75,2.44-5.72-.13-16.33-4.99-18.15-10.84-.92-2.94-1.88-14.31,3.44-11.28,3.53,7.49,4.58,13.59,14.63,13.16,4.07-.17,8.03-3.3,9.55-7.05,1.02-2.52-.04-5.88,3.17-6.7,2.26-.58,4.19,2.96,4.25,4.95.14,5.3-4.52,12.89-9.14,15.33.36-.22,3.07.23,4.37-.16,1.64-.5,2.07-2.69,4.33-3.13,1.35-.26,8.76-.28,9.8.09,1.37.49,1.2,2.52,2.21,3.57,3.37,3.5,5.3,2.46,4.92,9.11-.3,5.26-6.09,15.13-10.96,17.18-4.91,2.07-19.45,2.47-22.79-2.42-1.36-1.99-3.07-6.36-2.44-8.74,1.24-4.68,6.79-6.68,8.43-8.94.92-1.27,1.83-6.38,2.12-6.56h0ZM1032.52,169.67c.73-.87,3.95-1.33,5.06-.95,3.95,1.36,1.31,15.23-5.25,11.93-2.85-1.43-1.14-9.41.19-10.99h0ZM1061.15,195.21c1.32,2.07-1.94,7.53-3.6,8.99-7.41,6.55-19.26,6.08-27.16.68-3.63-2.48-9.51-9.54-2.12-11.06,6.36,4.95,13.08,10.09,21.17,5.58,2.17-1.21,9.24-8.06,11.7-4.19h.01Z"/>
          <path class="cls-6" d="M900.88,243.05c1.32,1.77,1.03,6.13,2.05,7.45,1.76,2.27,16.49,3.65,16.05,11.25.49,1.69-.8,1.2-1.91,1.08-4.3-.46-13.44-8.29-13.63.57-.15,6.61,11.01,6.66,15.63,6.94l-2.47,1.23c.68,1.32,3.22,2.02,3.76,2.92.47.78.34,3.74,2.89,6.13,4.13,3.87,23.3,11.11,29.35,12.81,19.95,5.61,42.76,4.95,62.54-1.01,4.34-1.31,8.29-4.35,13.05-3.9l-2.49-41.33c-.64-.73-10.38,6.02-11.84,6.76-27.38,13.84-55.02,15.98-83.43,2.95-7.26-3.33-18.04-11.58-25.22-13.64-1.42-.41-2.91-.2-4.35-.19l.02-.02Z"/>
          <path class="cls-6" d="M1116.64,231.48c1.59,3.95.49,8.3,1.04,12.59,3.57,28.19,24.72,39.07,48.01,50.36,13.43,6.51,41.27,17.52,55.57,19.66,3.56.53,13.61.05,15.69-3.22,2.41-3.79-5.95-4.36-6.9-5.98-.79-1.37.15-5.11,1.52-6.01,3.67-2.39,17.01-3.27,16.03-9.63-.54-3.52-2.67-3.81-5.7-4.07-9.28-.81-20.71,1-29.69-.23-11.72-1.6-32.98-15.66-43.76-22.22-17.22-10.49-33.16-23.6-51.83-31.25h.02Z"/>
          <path class="cls-6" d="M1143.51,406.73c-.14,0-2.49-2.26-1.66,0,25.25,17.84,57.09,22,86.06,31.33,14.52-1.75.4-20-5-25.58-2.74-2.83-12-11.2-15.07-13-1.26-.74-14.68-6.07-15.5-5.99-6.09,3-11.81,6.82-18.21,9.12-2.94,1.06-13.17,4.11-15.73,4.11-4.94,0-9.94.17-14.88,0h-.01Z"/>
          <path class="cls-3" d="M973.63,185.18c.2.96.58,1.66.83,2.48l.83,1.65c.08.25-.09.59,0,.83h1.65v2.48c.1.23-.11.6,0,.83h1.65c.17,1.02-.22,2.4,0,3.31.06.26-.07.57,0,.83,2.72,1.29,3.53-1.71,3.73-1.69,1.64.17,5,3.02,7.16,3.61,6.87,1.84,9.14-1.19,14.61-3.69.37-.4.23-6.44.06-7.67s-2.49-10.76-2.81-11.24c-.85-1.26-3.52-1.02-4.75-1.69-.71-.39-1.27-1.68-2.29-2.43s-2.51-1.68-3.31-2.48l-13.66,2.39c-2.46,1.59-1.67,3.8-2.44,5.9-1.3,3.55-2.33,1.53-1.27,6.59h0Z"/>
          <path class="cls-6" d="M1219.32,372.19c-.34.2-3.65,4.76-5.12,6.03-1.14.99-13.91,10.28-13.24,11.14,4.17.92,8.08,2.89,12.23,3.9,9,2.2,20.04,3.42,29.15,1.53,14.94-3.1-1.32-13.67-7.05-17.01-2.83-1.65-13.3-7.14-15.97-5.58h0Z"/>
          <path class="cls-6" d="M1045.55,243.05c4.71,30.19,36.7,19.72,42.16-4.13-6.03.37-11.84,2.54-17.78,3.29-8.19,1.04-16.16.17-24.38.84h0Z"/>
          <path class="cls-6" d="M976.93,193.45c.46.98.17,2.59,1.65,3.31-.22-.91.17-2.29,0-3.31h-1.65Z"/>
          <path class="cls-6" d="M975.28,190.14c.7,1.85,1.59,2.33,1.65,2.48v-2.48h-1.65Z"/>
          <path class="cls-6" d="M975.28,189.31l-.83-1.65c.27.91.74,1.4.83,1.65Z"/>
          <path class="cls-3" d="M1094.32,181.05c-.29.18-1.2,5.28-2.12,6.56-1.64,2.26-7.19,4.26-8.43,8.94-.63,2.38,1.08,6.75,2.44,8.74,3.33,4.89,17.88,4.49,22.79,2.42,4.87-2.05,10.67-11.92,10.96-17.18.37-6.65-1.55-5.61-4.92-9.11-1.01-1.05-.85-3.09-2.21-3.57-1.04-.37-8.45-.34-9.8-.09-2.26.43-2.69,2.63-4.33,3.13-1.31.4-4.01-.06-4.37.16h0Z"/>
          <path class="cls-4" d="M1094.32,181.05c4.61-2.44,9.28-10.03,9.14-15.33-.05-1.99-1.98-5.53-4.25-4.95-3.21.82-2.15,4.18-3.17,6.7-1.52,3.75-5.48,6.88-9.55,7.05-10.05.43-11.1-5.67-14.63-13.16-5.32-3.03-4.36,8.34-3.44,11.28,1.82,5.85,12.44,10.71,18.15,10.84,1.14.03,6.58-1.82,7.75-2.44h0Z"/>
          <path class="cls-4" d="M994.29,172.78c6.89,3.6,15.22,3.31,20.85-2.48,2.52-2.6,7.04-12.95,3.14-15.32-.84-.53-1.86-.6-2.79-.3-3.3,1.07-2.06,14.22-13.35,13.17-8.99-.83-7.9-14.82-10.81-15.72-6.61-2.06-4.95,13.49-.35,18.17.79.8,2.32,1.75,3.31,2.48h0Z"/>
          <path class="cls-4" d="M1061.15,195.21c-2.46-3.86-9.54,2.98-11.7,4.19-8.09,4.51-14.82-.63-21.17-5.58-7.39,1.53-1.51,8.58,2.12,11.06,7.9,5.4,19.74,5.87,27.16-.68,1.66-1.46,4.92-6.93,3.6-8.99h-.01Z"/>
          <path class="cls-4" d="M1096.52,130.07c-3.87-3.97-18.41-9.84-21.42-3.39-3.7,7.91,5.24,4.09,10.18,5.13,3.62.76,10.48,5.98,12.08,6.13,1.14.11,2.82-1.45,2.64-2.62-1.33-1.43-2.24-3.97-3.48-5.24h0Z"/>
          <path class="cls-4" d="M1151.64,163.99c-2.27,1.61-9.92,9.74-9.27,12.34,5.76,6.56,9.06-5.09,15.6-8.1,3.12-1.44,10.99-1.58,7.38-6.55-2.6-3.58-10.79.24-13.7,2.31h-.01Z"/>
          <path class="cls-4" d="M1008.34,121.54c-5.52-4.06-25.62.31-23.05,8.55,1.64,2.86,5.57-.76,8.14-1.57,2.64-.83,13.68-3.12,14.53-4.48.51-.82.44-1.6.37-2.5h0Z"/>
          <path class="cls-4" d="M1032.52,169.67c-1.34,1.58-3.05,9.55-.19,10.99,6.57,3.3,9.2-10.58,5.25-11.93-1.11-.38-4.33.08-5.06.95h0Z"/>
        </g>
      </g>
    </g>
  </g>
</svg>