<?xml version="1.0" encoding="UTF-8"?>
<svg id="Layer_1" data-name="Layer 1" xmlns="http://www.w3.org/2000/svg" viewBox="0 0 1693.14 267.41">
  <defs>
    <style>
      .cls-1 {
        fill: #b9e8df;
      }

      .cls-2 {
        fill: #724014;
      }

      .cls-3 {
        fill: #fea9a8;
      }

      .cls-4 {
        fill: #442e23;
      }

      .cls-5 {
        fill: #fed175;
      }

      .cls-6 {
        fill: #fbcdaa;
      }
    </style>
  </defs>
  <g>
    <path class="cls-1" d="M516.61,146.63v53.54c0,.42-1.52,4.4-1.9,5.13-5.51,10.46-22.35,8.84-24.45-3.75-1.6-9.55-.62-29.11-.67-39.81-.08-15.07-1.05-37.15.48-51.46,1.22-11.45,14.13-14.22,22.66-7.83,6.94,5.2,22.06,28.49,27.95,36.89,6.24,8.91,11.6,18.88,18.87,26.83v-56.67c0-.28,1.47-4.64,1.76-5.27,5.15-10.84,22.71-7.34,24.59,3.89,2.57,15.28-1.55,36.31.22,52.21-1.94,11.66.46,25.05-.81,36.71-1.89,17.45-19.93,18.2-29.69,6.27l-39.01-56.69Z"/>
    <path class="cls-1" d="M130.98,178.67v24.62c0,1.33-3.09,5.62-4.41,6.53-8.53,5.87-20.55,1.59-21.95-9.06,1.1-27.21-2.09-56.51-.22-83.48.93-13.32,6.21-20.45,19.91-21.49,18.63-1.42,46.05.51,56.78,18.24,9.95,16.44,7.03,38.48-5.6,52.55-1.48,1.65-5.45,3.72-5.47,5.43,2.6,8.95,15,19.32,13.99,28.86-.77,7.29-7.93,12.32-15.1,11.34-10.86-1.48-17.84-25.71-24.27-33.54h-13.66ZM130.98,125.91v28.53c7.25.75,14.22,1.21,21.11-1.92,10.74-4.88,11.23-24.34-.27-28.72-4.18-1.59-19.71-3.24-20.84,2.11Z"/>
    <path class="cls-1" d="M420.42,99.16c71.99-8.2,74.36,107.16,13.04,112.33-71.32,6.01-70.47-105.78-13.04-112.33ZM425.89,124.95c-26.78,2.48-27.43,52.63-5.47,59.75,38.83,12.6,39.86-62.93,5.47-59.75Z"/>
    <path class="cls-1" d="M245.61,97.58c18.34-.69,23.86,13.25,29.61,27.74,9.12,22.98,14.26,48.83,21.18,72.62.38,10.79-10.16,17.48-20.13,13.1-4.84-2.13-6.61-7.55-8.11-12.2-1.28-3.96-2.27-12.68-3.83-15.71-.45-.87-.69-1.32-1.79-1.33l-31.66-.42c-3.85,8.08-3.52,22.43-10.87,28.2-10.21,8.01-20.99-1.96-20.31-13.29.54-9.02,6.47-27.49,9.16-36.96,3.66-12.88,13.41-48.23,22.46-56.46,3.56-3.24,9.57-5.1,14.31-5.28ZM260.56,158.35c-1.95-5.24-7.29-29.67-10.48-32.1-.73-.56-1.33-.98-2.3-.68-2.59.77-11,26.98-11.42,31.22l24.2,1.57Z"/>
    <path class="cls-1" d="M44.96,93.71c17.12-1.68,44.42,5.43,41.46,27.45-.46,3.43-3.17,7.8-6.51,9.11-9.95,3.93-14.89-5.52-23.44-7.92-36.13-10.15-39.73,63.39-2.39,60.21,8.04-.68,15.67-7.7,23.42-7.03,8.49.74,11.14,9.88,9.43,17.26-2.19,9.47-23.33,17.85-32.07,18.7-70.57,6.9-72.19-111.66-9.91-117.79Z"/>
    <path class="cls-1" d="M333.16,140.37c.86-3.22,2.86-6.91,4.56-9.9,3.24-5.72,13.86-24.96,17.82-28.28,8.24-6.91,21.43-1.18,21.26,9.57-.19,12.26-24.36,39.85-30.01,52.03-2.35,11.03,2.66,32.99-2.09,42.46-3.75,7.48-17.14,8.15-22.03.53-6.34-9.87-.21-31.49-2.96-42.37-.56-2.22-7.23-11.72-9-14.43-6.35-9.73-23.64-29.33-22.86-40.5.64-9.23,11.22-13.01,18.9-8.69,7.32,4.12,24.73,41.3,26.41,39.59Z"/>
  </g>
  <g>
    <path class="cls-2" d="M1022.9,163.67v-59.5c0-.93,4.01-5.91,5.27-6.73,7.35-4.74,19.64-1.19,21.5,7.96-1.66,28.35,3.01,60.9.22,88.76-.56,5.59-3,12.13-8.43,14.58-10.83,4.88-16.53-.27-22.98-8.14-12.06-14.72-26.1-36.19-36.49-52.46-.53-.82.56-2.04-2.09-1.46v54.5c0,1.22-4.1,6.59-5.62,7.38-7.72,3.98-17.69,1.19-20.16-7.6-3.15-11.26-.29-24.45-.18-35.74.12-12.99-2.31-52.75,1.9-62.1,1.72-3.82,6.34-7.12,10.57-7.49,8.44-.73,12.52,3.73,17.32,9.72,14.12,17.57,24.86,40.6,39.17,58.33Z"/>
    <path class="cls-2" d="M1093.7,94.97c35.97-3.17,67.38,12.21,70.19,51.21,3.41,47.42-33.29,70.11-77.25,63.25-12.57-1.96-15.08-13.31-15.79-24.21-1.26-19.32-1.34-48.82,0-68.09,1.18-16.93,6.43-20.72,22.84-22.16ZM1099.9,182.67h16.5c2.56,0,11.49-5.33,13.49-7.51,10.19-11.1,8.26-41.24-5.3-49.68-1.47-.92-7.95-3.81-9.19-3.81h-15.5v61Z"/>
    <path class="cls-2" d="M762.67,94.95c69.29-6.36,76.09,109.7,7.71,115.71-72.82,6.4-74.63-109.57-7.71-115.71ZM761.64,122.91c-26.72,4.54-27.36,65.33,8.68,60.67,28.93-3.74,27.04-66.75-8.68-60.67Z"/>
    <path class="cls-2" d="M1194.64,95.91c13.97-2.34,38.7-.39,51.48,6.05,26.18,13.18,26.06,51.48,1.8,66.29-.47,2.02,13.76,18.38,14.75,23.15,2.88,13.8-9.26,23.94-21.72,16.72l-17.54-29.46c-21.43-6.23-12.62,9.79-14.58,22.45-2.05,13.3-25.34,14.16-26.99-2.89,2.14-27.89-2.7-59.62.06-87.04.81-8.08,4.22-13.85,12.73-15.27ZM1208.9,122.17v29c4.88,3.01,15.85,1.62,21.06-.94,9.79-4.81,9.52-23.29-.66-27.47-3.31-1.36-19.36-3.97-20.41-.59Z"/>
    <path class="cls-2" d="M846.62,95.9c10.82-2.19,16.44,4.11,17.31,14.24,1.44,16.77-4.54,57.17,5.95,69.05,9.1,10.32,28.32,3.3,32.51-9.53,3.72-11.38,1.62-30.53,1.47-42.45-.14-10.87-2.4-31.11,13.53-31.63,9.83-.32,14.76,5.26,15.54,14.55,1.3,15.36,1.16,56.13-2.99,70.08-10.35,34.82-67.3,42.08-85.87,12.77-11.56-18.23-11.08-59.3-9.21-80.86.64-7.33,3.8-14.62,11.76-16.24Z"/>
    <path class="cls-2" d="M656.9,121.67l-.07,21.54c11.86.78,33.3-4.79,34.13,12.95.31,6.6-4.82,13.52-11.56,13.52h-23.5v30.5c0,4.29-8.08,10.2-12.53,10.52-10.83.78-14.7-7.01-15.51-16.49-1.83-21.42-1.4-57.36-.01-79.08.78-12.2,3.58-17.83,16.66-19.34,14.19-1.65,31.17.79,45.65.14,7.88,3.53,10.8,11.59,8.3,19.81-.51,1.66-4.67,5.95-6.05,5.95h-35.5Z"/>
    <path class="cls-2" d="M1294.57,100c4,4.03,13.4,21.25,17.14,27.36,2.28,3.73,4.86,8.15,6.21,12.3,2.69.64,2.72-3.17,4.16-5.33,4.9-7.36,18.8-32.1,23.87-36.13,9.58-7.63,21.52,1.69,19.87,13.88-1.76,12.96-27.61,39.11-33.44,52.55-1.89,11.08,2.23,26.63-.91,37.08-1.84,6.14-7.87,9.42-14.04,8.97-20.43-1.48-9.16-35.38-12.97-48.07-2.94-9.79-24.09-33.59-30.37-44.63-10.21-17.94,9.09-29.47,20.49-17.99Z"/>
  </g>
  <path class="cls-5" d="M1466.5,13.09c-1.98,1.49-2.88,3.99-4.14,5.41-.42.47-1.48.23-1.81,1.31-3.28-.51-10.43-2.48-12.52.8s2.83,6.91,2.82,10.34c0,3.08-3.65,8.23-3.42,11.39.02.34,1.08,1.54,1.17,1.57,2.24.7,9.06-1.9,11.95-1.82.45,1.18,1.58.99,2.3,1.7,1.46,1.43,3.13,7.06,6.63,6.72,4.53-.45,3.38-8.56,4.69-11.56,2.53-1.81,8.87-2.56,8.45-6.47-.36-3.39-7.21-4.56-8.53-7.85s1.82-18.64-7.6-11.55Z"/>
  <path class="cls-3" d="M1436.66,62.98l.14,5.9,6.73,2.72c.76-2.27,2.54-2.86,3.89-4.59l-3.71-6.56-7.05,2.52Z"/>
  <path class="cls-5" d="M1408.9,122.38l-1.79,5.9c1.66.7,2.14,3.03,4.08,3.39,1.65.3,1.31-1.27,1.97-1.43.87-.22,2.16.16,3.13.01.91-6.29-1.35-8.12-7.38-7.87Z"/>
  <path class="cls-1" d="M1421.83,169.78c.03.06.66.02.85.46.29.67,1.14,4.28,1.55,4.57,1.55-.9,5.16.6,6.18-.97.22-.34.83-4.6.73-5.19-.58-3.72-8.04-2.8-9.41.48-.17.29,0,.43.1.65Z"/>
  <path class="cls-5" d="M1397.59,95.18c-2.34-.48-5.85,1.77-3.87,4.4,4.67,6.21,9.26-3.29,3.87-4.4Z"/>
  <path class="cls-3" d="M1423.82,138.26c-2.01-.26-3,1.36-3.08,3.19-.16,4,8.5,2.96,6.19-1.8-.29-.48-2.49-1.31-3.11-1.39Z"/>
  <path class="cls-1" d="M1458.02,74.37c-4.71-1.4-6.09,6.58-.93,5.87,3.58-.5,3.41-5.13.93-5.87Z"/>
  <path class="cls-3" d="M1409.96,158.85c1.1.78,2.61.79,3.72,0,1.04-2.45,1.01-4.73-2.03-5.22-2.61.72-2.9,3.02-1.69,5.22Z"/>
  <path class="cls-5" d="M1418.33,59.01c-1.36,2.5-.6,6.7,2.89,5.12s.7-6.5-2.89-5.12Z"/>
  <path class="cls-5" d="M1401.54,77.64c2.73,2.74,6.43-2.86,2.85-4.6-2.96-1.44-4.69,2.75-2.85,4.6Z"/>
  <g>
    <path class="cls-1" d="M1643.39,53.29c-2.59,2.2-7.72,6.78-8.52,10.1-.22.93.16,10.45.29,12.12s.94,6.72,2.31,7.71c4.2,3.02,13.57-3.18,15.28,3.92,2.78,11.57-4.8,28.78-17.11,31.72,2.07,5.7-3.46,10.84-7.76,13.77-5.64,3.84-17.46,7.68-24.09,6.03-.4-.1-.3-.96-.63-.98-2.38-.13-4.58.25-7.25-.63-1.4-.46-2.43-2.01-3.84-1.6.92.81,1.99,1.79,3.02,2.43,4.15,2.57,8.78,4.73,12.98,7.32,9.48,5.84,27.86,20.02,38.28,21.15,7.34.8,22.74-3.36,23.78,6.83.08.82-1,2.33.35,2.07,10.48-2.01,21.09-12.52,17.02-23.8-4.89-13.55-26.21-13.22-37.68-10.75-2.15.46-6.14,3.38-7.18.28.17-1.94,8.69-7.95,10.61-9.73,14.61-13.52,24.61-27.26,28.82-46.95,1.65-7.71,3.51-20.76,2.49-28.46-3.36-25.38-28.8-13.04-41.17-2.55Z"/>
    <g>
      <path class="cls-5" d="M1421.73,85.19l-.75,11.38-7.65,5.7c2.37,2.93,6.54,2.48,9.79,3.81.45,1.67,2.33,11.71,4.27,11.27,2.19-.49,3.8-7.52,6.23-8.64,2.7-1.25,7.32.9,10.27-.62.48-.25.76.12.63-.84-.44-3.27-5.21-5.45-5.46-6.98.2-3.95,3.22-7.5,1.49-11.62-3.26.51-6.84,3.08-10.12,2.45-1.9-.36-7.7-6.62-8.68-5.91Z"/>
      <path class="cls-6" d="M1453.59,163.27c.09.14,1.85,2.37,1.96,2.49.67.69,5.37,4.37,6.05,4.59,1.54.5-.01-1.76.24-1.97l1.52-.27-.09-2.15c-6.42-2.01-12.71-7.68-6.38-13.91-1.64-.08-1.96-2.63-1.98-3.97-.75.74-3.02,1.82-3.24,2.72-.3,1.25-.39,6.1-.19,7.4.17,1.12,1.48,4.05,2.12,5.07Z"/>
    </g>
    <g>
      <path class="cls-2" d="M1497,71.81l5.19-7.92c2.63-1.33,4.67-3.87,7.02-5.36,2.61-1.65,5.92-2.82,8.63-4.25,1.03-4.78.75-10.06,4.46-13.87,5.53-5.68,18.46-4.93,19.66,4.04.93,6.96-9,9.35-10.53,5.09-1.12-3.13,3.05-1.31,4.79-2.12,2.07-.96,2.27-3.22.57-4.78-2.65-2.44-8.53-1.57-11.1.67-4.6,4.02-4.02,10.62-1.83,15.73,1.74,4.08,4.47,5.74,8.65,7.2,15.5,5.44,31.09-2.83,42.49-12.77,3.36-2.93,5.26-6.08,8.4-9.41.81-.86,2.71-3.22,3.87-2.91,2.37.63.52,2.27.37,3.19-1.95,12-2.63,19.38,2.27,30.86,2.52,5.89,6.6,9.86,10.34,14.92.38-2.45,3.91-3.78,6.07-4.32,2.38-.59,9.46-.9,11.63-.02,2.64,1.08,6.29,3.77,7.41,6.45,4.54,10.84-1.49,23.98-13.3,26.05-2.5.44-5.16-.32-7.27.16-3.33.76-4.85,4.11-6.79,6.58-1.11,1.42-3.45,2.64-3.88,5.05-.15,1.59,7.2,3.81,8.71,4.02,8.39,1.15,21.2-2.55,27.13-8.79,1.58-1.66,1.88-3.23,1.7-5.47-.81-.21-.23.85-.81,1-3.53.89-8.81-2.84-3.34-4.41,2.41-.69,4.68-.31,7.13-1.29,5.89-2.36,12.8-10.58,13.83-16.87.24-1.46.7-9.02-.43-9.91-4.08.84-13.14.59-15.14-3.67-2.81-6-1.8-16.28-2.2-23.06-.7-11.74-3.56-24.95-12.14-33.91-6.04-6.3-15.66-7.03-23.05-11.12-3.64-2.02-6.58-5.16-10.45-6.89-25.02-11.2-69.35-.79-84.71,22.64-6.1,9.3-9.91,20.16-6.71,31.15.84,2.87,3.2,5.39,3.34,8.31ZM1512.35,27.25l3.47-.99-1.48.99,1.48.49c-1.49,2.7-1.99.96-3.47-.49Z"/>
      <path class="cls-2" d="M1501.95,123.31c.19-.77-.7-.28-.97-.85-2.36-4.96-4.93-11.45-5.83-16.86-.39-2.34.32-4.87-.87-7.05l-6.23,4.67-3.2,1.24c-.19,9,7.13,20.03,17.1,18.84Z"/>
      <path class="cls-6" d="M1512.35,27.25c1.48,1.45,1.98,3.19,3.47.49l-1.48-.49,1.48-.99-3.47.99Z"/>
    </g>
    <g>
      <path class="cls-4" d="M1664.13,242.17c1.92-.21,3.78-1.41,4.81-3.11,6.03-9.92-7.8-17.87-15.96-19.18-.63-.71,2.41-2.65,2.95-3.34,2.48-3.24,7.82-11.95,8.32-15.85.61-4.78-1.69-6.73-5.81-8.29.65-2.02,4.06-2.82,4.69-4.22.7-1.56-.28-4.02.58-4.99,4.6-1.66,9.43-2.74,13.88-4.82,9.87-4.6,16.42-12.1,15.45-23.55-.88-10.43-9.16-17.08-18.75-19.38-5.58-1.34-10.63-1.54-16.34-1.24-.23-.95.34-.95.83-1.39,10.17-9.23,18.9-19.87,24.03-32.92,5.43-13.81,10.3-42.2,3.59-55.79-.53-1.08-4.95-5.74-5.97-6.39-9.71-6.21-25.8,1.55-34.44,7.05-4.55,2.9-8.19,6.28-11.32,10.71-1.11-9.89-2.95-18.26-8.91-26.37-4.86-6.6-10.59-10.48-18.32-13.52-1.07-.42-2.74.33-2.49-1.21l-.49.98c-1.3.43-.78-.69-1.35-.97-3.02-1.49-3.88-1.91-6.69-3.61-11.91-7.2-22.94-11.61-37.15-10.65-19.11,1.3-42.9,7.61-56.78,21.47-9.41,9.4-17.62,29.04-14.17,42.29.97,3.73,5.87,11.07,6.2,13.66.17,1.36-.49,2.57-.51,3.9-.07,4.14.1,8.29-.18,12.41-2.57,3.03-6.53,3.95-9.81,5.73-.32.18-.33.62-.8.9-.4.23-1.14-.23-1.63.34-.72.84-1.49,4.65-1.47,5.88.12,8,8.96,20.23,17.25,21.42,2.69.38,5.25-.27,7.92.52,2.11.62,7.09,6.64,9.88,8.43,4.8,3.09,11.76,5.72,17.48,5.55-.53,1.53-2.43,1.36-3.33,1.86-16.79,9.27-29.3,13.42-48.67,6.31-6.59-2.42-15.99-10.01-22.64-10.01-1.79,0-1.74,1.69-4.03-.96-2.32-2.68-8.29-14.83-10.06-18.66-.79-1.71-2.46-5.42-2.82-7.1-.21-.97,0-.5.6-.71,4.2-1.43,10.27-1,7.21-7.98-.17-.39-.78-.47-.94-.75-.82-1.5-3.81-5.81-3.98-6.85-.48-2.96,3.5-6.59,1.37-10.77-2.31-4.54-9.78-1.07-13.52-.31-7.99-6.63-14.32-11.06-15.14,3.18-.08,1.42.67,3.14.34,4.23-.66,2.19-7.7,3.38-8.07,8.22-.55,7.22,8.25,5.85,10.59,8.74,2.16,2.67.43,9.22,6.68,10.93,4.34,1.19,5.76-4.64,8.8-6.12,4.74,9.93,10.04,19.42,15.29,29.1.28,1.71-3.33,6.47-3.37,9.34-.02,1.19.74,1.73.82,2.48.07.67-.44,1.41-.26,2.28,1.38,6.83,6.87,12.95,13.42,15.35,1.79.66,4.46.5,6.07,1.85,1.27,1.07,4.18,7.88,5.01,8.47.65.47,2.01.54,2.83.41,2.19-.75.43-7.7-.17-9.36,4.2,1.32,8.13,3.42,12.38,4.7,18.13,5.45,27.43,3.1,44.46-2.18.98-.3,2.5-.28,3.58-.54.9,4.6,1.52,9.42,2.62,13.98,5.12,21.29,13.7,39.1,26.59,56.6,2.08,2.82,3.8,5.49,6.2,7.65,2.75,2.47,6.13,6.85,10.27,6.36,6.24-.74,14.01-8.54,15.69-14.56l1.23-.21c6.22,3.65,12.03,6.99,18.85,9.43,10.98,3.92,22.8,6.27,33.8,10.27,11.89,1.14,13.83-7.91,8.64-17.06-1.73-3.04-4.62-5.19-6.53-8.08,3.73-.29,7.98.39,11.64,0ZM1497,71.81c-.14-2.91-2.5-5.43-3.34-8.31-3.2-10.98.61-21.85,6.71-31.15,15.37-23.43,59.69-33.83,84.71-22.64,3.87,1.73,6.8,4.87,10.45,6.89,7.38,4.09,17.01,4.82,23.05,11.12,8.58,8.96,11.44,22.17,12.14,33.91.41,6.77-.61,17.06,2.2,23.06,2,4.25,11.05,4.5,15.14,3.67,1.13.89.67,8.45.43,9.91-1.03,6.29-7.94,14.51-13.83,16.87-2.45.98-4.72.6-7.13,1.29-5.46,1.57-.19,5.3,3.34,4.41.58-.15,0-1.21.81-1,.18,2.24-.13,3.81-1.7,5.47-5.93,6.24-18.74,9.94-27.13,8.79-1.52-.21-8.87-2.42-8.71-4.02.43-2.41,2.76-3.63,3.88-5.05,1.94-2.47,3.46-5.82,6.79-6.58,2.11-.48,4.77.27,7.27-.16,11.81-2.07,17.84-15.21,13.3-26.05-1.12-2.68-4.77-5.37-7.41-6.45-2.17-.89-9.25-.58-11.63.02-2.16.54-5.69,1.87-6.07,4.32-3.74-5.06-7.82-9.03-10.34-14.92-4.91-11.48-4.23-18.86-2.27-30.86.15-.92,2-2.57-.37-3.19-1.16-.31-3.06,2.06-3.87,2.91-3.15,3.32-5.04,6.47-8.4,9.41-11.4,9.94-26.99,18.22-42.49,12.77-4.17-1.46-6.9-3.12-8.65-7.2-2.18-5.11-2.77-11.71,1.83-15.73,2.57-2.25,8.45-3.11,11.1-.67,1.7,1.56,1.49,3.82-.57,4.78-1.74.81-5.91-1.01-4.79,2.12,1.53,4.26,11.46,1.87,10.53-5.09-1.2-8.97-14.13-9.72-19.66-4.04-3.71,3.81-3.43,9.08-4.46,13.87-2.71,1.42-6.02,2.6-8.63,4.25-2.36,1.49-4.39,4.03-7.02,5.36l-5.19,7.92ZM1643.39,53.29c12.37-10.49,37.81-22.82,41.17,2.55,1.02,7.69-.84,20.75-2.49,28.46-4.21,19.68-14.21,33.43-28.82,46.95-1.92,1.77-10.44,7.78-10.61,9.73,1.04,3.1,5.03.19,7.18-.28,11.47-2.48,32.79-2.8,37.68,10.75,4.07,11.28-6.54,21.79-17.02,23.8-1.35.26-.26-1.25-.35-2.07-1.04-10.2-16.44-6.04-23.78-6.83-10.42-1.13-28.8-15.31-38.28-21.15-4.2-2.59-8.84-4.75-12.98-7.32-1.03-.64-2.1-1.61-3.02-2.43,1.41-.4,2.44,1.15,3.84,1.6,2.67.88,4.87.5,7.25.63.32.02.23.88.63.98,6.62,1.65,18.45-2.19,24.09-6.03,4.31-2.93,9.83-8.07,7.76-13.77,12.31-2.94,19.89-20.15,17.11-31.72-1.71-7.09-11.08-.9-15.28-3.92-1.38-.99-2.18-5.97-2.31-7.71s-.52-11.19-.29-12.12c.8-3.32,5.92-7.91,8.52-10.1ZM1501.46,110.94c-.92-.84-1.3-2.4-1.62-3.58-1.81-6.66-1.39-25.52.78-32.18,2.81-8.62,10.69-13.28,18.67-16.24.38,4.84,4.82,8.72,9.07,10.5,19.93,8.34,39.45-1.27,52.69-16.3.3-.33-.03-.95,1.13-.63-.72,6.79-.12,13.14,1.84,19.7,2.49,8.31,6.17,13.41,12.06,19.52.99,1.03,3.52,3.9,4.68,3.85,1.9-.24,1.88-2.46,3.01-3.4,2.88-2.38,9.21-3.18,12.82-2.52,1.57.29,4.57,3.8,5.06,5.34,2.7,8.46-2.17,17.5-11.12,18.79-7.08,1.02-7.96-.81-13.48,5.34s-7.28,10.38-15.66,14.55c-19.79,9.84-51.3,8.96-68.77-5.41-2.07-1.7-7.53-7.52-8.19-9.89-.04-.15.04-.34,0-.5-.89-.43-.72-1.4-.99-1.98-.06-.13.06-.36,0-.5-.04-.09-.57-.38-.99-1.49-.05-.14.05-.35,0-.5s-.33-.45-.5-.99c-.15-.49-.37-.91-.5-1.49ZM1421.73,85.19c.99-.71,6.78,5.55,8.68,5.91,3.28.63,6.86-1.94,10.12-2.45,1.73,4.12-1.29,7.66-1.49,11.62.25,1.53,5.02,3.71,5.46,6.98.13.96-.15.59-.63.84-2.95,1.53-7.57-.62-10.27.62-2.43,1.12-4.04,8.15-6.23,8.64-1.94.44-3.82-9.6-4.27-11.27-3.25-1.33-7.42-.88-9.79-3.81l7.65-5.7.75-11.38ZM1501.95,123.31c-9.97,1.19-17.29-9.84-17.1-18.84l3.2-1.24,6.23-4.67c1.19,2.18.48,4.71.87,7.05.9,5.4,3.47,11.9,5.83,16.86.27.57,1.16.08.97.85ZM1536.62,145.11l4.26.98c-.36,6.97,4.49,13.75,11.48,15.23,9.41,1.99,15.34-4.85,19.83-12.09.83-1.34,3.87-7.74,4.28-8.1,1.61-1.43,5.67-1.52,7.46-2.93-1.57,5.49-.75,11.45.99,16.82,7.25,22.3,44.41,30.87,64.1,37.91,5.47,1.96,12.36,3.79,9.37,10.81-7.13,16.74-35.13,36.94-53.69,35.49-1.98-.16-8.76-2.22-9.63-1.78-1.21.61-.71,2.53-1.12,3.83-1.04,3.25-4.64,9.99-7.1,12.25-1.21,1.11-6.1,3.69-7.61,3.26-.26-.07-3.96-2.9-4.26-3.19-4.66-4.52-9.59-12.11-13-17.7-14.67-24.03-22.25-50.57-24.85-78.65-.37-3.98.18-8.14-.5-12.13ZM1587.13,138.67c11.18,4.58,20.73,12.44,31.05,18.72,6.46,3.93,19.2,12.35,26.21,13.31,5.38.73,12.23-.35,17.79.13,1.81.16,3.09.33,3.41,2.44.58,3.81-7.41,4.34-9.61,5.77-.82.54-1.39,2.78-.91,3.6.56.97,5.57,1.31,4.13,3.58-1.25,1.96-7.27,2.25-9.4,1.93-8.57-1.28-25.25-7.88-33.29-11.77-13.96-6.76-26.62-13.28-28.76-30.17-.33-2.57.33-5.18-.62-7.54ZM1544.54,145.6c4.92-.4,9.7.12,14.6-.5,3.56-.45,7.04-1.75,10.65-1.97-3.27,14.29-22.43,20.56-25.25,2.48ZM1457.88,145.61c.86,0,1.75-.13,2.6.12,4.3,1.23,10.75,6.17,15.11,8.17,17.02,7.81,33.58,6.52,49.98-1.76.87-.44,6.71-4.48,7.09-4.05l1.49,24.76c-2.85-.27-5.22,1.55-7.82,2.34-11.85,3.57-25.51,3.97-37.47.61-3.62-1.02-15.11-5.36-17.58-7.68-1.53-1.43-1.45-3.2-1.73-3.67-.32-.54-1.85-.96-2.26-1.75l1.48-.73c-2.76-.17-9.45-.2-9.36-4.16.12-5.3,5.59-.61,8.17-.34.67.07,1.44.37,1.14-.65.27-4.55-8.56-5.38-9.61-6.74-.61-.79-.44-3.4-1.23-4.46ZM1453.59,163.27c-.64-1.02-1.95-3.95-2.12-5.07-.2-1.31-.11-6.16.19-7.4.22-.89,2.49-1.98,3.24-2.72.02,1.34.34,3.89,1.98,3.97-6.33,6.23-.04,11.9,6.38,13.91l.09,2.15-1.52.27c-.25.21,1.31,2.47-.24,1.97-.68-.22-5.38-3.9-6.05-4.59-.11-.12-1.88-2.35-1.96-2.49ZM1648.64,222.97c1.6-.93,7.87,2.36,9.57,3.34,3.43,2,13.18,8.33,4.22,10.19-5.46,1.13-12.07.4-17.46-.91-2.48-.61-4.83-1.78-7.32-2.34-.4-.51,7.25-6.08,7.93-6.67.88-.76,2.86-3.49,3.07-3.61ZM1603.22,243.66c2.96.1,5.95,0,8.91,0,1.53,0,7.66-1.83,9.42-2.46,3.84-1.38,7.26-3.67,10.91-5.47.5-.05,8.53,3.14,9.29,3.59,1.84,1.08,7.39,6.09,9.03,7.79,3.23,3.35,11.69,14.28,2.99,15.33-17.36-5.59-36.42-8.08-51.55-18.77-.49-1.35.91,0,1,0Z"/>
      <path class="cls-1" d="M1536.62,145.11c.69,3.99.14,8.15.5,12.13,2.6,28.08,10.18,54.62,24.85,78.65,3.41,5.59,8.34,13.18,13,17.7.31.3,4.01,3.12,4.26,3.19,1.51.43,6.4-2.15,7.61-3.26,2.46-2.25,6.06-9,7.1-12.25.42-1.3-.08-3.22,1.12-3.83.87-.44,7.65,1.62,9.63,1.78,18.55,1.45,46.55-18.75,53.69-35.49,2.99-7.02-3.89-8.86-9.37-10.81-19.69-7.04-56.86-15.61-64.1-37.91-1.74-5.37-2.56-11.33-.99-16.82-1.79,1.41-5.85,1.51-7.46,2.93-.41.36-3.45,6.76-4.28,8.1-4.49,7.24-10.41,14.08-19.83,12.09-6.99-1.48-11.84-8.26-11.48-15.23l-4.26-.98Z"/>
      <path class="cls-6" d="M1504.43,118.37c.65,2.37,6.12,8.19,8.19,9.89,17.47,14.37,48.97,15.25,68.77,5.41,8.38-4.16,9.89-8.11,15.66-14.55s6.4-4.32,13.48-5.34c8.95-1.28,13.82-10.32,11.12-18.79-.49-1.54-3.49-5.05-5.06-5.34-3.6-.67-9.94.14-12.82,2.52-1.14.94-1.11,3.16-3.01,3.4-1.16.05-3.69-2.83-4.68-3.85-5.89-6.11-9.58-11.21-12.06-19.52-1.96-6.56-2.56-12.91-1.84-19.7-1.16-.32-.83.3-1.13.63-13.25,15.03-32.77,24.64-52.69,16.3-4.25-1.78-8.69-5.66-9.07-10.5-7.98,2.96-15.86,7.61-18.67,16.24-2.17,6.66-2.59,25.52-.78,32.18.32,1.18.7,2.73,1.62,3.58-.64-3.03-.02-1.82.76-3.95.46-1.26-.01-2.58,1.46-3.53l8.18-1.43c-2.76-2.8-3.75-12.11.21-10.88,1.74.54,1.09,8.92,6.47,9.42,6.77.63,6.02-7.25,8-7.89.56-.18,1.16-.14,1.67.18,2.34,1.42-.37,7.62-1.88,9.18-3.37,3.47-8.36,3.64-12.49,1.48.61.45.95,1.22,1.37,1.45.74.41,2.34.26,2.84,1.01.19.29,1.58,5.99,1.68,6.73s.19,4.35-.03,4.59c-3.28,1.49-4.64,3.31-8.75,2.21-1.3-.35-3.3-2.06-4.29-2.16-.12-.01-.61,1.79-2.24,1.01ZM1522.25,72.81c.04.54.08,1.01-.22,1.5-.51.82-7.12,2.19-8.71,2.68s-3.9,2.65-4.88.94c-1.54-4.94,10.5-7.55,13.81-5.12ZM1575.07,77.93c.74.76,1.29,2.28,2.09,3.14.11.7-.9,1.63-1.58,1.57-.96-.09-5.07-3.21-7.24-3.67-2.96-.62-8.32,1.66-6.1-3.07,1.81-3.86,10.51-.34,12.83,2.03ZM1608.1,98.24c1.75-1.24,6.65-3.53,8.21-1.38,2.16,2.97-2.55,3.06-4.42,3.92-3.91,1.8-5.89,8.78-9.34,4.85-.39-1.56,4.19-6.43,5.55-7.39ZM1573.76,108.46c-.7.37-3.96,1.48-4.64,1.46-3.42-.08-9.79-2.99-10.88-6.49-.55-1.76-1.13-8.57,2.06-6.76,2.12,4.49,2.74,8.14,8.76,7.88,2.44-.1,4.81-1.98,5.72-4.22.61-1.51-.03-3.52,1.9-4.01,1.36-.35,2.51,1.77,2.54,2.96.08,3.18-2.71,7.72-5.47,9.18.22-.13,1.84.14,2.62-.1.98-.3,1.24-1.61,2.59-1.87.81-.15,5.25-.17,5.87.05.82.29.72,1.51,1.33,2.14,2.02,2.1,3.17,1.47,2.95,5.46-.18,3.15-3.65,9.06-6.57,10.29s-11.65,1.48-13.65-1.45c-.81-1.19-1.84-3.81-1.46-5.23.75-2.81,4.07-4,5.05-5.36.55-.76,1.09-3.82,1.27-3.93ZM1536.73,101.65c.44-.52,2.36-.8,3.03-.57,2.37.81.79,9.13-3.15,7.15-1.71-.86-.69-5.64.12-6.58ZM1553.88,116.95c.79,1.24-1.16,4.51-2.16,5.39-4.44,3.92-11.54,3.64-16.27.41-2.17-1.49-5.7-5.71-1.27-6.63,3.81,2.96,7.84,6.04,12.68,3.34,1.3-.72,5.54-4.83,7.01-2.51Z"/>
      <path class="cls-6" d="M1457.88,145.61c.79,1.06.62,3.67,1.23,4.46,1.05,1.36,9.88,2.18,9.61,6.74.29,1.01-.48.72-1.14.65-2.58-.27-8.05-4.96-8.17.34-.09,3.96,6.6,3.99,9.36,4.16l-1.48.73c.4.79,1.93,1.21,2.26,1.75.28.47.2,2.24,1.73,3.67,2.47,2.32,13.96,6.66,17.58,7.68,11.95,3.36,25.61,2.97,37.47-.61,2.6-.78,4.97-2.61,7.82-2.34l-1.49-24.76c-.38-.44-6.22,3.61-7.09,4.05-16.4,8.29-32.96,9.58-49.98,1.76-4.35-2-10.81-6.94-15.11-8.17-.85-.24-1.74-.12-2.6-.12Z"/>
      <path class="cls-6" d="M1587.13,138.67c.95,2.37.3,4.97.62,7.54,2.14,16.89,14.81,23.41,28.76,30.17,8.04,3.9,24.72,10.5,33.29,11.77,2.13.32,8.15.03,9.4-1.93,1.44-2.27-3.57-2.61-4.13-3.58-.48-.82.09-3.06.91-3.6,2.2-1.43,10.19-1.96,9.61-5.77-.32-2.11-1.6-2.28-3.41-2.44-5.56-.48-12.41.6-17.79-.13-7.02-.96-19.76-9.38-26.21-13.31-10.32-6.28-19.87-14.14-31.05-18.72Z"/>
      <path class="cls-6" d="M1603.22,243.66c-.08,0-1.49-1.35-1,0,15.13,10.69,34.2,13.18,51.55,18.77,8.7-1.05.24-11.98-2.99-15.33-1.64-1.7-7.19-6.71-9.03-7.79-.75-.44-8.79-3.64-9.29-3.59-3.65,1.8-7.07,4.09-10.91,5.47-1.76.63-7.89,2.46-9.42,2.46-2.96,0-5.96.1-8.91,0Z"/>
      <path class="cls-3" d="M1501.46,110.94c.12.57.35.99.5,1.49l.5.99c.05.15-.05.35,0,.5h.99s0,1.49,0,1.49c.06.14-.06.36,0,.5h.99c.1.61-.13,1.44,0,1.98.04.16-.04.34,0,.5,1.63.77,2.11-1.02,2.24-1.01.98.1,2.99,1.81,4.29,2.16,4.12,1.1,5.47-.71,8.75-2.21.22-.24.14-3.86.03-4.59s-1.49-6.45-1.68-6.73c-.51-.75-2.11-.61-2.84-1.01-.42-.23-.76-1-1.37-1.45s-1.51-1-1.98-1.49l-8.18,1.43c-1.47.95-1,2.27-1.46,3.53-.78,2.13-1.39.91-.76,3.95Z"/>
      <path class="cls-6" d="M1648.64,222.97c-.2.12-2.19,2.85-3.07,3.61-.68.59-8.33,6.16-7.93,6.67,2.5.55,4.84,1.73,7.32,2.34,5.39,1.32,12,2.05,17.46.91,8.95-1.86-.79-8.19-4.22-10.19-1.69-.99-7.96-4.28-9.57-3.34Z"/>
      <path class="cls-6" d="M1544.54,145.6c2.82,18.08,21.99,11.81,25.25-2.48-3.61.22-7.09,1.52-10.65,1.97-4.9.62-9.68.1-14.6.5Z"/>
      <path class="cls-6" d="M1503.44,115.89c.27.59.1,1.55.99,1.98-.13-.54.1-1.37,0-1.98h-.99Z"/>
      <path class="cls-6" d="M1502.45,113.91c.42,1.11.95,1.4.99,1.49v-1.49s-.99,0-.99,0Z"/>
      <path class="cls-6" d="M1502.45,113.41l-.5-.99c.16.54.44.84.5.99Z"/>
      <path class="cls-3" d="M1573.76,108.46c-.18.11-.72,3.17-1.27,3.93-.98,1.36-4.31,2.55-5.05,5.36-.38,1.42.65,4.04,1.46,5.23,2,2.93,10.71,2.69,13.65,1.45s6.39-7.14,6.57-10.29c.22-3.99-.93-3.36-2.95-5.46-.61-.63-.51-1.85-1.33-2.14-.62-.22-5.06-.21-5.87-.05-1.35.26-1.61,1.57-2.59,1.87-.78.24-2.4-.04-2.62.1Z"/>
      <path class="cls-4" d="M1573.76,108.46c2.76-1.46,5.56-6.01,5.47-9.18-.03-1.19-1.19-3.31-2.54-2.96-1.93.49-1.29,2.5-1.9,4.01-.91,2.24-3.28,4.12-5.72,4.22-6.02.26-6.65-3.4-8.76-7.88-3.19-1.81-2.61,5-2.06,6.76,1.09,3.51,7.45,6.41,10.88,6.49.68.02,3.94-1.09,4.64-1.46Z"/>
      <path class="cls-4" d="M1513.84,103.51c4.13,2.16,9.12,1.98,12.49-1.48,1.51-1.56,4.22-7.76,1.88-9.18-.5-.32-1.11-.36-1.67-.18-1.98.64-1.23,8.52-8,7.89-5.38-.5-4.73-8.88-6.47-9.42-3.96-1.23-2.97,8.08-.21,10.88.47.48,1.39,1.05,1.98,1.49Z"/>
      <path class="cls-4" d="M1553.88,116.95c-1.47-2.31-5.71,1.79-7.01,2.51-4.85,2.7-8.88-.38-12.68-3.34-4.43.92-.9,5.14,1.27,6.63,4.73,3.24,11.83,3.52,16.27-.41.99-.88,2.95-4.15,2.16-5.39Z"/>
      <path class="cls-4" d="M1575.07,77.93c-2.32-2.38-11.03-5.89-12.83-2.03-2.22,4.74,3.14,2.45,6.1,3.07,2.17.46,6.28,3.58,7.24,3.67.68.06,1.69-.87,1.58-1.57-.8-.86-1.34-2.38-2.09-3.14Z"/>
      <path class="cls-4" d="M1608.1,98.24c-1.36.97-5.94,5.84-5.55,7.39,3.45,3.93,5.43-3.05,9.34-4.85,1.87-.86,6.58-.95,4.42-3.92-1.56-2.14-6.46.14-8.21,1.38Z"/>
      <path class="cls-4" d="M1522.25,72.81c-3.31-2.43-15.35.19-13.81,5.12.98,1.71,3.34-.46,4.88-.94s8.19-1.87,8.71-2.68c.31-.49.26-.96.22-1.5Z"/>
      <path class="cls-4" d="M1536.73,101.65c-.8.94-1.82,5.72-.12,6.58,3.93,1.98,5.51-6.34,3.15-7.15-.67-.23-2.59.05-3.03.57Z"/>
    </g>
  </g>
</svg>